<svg width="110" height="110" viewBox="0 0 110 110" fill="none" xmlns="http://www.w3.org/2000/svg">
<path d="M30.9166 17.1875C28.8555 17.1875 27.4814 19.25 27.4814 20.625V37.8125H20.6111V20.625C20.6111 18.5625 19.237 17.1875 17.1759 17.1875C15.1148 17.1875 13.7407 19.25 13.7407 20.625V37.8125H6.87035V20.625C6.87035 18.5625 5.49628 17.1875 3.43518 17.1875C1.37407 17.1875 0 19.25 0 20.625V43.3125C0 49.5 4.80925 54.3125 10.3055 55V103.125C10.3055 107.25 13.0537 110 17.1759 110C21.2981 110 24.0462 107.25 24.0462 103.125V55C29.5425 54.3125 34.3518 49.5 34.3518 43.3125V20.625C34.3518 19.25 32.9777 17.1875 30.9166 17.1875ZM44.6573 20.625V61.875H51.5276V103.125C51.5276 107.25 54.2758 110 58.398 110C62.5202 110 65.2683 107.25 65.2683 103.125V0C53.5887 0 44.6573 8.9375 44.6573 20.625ZM92.7497 13.75C83.1312 13.75 75.5739 24.0625 75.5739 36.4375C74.8868 44.6875 79.009 52.25 85.8794 57.0625V103.125C85.8794 107.25 88.6275 110 92.7497 110C96.872 110 99.6201 107.25 99.6201 103.125V57.0625C106.49 52.25 110.613 44.6875 109.926 36.4375C109.926 24.0625 102.368 13.75 92.7497 13.75Z" fill="#F44336"/>
</svg>
