<svg width="120" height="100" viewBox="0 0 120 100" fill="none" xmlns="http://www.w3.org/2000/svg">
<path d="M116.781 46.9765C111.478 19.7389 103.497 5.20128 91.6592 1.23026C89.1707 0.400975 86.5895 -0.0133281 83.9962 0.000326819C80.5685 0.000326819 77.5834 0.949052 74.4257 1.95459C70.6205 3.16748 66.2977 4.54512 59.9949 4.54512C53.692 4.54512 49.3667 3.17032 45.554 1.95743C42.3938 0.949052 39.4112 0.000326819 35.9935 0.000326819C33.3119 -0.0102372 30.642 0.402746 28.0605 1.22742C16.2848 5.18139 8.30938 19.7134 2.92907 46.9594C-2.85627 76.279 -0.00860168 94.7905 10.9145 99.0854C12.4118 99.685 13.9872 99.9942 15.5748 100C23.0577 100 29.0581 92.9186 33.1583 87.1212C37.7911 80.5596 43.2139 77.2306 59.9949 77.2306C74.9832 77.2306 81.1861 79.5399 86.5439 87.1212C89.9116 91.8875 93.0943 95.2223 96.2694 97.3214C100.492 100.111 104.712 100.73 108.81 99.1308C115.266 96.6283 118.966 90.0128 119.811 79.4632C120.453 71.3735 119.463 60.7472 116.781 46.9765ZM47.9942 45.4483H39.9937V54.5379C39.9937 55.7432 39.5722 56.8992 38.8221 57.7515C38.0719 58.6038 37.0544 59.0826 35.9935 59.0826C34.9325 59.0826 33.9151 58.6038 33.1649 57.7515C32.4147 56.8992 31.9932 55.7432 31.9932 54.5379V45.4483H23.9928C22.9319 45.4483 21.9144 44.9694 21.1642 44.1171C20.414 43.2648 19.9925 42.1088 19.9925 40.9035C19.9925 39.6981 20.414 38.5421 21.1642 37.6898C21.9144 36.8375 22.9319 36.3587 23.9928 36.3587H31.9932V27.2691C31.9932 26.0637 32.4147 24.9078 33.1649 24.0554C33.9151 23.2031 34.9325 22.7243 35.9935 22.7243C37.0544 22.7243 38.0719 23.2031 38.8221 24.0554C39.5722 24.9078 39.9937 26.0637 39.9937 27.2691V36.3587H47.9942C49.0551 36.3587 50.0726 36.8375 50.8228 37.6898C51.5729 38.5421 51.9944 39.6981 51.9944 40.9035C51.9944 42.1088 51.5729 43.2648 50.8228 44.1171C50.0726 44.9694 49.0551 45.4483 47.9942 45.4483ZM68.9954 46.5845C68.0064 46.5845 67.0396 46.2513 66.2174 45.627C65.3951 45.0028 64.7542 44.1156 64.3757 43.0775C63.9972 42.0394 63.8982 40.8972 64.0912 39.7952C64.2841 38.6932 64.7603 37.6809 65.4596 36.8864C66.1589 36.0919 67.0499 35.5508 68.0199 35.3316C68.9898 35.1124 69.9952 35.2249 70.9089 35.6549C71.8226 36.0849 72.6035 36.813 73.153 37.7473C73.7024 38.6815 73.9957 39.7799 73.9957 40.9035C73.9957 42.4102 73.4688 43.8551 72.5311 44.9205C71.5934 45.9859 70.3215 46.5845 68.9954 46.5845ZM79.996 59.0826C79.0065 59.0826 78.0393 58.7491 77.2167 58.1242C76.3941 57.4994 75.7533 56.6113 75.3752 55.5724C74.9971 54.5335 74.8988 53.3905 75.0927 52.2881C75.2867 51.1857 75.7642 50.1735 76.4647 49.3796C77.1653 48.5856 78.0574 48.0457 79.0282 47.8281C79.999 47.6105 81.0048 47.725 81.9182 48.1572C82.8317 48.5894 83.6117 49.3197 84.1597 50.2558C84.7076 51.1919 84.9988 52.2917 84.9963 53.4159C84.993 54.9201 84.4647 56.3614 83.5273 57.4237C82.59 58.4861 81.32 59.0827 79.996 59.0826ZM79.996 34.0863C79.007 34.0863 78.0403 33.7531 77.218 33.1289C76.3957 32.5046 75.7548 31.6174 75.3763 30.5793C74.9979 29.5412 74.8989 28.399 75.0918 27.297C75.2847 26.195 75.761 25.1827 76.4603 24.3882C77.1596 23.5937 78.0505 23.0527 79.0205 22.8335C79.9905 22.6143 80.9958 22.7268 81.9095 23.1567C82.8232 23.5867 83.6042 24.3149 84.1536 25.2491C84.703 26.1833 84.9963 27.2817 84.9963 28.4053C84.9963 29.912 84.4695 31.357 83.5317 32.4224C82.594 33.4878 81.3222 34.0863 79.996 34.0863ZM90.9966 46.5845C90.0077 46.5845 89.0409 46.2513 88.2186 45.627C87.3963 45.0028 86.7554 44.1156 86.377 43.0775C85.9985 42.0394 85.8995 40.8972 86.0924 39.7952C86.2854 38.6932 86.7616 37.6809 87.4609 36.8864C88.1602 36.0919 89.0512 35.5508 90.0211 35.3316C90.9911 35.1124 91.9965 35.2249 92.9102 35.6549C93.8238 36.0849 94.6048 36.813 95.1542 37.7473C95.7037 38.6815 95.9969 39.7799 95.9969 40.9035C95.9969 42.4102 95.4701 43.8551 94.5324 44.9205C93.5946 45.9859 92.3228 46.5845 90.9966 46.5845Z" fill="#A60321"/>
</svg>
