<svg width="120" height="120" viewBox="0 0 120 120" fill="none" xmlns="http://www.w3.org/2000/svg">
<path d="M9.23077 0C9.23077 0 0 0 0 9.23077V56.8431C0 72.8123 3.26769 92.3077 32.3077 92.3077H36.9231V64.6154L13.8462 73.8462C13.8462 73.8462 13.8462 50.7692 36.9231 50.7692V36.9231C36.9231 30.3877 37.7262 24.7385 41.5385 20.5385C45.0554 16.6615 50.8154 8.92615 66.0554 16.1908L73.8462 21.2585V9.23077C73.8462 9.23077 73.8462 0 64.6154 0C58.08 0 46.3569 9.23077 36.9231 9.23077C27.4892 9.23077 16.4954 0 9.23077 0ZM18.4615 18.4615C20.9097 18.4615 23.2576 19.4341 24.9887 21.1652C26.7198 22.8963 27.6923 25.2442 27.6923 27.6923C27.6923 30.1405 26.7198 32.4883 24.9887 34.2194C23.2576 35.9506 20.9097 36.9231 18.4615 36.9231C16.0134 36.9231 13.6655 35.9506 11.9344 34.2194C10.2033 32.4883 9.23077 30.1405 9.23077 27.6923C9.23077 25.2442 10.2033 22.8963 11.9344 21.1652C13.6655 19.4341 16.0134 18.4615 18.4615 18.4615ZM55.3846 27.6923C55.3846 27.6923 46.1538 27.6923 46.1538 36.9231V83.0769C46.1538 101.538 55.3846 120 83.0769 120C110.769 120 120 101.538 120 83.0769V36.9231C120 27.6923 110.769 27.6923 110.769 27.6923C104.234 27.6923 92.5108 36.9231 83.0769 36.9231C73.6431 36.9231 62.6492 27.6923 55.3846 27.6923ZM64.6154 46.1538C67.0635 46.1538 69.4114 47.1264 71.1425 48.8575C72.8736 50.5886 73.8462 52.9365 73.8462 55.3846C73.8462 57.8328 72.8736 60.1806 71.1425 61.9118C69.4114 63.6429 67.0635 64.6154 64.6154 64.6154C62.1672 64.6154 59.8194 63.6429 58.0882 61.9118C56.3571 60.1806 55.3846 57.8328 55.3846 55.3846C55.3846 52.9365 56.3571 50.5886 58.0882 48.8575C59.8194 47.1264 62.1672 46.1538 64.6154 46.1538ZM101.538 46.1538C103.987 46.1538 106.334 47.1264 108.066 48.8575C109.797 50.5886 110.769 52.9365 110.769 55.3846C110.769 57.8328 109.797 60.1806 108.066 61.9118C106.334 63.6429 103.987 64.6154 101.538 64.6154C99.0903 64.6154 96.7424 63.6429 95.0113 61.9118C93.2802 60.1806 92.3077 57.8328 92.3077 55.3846C92.3077 52.9365 93.2802 50.5886 95.0113 48.8575C96.7424 47.1264 99.0903 46.1538 101.538 46.1538ZM60 83.0769H106.154C106.154 83.0769 106.154 106.154 83.0769 106.154C60 106.154 60 83.0769 60 83.0769Z" fill="#6F5193"/>
</svg>
