<svg width="120" height="100" viewBox="0 0 120 100" fill="none" xmlns="http://www.w3.org/2000/svg">
<path d="M39.3334 13.3352C39.3718 15.1117 39.0783 16.8785 38.4702 18.5318C37.8621 20.1851 36.9517 21.6915 35.7924 22.9624C34.6332 24.2334 33.2484 25.2433 31.7196 25.9328C30.1908 26.6223 28.5488 26.9775 26.89 26.9775C25.2313 26.9775 23.5892 26.6223 22.0604 25.9328C20.5317 25.2433 19.1469 24.2334 17.9877 22.9624C16.8284 21.6915 15.918 20.1851 15.3099 18.5318C14.7018 16.8785 14.4083 15.1117 14.4467 13.3352C14.5001 9.83718 15.8348 6.50176 18.1629 4.04825C20.491 1.59474 23.6259 0.219727 26.8917 0.219727C30.1575 0.219727 33.2924 1.59474 35.6205 4.04825C37.9486 6.50176 39.2833 9.83718 39.3367 13.3352H39.3334Z" fill="black"/>
<path fill-rule="evenodd" clip-rule="evenodd" d="M12.32 57.1179C11.3829 58.7241 9.88861 59.8658 8.16578 60.2917C6.44294 60.7176 4.63273 60.3929 3.13337 59.389C1.63401 58.3851 0.568327 56.7843 0.170749 54.9387C-0.226828 53.0931 0.0762713 51.1539 1.01337 49.5476L1.0267 49.5262L1.05004 49.4869L1.13004 49.3512C1.55287 48.6373 1.98738 47.9313 2.43337 47.2337C3.28337 45.8946 4.48004 44.0806 5.84004 42.2345C7.17004 40.4347 8.80338 38.4029 10.53 36.7531C11.3934 35.9283 12.4334 35.0498 13.6101 34.3428C14.7167 33.6786 16.4467 32.8573 18.5634 32.8573H35.2167C37.3334 32.8573 39.0634 33.6786 40.1734 34.3428C41.3467 35.0498 42.3901 35.9283 43.2501 36.7531C44.9767 38.4029 46.6134 40.4347 47.9401 42.238C49.6187 44.5243 51.1907 46.8983 52.6501 49.3512L52.7334 49.4869L52.7568 49.5226L52.7668 49.5441C52.7668 49.5441 52.6501 49.3512 52.7668 49.5441C53.6782 51.1492 53.9625 53.0743 53.5581 54.9024C53.1537 56.7305 52.0932 58.3143 50.6064 59.3106C49.1195 60.3068 47.3261 60.6354 45.6147 60.2249C43.9033 59.8145 42.4118 58.6982 41.4634 57.1179L41.4534 57.1036L41.4001 57.0144C41.2335 56.7331 41.0646 56.4533 40.8934 56.1752V65.0453L43.3034 92.1662C43.4549 94.0149 42.9288 95.8542 41.8364 97.2945C40.744 98.7348 39.1712 99.663 37.451 99.8826C35.7308 100.102 33.9984 99.5958 32.6207 98.4707C31.243 97.3457 30.3282 95.6903 30.0701 93.8553L26.6667 68.3591L23.2667 93.8553C23.0233 95.7044 22.1134 97.3779 20.7321 98.5171C19.3508 99.6562 17.6079 100.17 15.8769 99.9496C14.1459 99.7287 12.5645 98.7903 11.4716 97.3354C10.3787 95.8805 9.86121 94.0249 10.03 92.1662L12.83 60.7067H12.89V56.1716C12.718 56.4511 12.548 56.7321 12.38 57.0144L12.33 57.1036L12.32 57.1179Z" fill="black"/>
<path d="M106 13.3319C106 16.8678 104.689 20.2588 102.355 22.759C100.021 25.2592 96.8557 26.6638 93.5551 26.6638C90.2545 26.6638 87.0891 25.2592 84.7552 22.759C82.4213 20.2588 81.1101 16.8678 81.1101 13.3319C81.1101 9.79608 82.4213 6.40505 84.7552 3.90483C87.0891 1.40461 90.2545 0 93.5551 0C96.8557 0 100.021 1.40461 102.355 3.90483C104.689 6.40505 106 9.79608 106 13.3319Z" fill="black"/>
<path fill-rule="evenodd" clip-rule="evenodd" d="M79.0032 56.3681C78.0601 57.9477 76.5749 59.0666 74.8683 59.4832C73.1617 59.8998 71.3706 59.5806 69.8817 58.5947C68.3929 57.6088 67.3257 56.0351 66.9106 54.2135C66.4956 52.3919 66.7659 50.4685 67.6632 48.8586L67.6732 48.8371L67.6999 48.7979L67.7765 48.6622L68.0599 48.1837C69.427 45.9042 70.8873 43.6905 72.4366 41.5489C73.7499 39.7492 75.3699 37.7138 77.0766 36.0605C77.9332 35.2356 78.9666 34.35 80.1366 33.643C81.2366 32.9717 82.9699 32.1396 85.0966 32.1396H101.57C103.697 32.1396 105.43 32.9717 106.533 33.6394C107.7 34.3536 108.733 35.2356 109.59 36.0605C111.3 37.7138 112.917 39.7492 114.23 41.5489C115.891 43.8356 117.446 46.2083 118.89 48.6586L118.97 48.7979L119.003 48.8586C119.933 50.4695 120.228 52.4103 119.822 54.2539C119.416 56.0975 118.344 57.6929 116.84 58.6892C115.336 59.6855 113.525 60.0011 111.804 59.5665C110.083 59.1319 108.593 57.9827 107.663 56.3717L107.653 56.3539L107.603 56.2646C107.102 55.4183 106.585 54.5826 106.053 53.7578C107.613 62.078 110.687 73.4906 112.293 79.2611C112.427 79.7297 112.469 80.223 112.416 80.7098C112.363 81.1965 112.216 81.6662 111.985 82.0891C111.754 82.512 111.443 82.8789 111.073 83.1665C110.702 83.4542 110.28 83.6565 109.833 83.7605C98.0432 86.3922 89.7899 86.3244 76.9866 83.7105C76.5271 83.6136 76.0919 83.414 75.7093 83.1247C75.3268 82.8354 75.0055 82.4629 74.7664 82.0316C74.5273 81.6002 74.3759 81.1197 74.3219 80.6214C74.2679 80.1231 74.3127 79.6182 74.4532 79.1397C76.1366 73.3406 79.2666 62.0494 80.7499 53.5436C80.1714 54.4389 79.609 55.346 79.0632 56.2646L79.0132 56.3539L79.0032 56.3681Z" fill="black"/>
<path fill-rule="evenodd" clip-rule="evenodd" d="M78.6671 89.8166V94.6302C78.6683 95.9281 79.1095 97.1815 79.9086 98.1572C80.7076 99.1329 81.8102 99.7645 83.0114 99.9348C84.2125 100.105 85.4305 99.8022 86.4389 99.0827C87.4473 98.3631 88.1775 97.2758 88.4938 96.0228L89.8105 90.795C86.0839 90.6531 82.3655 90.3267 78.6671 89.8166ZM97.5171 90.7807L98.8405 96.0264C99.1568 97.2796 99.8873 98.3672 100.896 99.0867C101.905 99.8062 103.123 100.109 104.325 99.9381C105.526 99.7674 106.629 99.1351 107.427 98.1587C108.226 97.1824 108.667 95.9284 108.667 94.6302V89.7666C104.966 90.2806 101.246 90.6178 97.5171 90.7772V90.7807Z" fill="black"/>
</svg>
