<?xml version="1.0" encoding="utf-8"?>
<!-- Generator: Adobe Illustrator 19.0.0, SVG Export Plug-In . SVG Version: 6.00 Build 0)  -->
<svg version="1.1" id="Capa_1" xmlns="http://www.w3.org/2000/svg" xmlns:xlink="http://www.w3.org/1999/xlink" x="0px" y="0px"
	 viewBox="-280 399.1 33.6 44.8" style="enable-background:new -280 399.1 33.6 44.8;" xml:space="preserve">
<style type="text/css">
	.st0{fill:#247737;}
	.st1{fill:#1D4F24;}
	.st2{fill:#F6A23C;}
	.st3{fill:#FFDE00;}
	.st4{fill:#8197BA;}
</style>
<g id="XMLID_355_">
	<path id="XMLID_358_" class="st0" d="M-246.6,434.6c-0.2-0.6-3.9-5.7-3.9-5.7l-7.3-9.1c0,0-1.6-2.3-3.5-3.4
		c-1.1-0.6-1.9-0.5-1.9-0.5s-0.9-0.1-1.9,0.5c-1.9,1.1-3.5,3.4-3.5,3.4l-7.4,9.1c0,0-3.7,5.1-3.9,5.7c-0.1,0.6-0.3,1.7,0.5,2.5
		c0.9,0.9,2.8,1,2.8,1s0,1.4,0.7,2.3c0.6,0.9,2.8,1.7,3.6,1.8c2.9,0.4,4.5-0.5,4.5-0.5s0.5,0.9,1.2,1.5c1,0.8,3.4,0.7,3.4,0.7
		s2.4,0,3.4-0.7c0.8-0.6,1.2-1.5,1.2-1.5s1.6,0.9,4.5,0.5c0.8-0.1,3-1,3.6-1.8c0.6-0.9,0.7-2.3,0.7-2.3s1.9-0.1,2.8-1
		C-246.2,436.3-246.4,435.2-246.6,434.6z"/>
	<path id="XMLID_359_" class="st1" d="M-250.8,424.7c-0.1-0.5-3-4.8-3-4.8l-5.7-7.8c0,0-1.2-2-2.7-2.9c-0.8-0.5-1.5-0.4-1.5-0.4
		s-0.7-0.1-1.5,0.4c-1.6,0.9-2.8,2.9-2.8,2.9l-5.7,7.7c0,0-2.9,4.3-3,4.8c-0.1,0.5-0.3,1.5,0.4,2.2c0.7,0.7,2.2,0.8,2.2,0.8
		s0,1.2,0.5,1.9c0.5,0.7,2.2,1.5,2.8,1.6c2.3,0.3,3.5-0.5,3.5-0.5s0.4,0.8,1,1.3c0.7,0.6,2.6,0.6,2.6,0.6s1.9,0,2.6-0.6
		c0.6-0.5,1-1.3,1-1.3s1.3,0.8,3.5,0.5c0.6-0.1,2.3-0.8,2.8-1.6c0.5-0.7,0.5-1.9,0.5-1.9s1.5-0.1,2.2-0.8
		C-250.4,426.1-250.7,425.3-250.8,424.7z"/>
	<path id="XMLID_360_" class="st0" d="M-254.7,415c-0.1-0.4-2.1-3.4-2.1-3.4l-4-5.4c0,0-0.9-1.4-1.9-2c-0.6-0.4-1.1-0.3-1.1-0.3
		s-0.5-0.1-1.1,0.3c-1,0.6-1.9,2-1.9,2l-4,5.4c0,0-2,3-2.1,3.4s-0.2,1,0.3,1.5s1.6,0.6,1.6,0.6s0,0.8,0.4,1.3c0.3,0.5,1.5,1,2,1.1
		c1.6,0.2,2.5-0.3,2.5-0.3s0.3,0.5,0.7,0.9c0.5,0.5,1.8,0.4,1.8,0.4s1.3,0,1.8-0.4c0.4-0.4,0.7-0.9,0.7-0.9s0.9,0.5,2.5,0.3
		c0.4-0.1,1.6-0.6,2-1.1c0.3-0.5,0.4-1.3,0.4-1.3s1.1-0.1,1.5-0.6C-254.5,416-254.6,415.4-254.7,415z"/>
	<g id="XMLID_361_">
		<ellipse id="XMLID_362_" class="st2" cx="-272.6" cy="415.9" rx="1.8" ry="1.6"/>
		<ellipse id="XMLID_363_" class="st2" cx="-276.8" cy="437.5" rx="1.8" ry="1.6"/>
		<ellipse id="XMLID_365_" class="st2" cx="-262.9" cy="420.5" rx="1.2" ry="1.2"/>
		<ellipse id="XMLID_366_" class="st2" cx="-261.7" cy="437.8" rx="1.8" ry="1.6"/>
		<ellipse id="XMLID_367_" class="st3" cx="-272.9" cy="429.9" rx="1.4" ry="1.4"/>
		<ellipse id="XMLID_368_" class="st3" cx="-265" cy="414.3" rx="1.4" ry="1.4"/>
		<ellipse id="XMLID_369_" class="st3" cx="-258.9" cy="427.2" rx="1.4" ry="1.4"/>
		<ellipse id="XMLID_370_" class="st4" cx="-259.3" cy="415.5" rx="1.4" ry="1.4"/>
		<ellipse id="XMLID_371_" class="st4" cx="-272.6" cy="422.7" rx="1.4" ry="1.4"/>
		<ellipse id="XMLID_372_" class="st4" cx="-265" cy="432.7" rx="1.4" ry="1.4"/>
		<ellipse id="XMLID_373_" class="st4" cx="-249.2" cy="434" rx="1.4" ry="1.4"/>
		<ellipse id="XMLID_374_" class="st2" cx="-252.5" cy="422.7" rx="1.8" ry="1.6"/>
		<polygon id="XMLID_375_" class="st3" points="-260.8,407.7 -263.7,406.4 -266.5,408 -266.1,404.8 -268.5,402.6 -265.3,402 
			-264,399.1 -262.5,401.9 -259.3,402.3 -261.5,404.6 		"/>
	</g>
</g>
</svg>
