<?xml version="1.0" encoding="utf-8"?>
<!-- Generator: Adobe Illustrator 19.0.0, SVG Export Plug-In . SVG Version: 6.00 Build 0)  -->
<svg version="1.1" id="Capa_1" xmlns="http://www.w3.org/2000/svg" xmlns:xlink="http://www.w3.org/1999/xlink" x="0px" y="0px"
	 viewBox="0 0 54.8 54.4" style="enable-background:new 0 0 54.8 54.4;" xml:space="preserve">
<style type="text/css">
	.st0{fill:#010202;}
</style>
<g id="XMLID_1_">
	<path id="XMLID_60_" class="st0" d="M54.3,35.2L35.6,53.9c-0.7,0.7-1.8,0.7-2.5,0l-32-32c-0.3-0.3-0.5-0.7-0.5-1.2L0,1.8
		c0-0.5,0.2-0.9,0.5-1.3c0,0,0,0,0,0C0.8,0.2,1.3,0,1.8,0l19.4,0.2c0.5,0,0.9,0.2,1.2,0.5l32,32C55,33.4,55,34.5,54.3,35.2z
		 M34.3,50.2l16.3-16.3L20.4,3.7L3.6,3.5l0.5,16.4L34.3,50.2z"/>
	<g id="XMLID_2_">
		<path id="XMLID_3_" class="st0" d="M12.2,16.8c-0.5-0.5-0.8-1-1-1.5c-0.2-0.5-0.3-1.1-0.3-1.6s0.2-1,0.4-1.5
			c0.2-0.5,0.5-0.9,0.9-1.2c0.4-0.4,0.8-0.7,1.3-0.9c0.5-0.2,1-0.3,1.5-0.4c0.5,0,1.1,0.1,1.6,0.3c0.5,0.2,1.1,0.6,1.5,1.1
			c0.4,0.4,0.7,0.8,0.9,1.2c0.2,0.4,0.3,0.7,0.3,1.1c0,0.3,0,0.7,0,0.9C19.1,14.5,19,14.8,19,15c-0.1,0.2-0.2,0.4-0.4,0.7l-1.5-1.5
			c0.1-0.2,0.2-0.4,0.2-0.6c0-0.2,0-0.4-0.1-0.6c-0.1-0.2-0.2-0.5-0.5-0.7c-0.3-0.3-0.7-0.5-1-0.6c-0.4-0.1-0.7,0-1.1,0.1
			c-0.4,0.1-0.7,0.3-0.9,0.6c-0.3,0.3-0.5,0.6-0.6,1c-0.1,0.4-0.2,0.7-0.1,1.1c0.1,0.4,0.3,0.7,0.6,1.1c0.3,0.3,0.6,0.5,1,0.6
			c0.3,0,0.7,0,1-0.2l-1.3-1.3l1.1-1.1l2.8,2.8l-0.5,0.5c-0.6,0.6-1.2,1-1.9,1.2c-0.6,0.2-1.3,0.2-1.9,0
			C13.3,17.7,12.7,17.4,12.2,16.8z"/>
		<path id="XMLID_5_" class="st0" d="M15.6,20.1l5.7-5.7l2.5,2.5c0.4,0.4,0.7,0.9,0.9,1.3c0.2,0.5,0.2,0.9,0.1,1.4
			c-0.1,0.4-0.3,0.9-0.7,1.3c-0.4,0.4-0.8,0.6-1.2,0.7c-0.4,0.1-0.9,0.1-1.3-0.1l-1.2,3.4l-1.6-1.6l1.1-3l-0.7-0.7l-2,2L15.6,20.1z
			 M22.5,18.2l-1-1l-1.2,1.2l1,1c0.2,0.2,0.4,0.3,0.7,0.3c0.2,0,0.4-0.1,0.6-0.2c0.2-0.2,0.3-0.4,0.2-0.6
			C22.8,18.6,22.7,18.4,22.5,18.2z"/>
		<path id="XMLID_8_" class="st0" d="M21,25.5l7.5-3.8l2,2l-3.8,7.5l-1.5-1.5l0.7-1.2l-2.1-2.1L22.5,27L21,25.5z M25.4,25.5l1.3,1.3
			l1.4-2.7L25.4,25.5z"/>
		<path id="XMLID_11_" class="st0" d="M28,32.5l4.4-4.4l-1.7-1.7l1.3-1.3l4.9,4.9l-1.3,1.3l-1.7-1.7L29.5,34L28,32.5z"/>
		<path id="XMLID_13_" class="st0" d="M31.9,36.4l5.7-5.7l1.5,1.5l-5.7,5.7L31.9,36.4z"/>
		<path id="XMLID_69_" class="st0" d="M36.5,41.2c-0.4-0.4-0.7-0.8-0.9-1.1c-0.2-0.4-0.3-0.7-0.3-1c0-0.3,0-0.6,0-0.9
			c0.1-0.3,0.1-0.5,0.2-0.7c0.1-0.2,0.2-0.4,0.4-0.6l1.5,1.5c-0.1,0.2-0.2,0.4-0.2,0.5c0,0.2,0,0.4,0.1,0.6c0.1,0.2,0.2,0.4,0.5,0.7
			c0.3,0.3,0.6,0.5,0.8,0.5c0.2,0,0.4-0.1,0.6-0.2c0.1-0.1,0.2-0.3,0.2-0.4c0-0.2-0.1-0.4-0.3-0.6l-0.6-0.9
			c-0.3-0.4-0.5-0.8-0.7-1.2c-0.2-0.4-0.2-0.8-0.2-1.2c0-0.4,0.3-0.8,0.6-1.2c0.4-0.4,0.8-0.6,1.2-0.7c0.5-0.1,0.9,0,1.4,0.1
			c0.5,0.2,1,0.5,1.4,1c0.4,0.4,0.6,0.7,0.8,1.1c0.2,0.3,0.3,0.7,0.3,1c0,0.3,0,0.6,0,0.8c0,0.2-0.1,0.5-0.2,0.7
			c-0.1,0.2-0.2,0.4-0.3,0.6l-1.4-1.4c0.1-0.2,0.1-0.3,0.1-0.4c0-0.1,0-0.3-0.1-0.5c-0.1-0.2-0.2-0.4-0.4-0.6
			c-0.2-0.2-0.4-0.3-0.5-0.4c-0.2-0.1-0.3-0.1-0.5,0c-0.1,0-0.2,0.1-0.3,0.2c-0.1,0.1-0.2,0.3-0.1,0.5c0.1,0.2,0.2,0.4,0.4,0.7
			l0.7,0.9c0.3,0.4,0.5,0.7,0.6,1.1c0.1,0.4,0.2,0.8,0.1,1.2c-0.1,0.4-0.3,0.8-0.6,1.1c-0.4,0.4-0.8,0.6-1.2,0.7
			c-0.5,0.1-0.9,0-1.4-0.1C37.5,42,37,41.7,36.5,41.2z"/>
	</g>
	<path id="XMLID_54_" class="st0" d="M9,8.8c-0.8,0.8-2,0.8-2.7,0s-0.8-2,0-2.7s2-0.8,2.7,0C9.8,6.8,9.8,8,9,8.8z M6.8,6.6
		C6.4,7,6.4,7.8,6.8,8.2c0.5,0.5,1.2,0.5,1.6,0c0.5-0.5,0.5-1.2,0-1.6C8,6.1,7.3,6.1,6.8,6.6z"/>
</g>
</svg>
