<svg width="120" height="120" viewBox="0 0 120 120" fill="none" xmlns="http://www.w3.org/2000/svg">
<path d="M117.337 1.3613C116.508 0.760208 115.542 0.342484 114.513 0.139849C113.484 -0.062787 112.418 -0.0450068 111.398 0.191839L37.5472 17.3346C36.0492 17.6823 34.7193 18.485 33.769 19.615C32.8188 20.7451 32.3026 22.1377 32.3026 23.5714V78.9373C27.7483 77.0922 22.6742 76.6615 17.835 77.7092C12.9958 78.7568 8.65015 81.227 5.4444 84.7522C2.23865 88.2774 0.344099 92.6692 0.0425456 97.2745C-0.259008 101.88 1.04855 106.452 3.77073 110.312C6.4929 114.172 10.4843 117.113 15.1511 118.697C19.8179 120.282 24.9109 120.425 29.6724 119.106C34.434 117.786 38.6097 115.075 41.5785 111.375C44.5472 107.676 46.1504 103.185 46.1496 98.5711V54.3052L106.153 40.3767V61.7945C101.599 59.9494 96.5246 59.5187 91.6854 60.5663C86.8462 61.614 82.5006 64.0842 79.2948 67.6094C76.0891 71.1345 74.1945 75.5264 73.893 80.1317C73.5914 84.737 74.899 89.3096 77.6211 93.1694C80.3433 97.0292 84.3347 99.97 89.0015 101.554C93.6683 103.139 98.7613 103.282 103.523 101.963C108.284 100.644 112.46 97.9324 115.429 94.2327C118.398 90.5329 120.001 86.0421 120 81.4283V6.4286C120 5.45161 119.76 4.48745 119.299 3.60939C118.838 2.73134 118.167 1.96249 117.337 1.3613ZM23.0713 107.143C21.2456 107.143 19.4608 106.64 17.9427 105.698C16.4246 104.756 15.2414 103.417 14.5427 101.851C13.844 100.285 13.6612 98.5616 14.0174 96.8989C14.3736 95.2363 15.2528 93.709 16.5438 92.5103C17.8348 91.3115 19.4797 90.4952 21.2704 90.1644C23.0611 89.8337 24.9172 90.0035 26.604 90.6522C28.2908 91.3009 29.7325 92.3996 30.7469 93.8091C31.7612 95.2187 32.3026 96.8759 32.3026 98.5711C32.2999 100.844 31.3264 103.022 29.5958 104.629C27.8652 106.236 25.5188 107.14 23.0713 107.143ZM46.1496 41.0517V28.591L106.153 14.6625V27.1232L46.1496 41.0517ZM96.9218 89.9997C95.096 89.9997 93.3112 89.497 91.7931 88.5552C90.275 87.6134 89.0918 86.2747 88.3931 84.7085C87.6944 83.1423 87.5116 81.4188 87.8678 79.7561C88.224 78.0935 89.1032 76.5662 90.3942 75.3675C91.6853 74.1687 93.3301 73.3524 95.1208 73.0216C96.9115 72.6909 98.7676 72.8607 100.454 73.5094C102.141 74.1581 103.583 75.2568 104.597 76.6663C105.612 78.0759 106.153 79.7331 106.153 81.4283C106.15 83.7008 105.177 85.8795 103.446 87.4864C101.716 89.0933 99.3692 89.9972 96.9218 89.9997Z" fill="#023E73"/>
</svg>
