<svg width="33" height="33" viewBox="0 0 33 33" fill="none" xmlns="http://www.w3.org/2000/svg">
<path d="M26.125 4.125H6.875C6.14565 4.125 5.44618 4.41473 4.93046 4.93046C4.41473 5.44618 4.125 6.14565 4.125 6.875V26.125C4.125 26.8543 4.41473 27.5538 4.93046 28.0695C5.44618 28.5853 6.14565 28.875 6.875 28.875H26.125C27.6513 28.875 28.875 27.6513 28.875 26.125V6.875C28.875 6.14565 28.5853 5.44618 28.0695 4.93046C27.5538 4.41473 26.8543 4.125 26.125 4.125ZM21.6013 22.8113L19.6487 24.75L11.3987 16.5L19.6487 8.25L21.6013 10.1887L15.29 16.5L21.6013 22.8113V22.8113Z" fill="#023E73"/>
</svg>
