<svg width="51" height="51" viewBox="0 0 51 51" fill="none" xmlns="http://www.w3.org/2000/svg">
<path d="M23.8976 24.465C24.5052 25.1876 25.4948 25.1876 26.1111 24.465L35.5642 13.3127C38.3073 10.0705 38.151 4.69937 35.0781 1.71109C32.4045 -0.896333 28.4201 -0.427583 25.9722 2.46304L25 3.60562L24.0365 2.47281C21.5885 -0.427583 17.6042 -0.896333 14.9306 1.71109C11.8663 4.69937 11.7014 10.0705 14.4444 13.3127L23.8976 24.465ZM49.0712 32.0431C48.0469 30.9982 46.4497 31.0666 45.3733 32.0431L37.3524 39.2599C36.3715 40.1486 35.1476 40.6271 33.8802 40.6271H23.6111C22.8472 40.6271 22.2222 39.924 22.2222 39.0646C22.2222 38.2052 22.8472 37.5021 23.6111 37.5021H30.408C31.7882 37.5021 33.0729 36.4376 33.2986 34.9044C33.5851 32.9513 32.2483 31.2521 30.5556 31.2521H16.6667C14.3229 31.2521 12.0573 32.1603 10.2344 33.8205L6.19792 37.5021H1.38889C0.625 37.5021 0 38.2052 0 39.0646V48.4396C0 49.299 0.625 50.0021 1.38889 50.0021H32.3611C33.6198 50.0021 34.8437 49.5236 35.8333 48.6349L48.9583 36.8185C50.2778 35.6369 50.3819 33.3712 49.0712 32.0431Z" fill="#023E73"/>
</svg>
