<svg width="40" height="33" viewBox="0 0 40 33" fill="none" xmlns="http://www.w3.org/2000/svg">
<path d="M38 0.0144776C37.8296 -0.00482586 37.6578 -0.00482586 37.4875 0.0144776H2.48745C2.26313 0.0182779 2.0403 0.0552597 1.82495 0.124427L19.8875 19.9016L38 0.0144776Z" fill="#342618"/>
<path d="M39.85 1.92529L21.65 21.8536C21.1816 22.3656 20.548 22.653 19.8875 22.653C19.227 22.653 18.5934 22.3656 18.125 21.8536L0.0875001 2.07647C0.0320493 2.30055 0.00264836 2.53145 0 2.76366V30.251C0 30.98 0.263392 31.6792 0.732233 32.1947C1.20107 32.7102 1.83696 32.9998 2.5 32.9998H37.5C38.163 32.9998 38.7989 32.7102 39.2678 32.1947C39.7366 31.6792 40 30.98 40 30.251V2.76366C39.9901 2.47731 39.9394 2.19444 39.85 1.92529V1.92529ZM4.2125 30.251H2.475V28.2857L11.5625 18.3765L13.325 20.3143L4.2125 30.251ZM37.475 30.251H35.725L26.6125 20.3143L28.375 18.3765L37.4625 28.2857L37.475 30.251Z" fill="#342618"/>
</svg>
