<svg width="40" height="40" viewBox="0 0 40 40" fill="none" xmlns="http://www.w3.org/2000/svg">
<path d="M32.3299 6.00004C32.1936 5.98599 32.0562 5.98599 31.9199 6.00004H3.91989C3.74044 6.0028 3.56217 6.02971 3.38989 6.08004L17.8399 20.47L32.3299 6.00004Z" fill="black"/>
<path d="M33.8099 7.38989L19.2499 21.8899C18.8752 22.2624 18.3683 22.4715 17.8399 22.4715C17.3116 22.4715 16.8047 22.2624 16.4299 21.8899L1.99993 7.49989C1.95557 7.66293 1.93205 7.83094 1.92993 7.99989V27.9999C1.92993 28.5303 2.14065 29.039 2.51572 29.4141C2.89079 29.7892 3.3995 29.9999 3.92993 29.9999H31.9299C32.4604 29.9999 32.9691 29.7892 33.3441 29.4141C33.7192 29.039 33.9299 28.5303 33.9299 27.9999V7.99989C33.922 7.79155 33.8815 7.58573 33.8099 7.38989V7.38989ZM5.29993 27.9999H3.90993V26.5699L11.1799 19.3599L12.5899 20.7699L5.29993 27.9999ZM31.9099 27.9999H30.5099L23.2199 20.7699L24.6299 19.3599L31.8999 26.5699L31.9099 27.9999Z" fill="#342618"/>
</svg>
