<svg class="relative top-1" width="44" height="44" viewBox="0 0 40 40" fill="none" xmlns="http://www.w3.org/2000/svg">
  <path d="M22.0004 21.2C21.0494 21.2009 20.1164 20.9401 19.3037 20.4463C18.491 19.9524 17.8297 19.2445 17.3924 18.4H21.2004C21.6404 18.4 22.0004 18.04 22.0004 17.6C22.0004 17.16 21.6404 16.8 21.2004 16.8H16.8644C16.8244 16.536 16.8004 16.272 16.8004 16C16.8004 15.728 16.8244 15.464 16.8644 15.2H21.2004C21.6404 15.2 22.0004 14.84 22.0004 14.4C22.0004 13.96 21.6404 13.6 21.2004 13.6H17.3924C17.8305 12.7562 18.4919 12.0488 19.3045 11.5551C20.117 11.0613 21.0496 10.8002 22.0004 10.8C23.0004 10.8 23.9364 11.088 24.7364 11.576C25.1364 11.824 25.6564 11.784 25.9924 11.448C26.4564 10.984 26.3524 10.224 25.7924 9.88005C24.6529 9.17556 23.3401 8.80164 22.0004 8.80005C18.8644 8.80005 16.2084 10.808 15.2164 13.6H13.2004C12.7604 13.6 12.4004 13.96 12.4004 14.4C12.4004 14.84 12.7604 15.2 13.2004 15.2H14.8484C14.7836 15.7314 14.7836 16.2687 14.8484 16.8H13.2004C12.7604 16.8 12.4004 17.16 12.4004 17.6C12.4004 18.04 12.7604 18.4 13.2004 18.4H15.2164C16.2084 21.192 18.8644 23.2 22.0004 23.2C23.3924 23.2 24.6884 22.808 25.7924 22.12C26.3444 21.776 26.4484 21.008 25.9844 20.544C25.6484 20.208 25.1284 20.168 24.7284 20.424C23.9364 20.92 23.0084 21.2 22.0004 21.2Z" fill="#342618"/>
</svg>
