<svg class="relative top-1" width="15.273" height="15.84" viewBox="0 0 13.884 14.4" fill="none" xmlns="http://www.w3.org/2000/svg"><path d="M9.6 12.4a5.184 5.184 0 0 1-4.608-2.8H8.8c.44 0 .8-.36.8-.8 0-.44-.36-.8-.8-.8H4.464a5.307 5.307 0 0 1-.064-.8c0-.272.024-.536.064-.8H8.8c.44 0 .8-.36.8-.8 0-.44-.36-.8-.8-.8H4.992A5.192 5.192 0 0 1 9.6 2c1 0 1.936.288 2.736.776.4.248.92.208 1.256-.128a1.001 1.001 0 0 0-.2-1.568A7.227 7.227 0 0 0 9.6 0C6.464 0 3.808 2.008 2.816 4.8H.8c-.44 0-.8.36-.8.8 0 .44.36.8.8.8h1.648a6.609 6.609 0 0 0 0 1.6H.8c-.44 0-.8.36-.8.8 0 .44.36.8.8.8h2.016c.992 2.792 3.648 4.8 6.784 4.8a7.134 7.134 0 0 0 3.792-1.08 1.013 1.013 0 0 0 .192-1.576 1.003 1.003 0 0 0-1.256-.12A5.1 5.1 0 0 1 9.6 12.4z" fill="#342618"/></svg>
