<svg width="39" height="39" viewBox="0 0 39 39" fill="none" xmlns="http://www.w3.org/2000/svg">
<path d="M37.44 0H1.56C0.697125 0 0 0.697125 0 1.56V37.44C0 38.3029 0.697125 39 1.56 39H37.44C38.3029 39 39 38.3029 39 37.44V1.56C39 0.697125 38.3029 0 37.44 0ZM32.9355 11.3831H29.8204C27.378 11.3831 26.9051 12.5434 26.9051 14.2496V18.0082H32.7356L31.9751 23.8924H26.9051V39H20.826V23.8972H15.7414V18.0082H20.826V13.6695C20.826 8.63362 23.9021 5.889 28.3969 5.889C30.5516 5.889 32.3993 6.04988 32.9404 6.123V11.3831H32.9355Z" fill="white"/>
</svg>
