<svg xmlns="http://www.w3.org/2000/svg" width="40" height="40" viewBox="0 0 40 40" fill="none">
<path d="M7.30376 0C3.2578 0 0 3.25779 0 7.30375V32.6962C0 36.7422 3.2578 40 7.30376 40H21.0663V24.3625H16.9313V18.7325H21.0663V13.9225C21.0663 10.1435 23.5094 6.67375 29.1375 6.67375C31.4162 6.67375 33.1013 6.89251 33.1013 6.89251L32.9688 12.15C32.9688 12.15 31.2502 12.1338 29.375 12.1338C27.3454 12.1338 27.02 13.0689 27.02 14.6213V18.7325H33.13L32.8638 24.3625H27.02V40H32.6962C36.7422 40 40 36.7422 40 32.6963V7.30379C40 3.25783 36.7422 3.99999e-05 32.6962 3.99999e-05L7.30376 0Z" fill="#342618"/>
</svg>
