<svg width="35" height="35" viewBox="0 0 35 35" fill="none" xmlns="http://www.w3.org/2000/svg">
<path d="M33.6 0H1.4C0.625625 0 0 0.625625 0 1.4V33.6C0 34.3744 0.625625 35 1.4 35H33.6C34.3744 35 35 34.3744 35 33.6V1.4C35 0.625625 34.3744 0 33.6 0ZM29.5575 10.2156H26.7619C24.57 10.2156 24.1456 11.2569 24.1456 12.7881V16.1612H29.3781L28.6956 21.4419H24.1456V35H18.69V21.4463H14.1269V16.1612H18.69V12.2675C18.69 7.74812 21.4506 5.285 25.4844 5.285C27.4181 5.285 29.0763 5.42938 29.5619 5.495V10.2156H29.5575Z" fill="#342618"/>
</svg>
