<svg width="40" height="40" viewBox="0 0 40 40" fill="none" xmlns="http://www.w3.org/2000/svg">
<g filter="url(#filter0_d_531_94)">
<circle cx="20" cy="16" r="16" fill="white"/>
<g clip-path="url(#clip0_531_94)">
<path d="M21.6 21.4C20.649 21.4009 19.7161 21.1401 18.9033 20.6462C18.0906 20.1524 17.4294 19.4445 16.992 18.6H20.8C21.24 18.6 21.6 18.24 21.6 17.8C21.6 17.36 21.24 17 20.8 17H16.464C16.424 16.736 16.4 16.472 16.4 16.2C16.4 15.928 16.424 15.664 16.464 15.4H20.8C21.24 15.4 21.6 15.04 21.6 14.6C21.6 14.16 21.24 13.8 20.8 13.8H16.992C17.4301 12.9561 18.0915 12.2488 18.9041 11.755C19.7167 11.2613 20.6492 11.0001 21.6 11C22.6 11 23.536 11.288 24.336 11.776C24.736 12.024 25.256 11.984 25.592 11.648C26.056 11.184 25.952 10.424 25.392 10.08C24.2525 9.37551 22.9397 9.00159 21.6 9C18.464 9 15.808 11.008 14.816 13.8H12.8C12.36 13.8 12 14.16 12 14.6C12 15.04 12.36 15.4 12.8 15.4H14.448C14.3832 15.9314 14.3832 16.4686 14.448 17H12.8C12.36 17 12 17.36 12 17.8C12 18.24 12.36 18.6 12.8 18.6H14.816C15.808 21.392 18.464 23.4 21.6 23.4C22.992 23.4 24.288 23.008 25.392 22.32C25.944 21.976 26.048 21.208 25.584 20.744C25.248 20.408 24.728 20.368 24.328 20.624C23.536 21.12 22.608 21.4 21.6 21.4Z" fill="#023E73"/>
<line x1="12.7071" y1="8" x2="28" y2="23.2929" stroke="white" stroke-linecap="round"/>
<line x1="12.0607" y1="9" x2="27" y2="23.9393" stroke="#023E73" stroke-width="1.5" stroke-linecap="round"/>
</g>
</g>
<defs>
<filter id="filter0_d_531_94" x="0" y="0" width="40" height="40" filterUnits="userSpaceOnUse" color-interpolation-filters="sRGB">
<feFlood flood-opacity="0" result="BackgroundImageFix"/>
<feColorMatrix in="SourceAlpha" type="matrix" values="0 0 0 0 0 0 0 0 0 0 0 0 0 0 0 0 0 0 127 0" result="hardAlpha"/>
<feOffset dy="4"/>
<feGaussianBlur stdDeviation="2"/>
<feComposite in2="hardAlpha" operator="out"/>
<feColorMatrix type="matrix" values="0 0 0 0 0 0 0 0 0 0 0 0 0 0 0 0 0 0 0.25 0"/>
<feBlend mode="normal" in2="BackgroundImageFix" result="effect1_dropShadow_531_94"/>
<feBlend mode="normal" in="SourceGraphic" in2="effect1_dropShadow_531_94" result="shape"/>
</filter>
<clipPath id="clip0_531_94">
<rect width="19.2" height="19.2" fill="white" transform="translate(8.7998 6.3999)"/>
</clipPath>
</defs>
</svg>
