<svg width="120" height="120" viewBox="0 0 120 120" fill="none" xmlns="http://www.w3.org/2000/svg">
<path d="M2.45202 119.273C4.76187 121.733 14.276 117.443 21.7855 114.002C27.4126 111.432 49.931 102.352 61.1241 97.6421C64.1463 96.3721 68.5421 94.7121 71.7067 90.622C74.5151 86.9819 81.9636 71.5215 66.9649 55.8612C51.7423 39.9609 36.0618 44.351 30.2007 48.431C26.7512 50.8311 23.9427 56.2412 22.681 58.9913C17.349 70.6115 9.74788 91.902 6.65451 100.272C4.38537 106.442 0.162526 116.833 2.45202 119.273Z" fill="#FFC107"/>
<path d="M21.175 62.4915C21.3175 64.2315 21.6736 67.0616 22.8947 72.5117C23.7291 76.2518 25.0926 80.1718 26.2017 82.7619C29.5291 90.5521 34.1997 93.6921 38.9313 96.2122C46.97 100.492 52.4342 101.292 52.4342 101.292L45.8812 103.922C45.8812 103.922 41.9127 103.112 36.4994 100.492C31.3404 97.9922 25.9677 93.7621 22.0399 85.482C20.3406 81.8919 19.3536 78.4118 18.7838 75.6517C18.0817 72.2317 17.9697 70.2916 17.9697 70.2916L21.175 62.4915Z" fill="#FF8F00"/>
<path d="M13.1263 82.7719C13.1263 82.7719 13.9404 89.262 19.3945 97.4522C25.7847 107.032 34.7086 108.602 34.7086 108.602L28.7763 111.002C28.7763 111.002 22.152 109.012 15.8534 100.562C11.9256 95.2921 10.8267 88.992 10.8267 88.992L13.1263 82.7719Z" fill="#FF8F00"/>
<path d="M7.479 98.1521C7.479 98.1521 8.96462 103.752 12.2208 107.932C16.0977 112.922 21.0328 114.372 21.0328 114.372L16.4843 116.352C16.4843 116.352 13.0348 115.642 9.25971 110.942C6.39021 107.372 5.57617 103.272 5.57617 103.272L7.479 98.1521Z" fill="#FF8F00"/>
<path opacity="0.44" d="M5.00636 112.372C4.80285 111.922 4.80285 111.412 5.01654 110.972L30.9336 58.1511L35.1972 73.9015L7.92674 112.612C7.1941 113.692 5.54567 113.552 5.00636 112.372Z" fill="#FFFDE7"/>
<path d="M37.2526 79.1918C49.3615 93.1121 63.1493 91.372 67.7385 87.852C72.3378 84.3219 75.9705 72.1916 63.9125 58.5013C51.2745 44.161 36.9677 48.2511 33.6606 51.3512C30.3536 54.4512 26.1409 66.4215 37.2526 79.1918Z" fill="url(#paint0_linear_428_149)"/>
<path d="M78.8397 84.9219C74.4235 81.2818 72.073 81.9318 68.9186 83.2219C64.8484 84.8819 58.448 86.1119 49.7581 83.2219L52.3732 77.0317C57.5322 78.7418 61.2666 77.9117 64.4922 76.0417C68.6438 73.6417 74.3218 70.3516 83.1541 77.6417C86.8377 80.6818 90.6128 82.7018 93.3806 81.7818C95.3953 81.1218 96.4637 78.1718 97.003 75.8217C97.0539 75.6117 97.1353 75.0117 97.1964 74.4817C97.6848 70.8116 98.4988 62.8914 104.502 58.8413C110.923 54.5112 117.67 54.5112 117.67 54.5112L118.891 66.4315C115.787 65.9815 113.63 66.6015 111.808 67.5915C104.95 71.3416 110.923 85.7419 100.249 90.582C89.9819 95.2721 81.5871 87.1819 78.8397 84.9219Z" fill="#03A9F4"/>
<path d="M41.0685 69.7215L36.6523 65.8315C44.7622 56.9313 42.6254 50.3911 41.0685 45.631C40.7531 44.671 40.458 43.761 40.2646 42.8909C39.5727 39.8109 39.4302 37.1308 39.6439 34.7908C36.5302 30.9807 35.1565 26.9906 35.0649 26.7206C33.1723 21.0905 34.5969 15.6003 37.8632 10.4502C44.4671 0 56.4234 0 56.4234 0L60.4122 10.4902C57.3799 10.3702 47.4384 10.5202 44.3857 15.2503C40.5292 21.2105 43.0629 24.8905 43.2461 25.3106C43.9889 24.3605 44.7419 23.6005 45.4134 23.0105C50.2875 18.7604 54.5205 18.1504 57.2171 18.3904C60.2494 18.6604 62.9968 20.1604 64.9606 22.6205C67.1077 25.3206 67.993 28.8306 67.3112 32.0207C66.6498 35.1308 64.5434 37.7608 61.3789 39.4309C55.8535 42.3509 51.2542 41.9509 48.171 40.9409C48.1914 41.0109 48.2015 41.0909 48.2219 41.1609C48.3338 41.6609 48.5577 42.3609 48.8223 43.171C50.6233 48.6511 53.9711 57.3513 41.0685 69.7215ZM48.5475 32.1907C49.1377 32.6107 49.7584 32.9607 50.3995 33.2107C52.5363 34.0508 54.8665 33.7707 57.5122 32.3707C59.069 31.5507 59.2522 30.6707 59.3132 30.3807C59.4964 29.5107 59.1911 28.4006 58.5297 27.5706C57.9497 26.8406 57.2781 26.4606 56.4743 26.3806C54.9479 26.2506 52.8823 27.2006 50.8167 29.0106C49.8296 29.8807 49.0766 30.9507 48.5475 32.1907Z" fill="#F44336"/>
<path d="M58.7433 71.3516L52.4243 71.1816C52.4243 71.1816 55.4261 54.5212 65.1437 51.7211C66.9651 51.2011 68.9595 50.6711 70.9641 50.3811C72.1547 50.2011 74.0371 49.9311 74.9631 49.5911C75.1768 48.0211 74.5052 46.021 73.7522 43.751C73.162 41.9909 72.5515 40.1809 72.2259 38.2008C71.595 34.3408 72.6431 30.9307 75.1768 28.5806C78.2702 25.7306 83.2663 24.8206 88.9036 26.0806C92.1191 26.8006 94.49 28.3506 96.5759 29.7107C99.5574 31.6607 101.297 32.6507 104.94 30.2407C109.346 27.3206 103.587 15.8904 100.524 9.29021L111.951 4.61011C113.488 7.91018 120.906 24.8906 116.011 34.5808C114.363 37.8408 111.524 40.0009 107.8 40.8109C99.6998 42.5909 94.958 39.4909 91.4983 37.2308C89.8601 36.1608 88.4253 35.3208 86.8685 34.8808C76.0519 31.8507 91.1524 47.491 84.0804 54.5212C79.8372 58.7313 69.4683 59.8413 68.7967 60.0013C62.1216 61.5814 58.7433 71.3516 58.7433 71.3516Z" fill="#F48FB1"/>
<path d="M39.6337 34.7909C39.4404 36.9909 39.3488 38.301 39.9288 41.161C42.7271 43.1811 48.8222 43.1811 48.8222 43.1811C48.5577 42.3711 48.3236 41.671 48.2219 41.171C48.2015 41.101 48.1914 41.021 48.171 40.951C41.9741 37.911 39.6337 34.7909 39.6337 34.7909Z" fill="#C92B27"/>
<path d="M26.9551 44.6408L16.4336 39.5707L21.674 32.1305L29.9263 37.5006L26.9551 44.6408Z" fill="#FFC107"/>
<path d="M11.4475 30.6006C6.07479 29.8905 0.600356 25.4104 0 24.9004L5.2811 18.8103C6.87866 20.1403 10.2671 22.3704 12.5363 22.6704L11.4475 30.6006Z" fill="#FB8C00"/>
<path d="M20.9312 17.2705L13.1978 14.7804C14.083 12.1204 14.3171 9.25029 13.8592 6.48023L21.8978 5.21021C22.5592 9.23029 22.2234 13.4004 20.9312 17.2705Z" fill="#03A9F4"/>
<path d="M69.2271 11.3253L77.1792 9.61523L79.4758 19.9315L71.5237 21.6415L69.2271 11.3253Z" fill="#FB8C00"/>
<path d="M88.9545 13.7704L83.3579 7.96026C86.2885 5.2302 86.96 1.66012 86.96 1.62012L94.9987 2.91015C94.897 3.54016 93.8692 9.20028 88.9545 13.7704Z" fill="#FFC107"/>
<path d="M92.0642 44.5817L99.1739 42.3987L101.603 50.0349L94.4931 52.2179L92.0642 44.5817Z" fill="#FB8C00"/>
<path d="M94.1336 109.032L86.0441 108.092C86.39 105.262 84.243 101.792 83.6528 101.022L90.1652 96.222C90.6536 96.8521 94.8968 102.622 94.1336 109.032Z" fill="#F44336"/>
<path d="M117.355 98.8922C114.312 98.4422 111.198 98.2622 108.125 98.3722L107.851 90.3721C111.422 90.2521 115.035 90.4521 118.565 90.9821L117.355 98.8922Z" fill="#FB8C00"/>
<path d="M106.409 109.904L112.128 104.211L120 111.848L114.28 117.542L106.409 109.904Z" fill="#F48FB1"/>
<path d="M89.6046 59.3323L95.4861 65.9414L88.7611 71.7215L82.8796 65.1124L89.6046 59.3323Z" fill="#F44336"/>
<defs>
<linearGradient id="paint0_linear_428_149" x1="70.5612" y1="57.8403" x2="40.5526" y2="76.1609" gradientUnits="userSpaceOnUse">
<stop offset="0.024" stop-color="#8F4700"/>
<stop offset="1" stop-color="#703E2D"/>
</linearGradient>
</defs>
</svg>
