<svg width="60" height="50" viewBox="0 0 60 50" fill="none" xmlns="http://www.w3.org/2000/svg">
<path d="M19.6667 6.66764C19.6859 7.55589 19.5392 8.4393 19.2351 9.26593C18.9311 10.0926 18.4759 10.8458 17.8962 11.4813C17.3166 12.1167 16.6242 12.6217 15.8598 12.9664C15.0954 13.3112 14.2744 13.4888 13.445 13.4888C12.6157 13.4888 11.7946 13.3112 11.0302 12.9664C10.2658 12.6217 9.57347 12.1167 8.99383 11.4813C8.4142 10.8458 7.95898 10.0926 7.65493 9.26593C7.35089 8.4393 7.20415 7.55589 7.22335 6.66764C7.25007 4.9186 7.91741 3.25089 9.08145 2.02413C10.2455 0.797372 11.813 0.109863 13.4459 0.109863C15.0788 0.109863 16.6463 0.797372 17.8103 2.02413C18.9743 3.25089 19.6417 4.9186 19.6684 6.66764H19.6667Z" fill="#342618"/>
<path fill-rule="evenodd" clip-rule="evenodd" d="M6.16004 28.5591C5.69149 29.3622 4.94432 29.933 4.0829 30.146C3.22148 30.3589 2.31637 30.1966 1.56669 29.6946C0.81701 29.1927 0.284164 28.3923 0.0853748 27.4694C-0.113415 26.5466 0.0381357 25.577 0.506687 24.7739L0.513354 24.7632L0.52502 24.7436L0.565021 24.6757C0.776436 24.3187 0.993692 23.9657 1.21669 23.6169C1.64169 22.9474 2.24003 22.0404 2.92003 21.1173C3.58503 20.2174 4.4017 19.2015 5.26504 18.3766C5.69671 17.9642 6.21671 17.525 6.80505 17.1715C7.35838 16.8394 8.22338 16.4287 9.28172 16.4287H17.6084C18.6668 16.4287 19.5318 16.8394 20.0868 17.1715C20.6734 17.525 21.1951 17.9642 21.6251 18.3766C22.4884 19.2015 23.3068 20.2174 23.9701 21.1191C24.8094 22.2622 25.5954 23.4492 26.3251 24.6757L26.3668 24.7436L26.3785 24.7614L26.3835 24.7721C26.3835 24.7721 26.3251 24.6757 26.3835 24.7721C26.8392 25.5747 26.9813 26.5373 26.7791 27.4513C26.5769 28.3654 26.0467 29.1572 25.3033 29.6554C24.5598 30.1535 23.6631 30.3178 22.8074 30.1126C21.9517 29.9074 21.206 29.3492 20.7318 28.5591L20.7268 28.5519L20.7001 28.5073C20.6168 28.3666 20.5324 28.2268 20.4468 28.0877V32.5228L21.6518 46.0833C21.7275 47.0076 21.4645 47.9272 20.9183 48.6474C20.3721 49.3676 19.5856 49.8317 18.7256 49.9415C17.8655 50.0512 16.9993 49.798 16.3104 49.2355C15.6216 48.673 15.1642 47.8453 15.0351 46.9278L13.3334 34.1797L11.6334 46.9278C11.5117 47.8524 11.0567 48.6891 10.3661 49.2587C9.67541 49.8283 8.80395 50.0854 7.93845 49.975C7.07295 49.8645 6.28226 49.3953 5.73581 48.6679C5.18936 47.9404 4.93062 47.0126 5.01504 46.0833L6.41504 30.3534H6.44504V28.0859C6.35903 28.2257 6.27403 28.3661 6.19004 28.5073L6.16504 28.5519L6.16004 28.5591Z" fill="#342618"/>
<path d="M52.9997 6.66598C52.9997 8.43391 52.3441 10.1294 51.1772 11.3795C50.0102 12.6297 48.4275 13.332 46.7772 13.332C45.1269 13.332 43.5442 12.6297 42.3772 11.3795C41.2103 10.1294 40.5547 8.43391 40.5547 6.66598C40.5547 4.89805 41.2103 3.20253 42.3772 1.95242C43.5442 0.702306 45.1269 0 46.7772 0C48.4275 0 50.0102 0.702306 51.1772 1.95242C52.3441 3.20253 52.9997 4.89805 52.9997 6.66598V6.66598Z" fill="#342618"/>
<path fill-rule="evenodd" clip-rule="evenodd" d="M39.5018 28.1841C39.0302 28.9739 38.2876 29.5333 37.4343 29.7416C36.581 29.9499 35.6854 29.7904 34.941 29.2974C34.1966 28.8044 33.663 28.0176 33.4554 27.1068C33.2479 26.196 33.3831 25.2343 33.8317 24.4293L33.8367 24.4186L33.8501 24.399L33.8884 24.3311L34.0301 24.0919C34.7136 22.9521 35.4438 21.8453 36.2184 20.7745C36.8751 19.8746 37.6851 18.8569 38.5384 18.0302C38.9668 17.6178 39.4834 17.175 40.0684 16.8215C40.6184 16.4858 41.4851 16.0698 42.5484 16.0698H50.7851C51.8485 16.0698 52.7151 16.4858 53.2668 16.8197C53.8501 17.1768 54.3668 17.6178 54.7951 18.0302C55.6502 18.8569 56.4585 19.8746 57.1152 20.7745C57.9458 21.9178 58.7234 23.1042 59.4452 24.3293L59.4852 24.399L59.5018 24.4293C59.9669 25.2348 60.1141 26.2052 59.9113 27.127C59.7084 28.0488 59.1721 28.8465 58.4202 29.3447C57.6683 29.8428 56.7625 30.0006 55.902 29.7833C55.0415 29.566 54.2968 28.9914 53.8318 28.1859L53.8268 28.177L53.8018 28.1323C53.5511 27.7092 53.2927 27.2913 53.0268 26.8789C53.8068 31.039 55.3435 36.7453 56.1468 39.6306C56.2138 39.8649 56.2347 40.1116 56.2082 40.355C56.1816 40.5983 56.1083 40.8332 55.9927 41.0446C55.877 41.2561 55.7217 41.4395 55.5366 41.5834C55.3514 41.7272 55.1404 41.8283 54.9168 41.8803C49.0218 43.1962 44.8951 43.1623 38.4934 41.8553C38.2637 41.8069 38.0461 41.7071 37.8548 41.5624C37.6635 41.4178 37.5029 41.2315 37.3833 41.0159C37.2638 40.8002 37.1881 40.5599 37.1611 40.3108C37.1341 40.0616 37.1565 39.8092 37.2267 39.5699C38.0684 36.6704 39.6334 31.0248 40.3751 26.7718C40.0858 27.2195 39.8047 27.6731 39.5318 28.1323L39.5068 28.177L39.5018 28.1841V28.1841Z" fill="#342618"/>
<path fill-rule="evenodd" clip-rule="evenodd" d="M39.3335 44.9083V47.3151C39.3341 47.9641 39.5547 48.5907 39.9542 49.0786C40.3537 49.5664 40.905 49.8823 41.5056 49.9674C42.1062 50.0525 42.7152 49.9011 43.2194 49.5413C43.7236 49.1816 44.0887 48.6379 44.2468 48.0114L44.9052 45.3975C43.0419 45.3266 41.1827 45.1633 39.3335 44.9083ZM48.7585 45.3904L49.4202 48.0132C49.5784 48.6398 49.9436 49.1836 50.448 49.5434C50.9524 49.9031 51.5616 50.0544 52.1623 49.9691C52.7629 49.8837 53.3143 49.5675 53.7137 49.0794C54.1131 48.5912 54.3333 47.9642 54.3336 47.3151V44.8833C52.4831 45.1403 50.623 45.3089 48.7585 45.3886V45.3904Z" fill="#342618"/>
</svg>
