<svg width="16" height="22" viewBox="0 0 16 22" fill="none" xmlns="http://www.w3.org/2000/svg">
<path d="M7.83333 5.0415C8.55163 5.0415 9.2405 5.32685 9.74841 5.83476C10.2563 6.34267 10.5417 7.03154 10.5417 7.74984C10.5417 8.1055 10.4716 8.45768 10.3355 8.78627C10.1994 9.11486 9.99991 9.41343 9.74841 9.66492C9.49692 9.91641 9.19836 10.1159 8.86977 10.252C8.54118 10.3881 8.189 10.4582 7.83333 10.4582C7.11504 10.4582 6.42616 10.1728 5.91825 9.66492C5.41034 9.15701 5.125 8.46813 5.125 7.74984C5.125 7.03154 5.41034 6.34267 5.91825 5.83476C6.42616 5.32685 7.11504 5.0415 7.83333 5.0415ZM7.83333 0.166504C9.84456 0.166504 11.7734 0.96546 13.1956 2.38761C14.6177 3.80976 15.4167 5.73861 15.4167 7.74984C15.4167 13.4373 7.83333 21.8332 7.83333 21.8332C7.83333 21.8332 0.25 13.4373 0.25 7.74984C0.25 5.73861 1.04896 3.80976 2.47111 2.38761C3.89326 0.96546 5.82211 0.166504 7.83333 0.166504ZM7.83333 2.33317C6.39674 2.33317 5.01899 2.90385 4.00317 3.91968C2.98735 4.9355 2.41667 6.31325 2.41667 7.74984C2.41667 8.83317 2.41667 10.9998 7.83333 18.269C13.25 10.9998 13.25 8.83317 13.25 7.74984C13.25 6.31325 12.6793 4.9355 11.6635 3.91968C10.6477 2.90385 9.26992 2.33317 7.83333 2.33317Z" fill="#342618"/>
<path d="M7.83333 5.0415C8.55163 5.0415 9.2405 5.32685 9.74841 5.83476C10.2563 6.34267 10.5417 7.03154 10.5417 7.74984C10.5417 8.1055 10.4716 8.45768 10.3355 8.78627C10.1994 9.11486 9.99991 9.41343 9.74841 9.66492C9.49692 9.91641 9.19836 10.1159 8.86977 10.252C8.54118 10.3881 8.189 10.4582 7.83333 10.4582C7.11504 10.4582 6.42616 10.1728 5.91825 9.66492C5.41034 9.15701 5.125 8.46813 5.125 7.74984C5.125 7.03154 5.41034 6.34267 5.91825 5.83476C6.42616 5.32685 7.11504 5.0415 7.83333 5.0415ZM7.83333 0.166504C9.84456 0.166504 11.7734 0.96546 13.1956 2.38761C14.6177 3.80976 15.4167 5.73861 15.4167 7.74984C15.4167 13.4373 7.83333 21.8332 7.83333 21.8332C7.83333 21.8332 0.25 13.4373 0.25 7.74984C0.25 5.73861 1.04896 3.80976 2.47111 2.38761C3.89326 0.96546 5.82211 0.166504 7.83333 0.166504ZM7.83333 2.33317C6.39674 2.33317 5.01899 2.90385 4.00317 3.91968C2.98735 4.9355 2.41667 6.31325 2.41667 7.74984C2.41667 8.83317 2.41667 10.9998 7.83333 18.269C13.25 10.9998 13.25 8.83317 13.25 7.74984C13.25 6.31325 12.6793 4.9355 11.6635 3.91968C10.6477 2.90385 9.26992 2.33317 7.83333 2.33317Z" fill="#342618"/>
</svg>
