<?xml version="1.0" encoding="UTF-8" standalone="no"?>
<svg
   xmlns:dc="http://purl.org/dc/elements/1.1/"
   xmlns:cc="http://creativecommons.org/ns#"
   xmlns:rdf="http://www.w3.org/1999/02/22-rdf-syntax-ns#"
   xmlns:svg="http://www.w3.org/2000/svg"
   xmlns="http://www.w3.org/2000/svg"
   viewBox="0 0 275.90668 90.706665"
   height="90.706665"
   width="275.90668"
   xml:space="preserve"
   id="svg2"
   version="1.1"><metadata
     id="metadata8"><rdf:RDF><cc:Work
         rdf:about=""><dc:format>image/svg+xml</dc:format><dc:type
           rdf:resource="http://purl.org/dc/dcmitype/StillImage" /></cc:Work></rdf:RDF></metadata><defs
     id="defs6" /><g
     transform="matrix(1.3333333,0,0,-1.3333333,0,90.706667)"
     id="g10"><g
       transform="scale(0.1)"
       id="g12"><path
         id="path14"
         style="fill:#69c52f;fill-opacity:1;fill-rule:evenodd;stroke:none"
         d="M 0,680.316 H 2069.33 V 0 H 0 v 680.316" /><path
         id="path16"
         style="fill:#ffffff;fill-opacity:1;fill-rule:nonzero;stroke:none"
         d="m 1150,505.422 h -55.64 c 1.31,-21.734 20.58,-37.871 40.66,-37.871 H 1150 v -14.488 h -12.18 c -34.58,0 -59.6,25.023 -59.6,57.625 0,32.597 25.02,57.621 59.6,57.621 H 1150 v -14.485 h -10.37 c -30.13,0 -44.61,-22.394 -45.27,-33.918 H 1150 v -14.484" /><path
         id="path18"
         style="fill:#ffffff;fill-opacity:1;fill-rule:nonzero;stroke:none"
         d="m 1161.33,466.891 h 40.5 c 6.75,0 9.38,2.636 9.38,7.574 0,14.488 -49.88,8.89 -49.88,36.223 0,13.996 9.72,21.402 27,21.402 h 34.08 v -13.828 h -36.55 c -7.08,0 -9.05,-1.977 -9.39,-6.918 0,-13.664 49.9,-7.903 49.9,-36.223 0,-14.98 -10.54,-22.058 -24.54,-22.058 h -40.5 v 13.828" /><path
         id="path20"
         style="fill:#ffffff;fill-opacity:1;fill-rule:nonzero;stroke:none"
         d="m 1290.37,518.262 h -11.19 c -13.67,0 -27.17,-8.891 -27.17,-25.684 0,-16.797 13.5,-25.687 27.17,-25.687 h 11.19 v -13.828 h -13.83 c -18.43,0 -39.67,14.16 -39.67,39.515 0,25.352 21.24,39.512 39.67,39.512 h 13.83 v -13.828" /><path
         id="path22"
         style="fill:#ffffff;fill-opacity:1;fill-rule:nonzero;stroke:none"
         d="m 1368.72,532.09 v -46.098 c 0,-20.75 -14.49,-34.574 -33.75,-34.574 -19.27,0 -33.75,13.824 -33.75,34.574 v 46.098 h 14.48 v -46.098 c 0,-12.183 8.9,-20.75 19.27,-20.75 10.37,0 19.26,8.567 19.26,20.75 v 46.098 h 14.49" /><path
         id="path24"
         style="fill:#ffffff;fill-opacity:1;fill-rule:nonzero;stroke:none"
         d="m 1406.89,479.078 -5.93,11.524 39.01,21.734 c -4.93,4.934 -9.05,7.57 -17.94,7.57 -14.98,0 -25.85,-11.195 -25.85,-27.328 0,-16.137 10.87,-27.336 25.85,-27.336 17.12,0 23.55,10.211 26.51,24.699 l 14.65,-1.812 c -1.65,-20.906 -18.44,-36.711 -41.16,-36.711 -21.9,0 -40.99,16.789 -40.99,41.16 0,24.363 19.09,41.156 40.99,41.156 18.44,0 30.78,-9.711 38.19,-25.023 l -53.33,-29.633" /><path
         id="path26"
         style="fill:#ffffff;fill-opacity:1;fill-rule:nonzero;stroke:none"
         d="m 1478.63,453.063 v 115.246 h 14.49 V 453.063 h -14.49" /><path
         id="path28"
         style="fill:#ffffff;fill-opacity:1;fill-rule:nonzero;stroke:none"
         d="m 1574.6,453.063 v 44.453 c 0,14.82 -12.52,22.39 -25.68,22.39 -15.98,0 -26.02,-12.679 -26.02,-27.66 0,-14.652 10.7,-27.004 25.85,-27.004 8.23,0 14.98,4.61 19.92,10.871 v -17.125 c -5.76,-4.281 -11.36,-7.57 -21.4,-7.57 -22.72,0 -38.86,18.766 -38.86,41.98 0,22.559 15.48,40.336 40.83,40.336 24.37,0 39.84,-14.816 39.84,-37.539 v -43.132 h -14.48" /><path
         id="path30"
         style="fill:#ffffff;fill-opacity:1;fill-rule:nonzero;stroke:none"
         d="m 1726.34,568.309 v -73.426 c 0,-26.016 -16.62,-43.465 -39.85,-43.465 -25.68,0 -40.83,19.754 -40.83,43.133 0,22.058 17.79,39.183 38.04,39.183 7.9,0 15.48,-1.644 22.39,-5.593 v -15.149 c -5.27,3.617 -13.34,6.914 -19.92,6.914 -15.64,0 -26.01,-10.867 -26.01,-27.168 0,-16.133 10.87,-27.496 26.33,-27.496 13.84,0 25.37,10.539 25.37,32.274 v 70.793 h 14.48" /><path
         id="path32"
         style="fill:#ffffff;fill-opacity:1;fill-rule:nonzero;stroke:none"
         d="m 1763.68,479.078 -5.93,11.524 39.02,21.734 c -4.93,4.934 -9.05,7.57 -17.94,7.57 -14.98,0 -25.85,-11.195 -25.85,-27.328 0,-16.137 10.87,-27.336 25.85,-27.336 17.12,0 23.54,10.211 26.5,24.699 l 14.66,-1.812 c -1.65,-20.906 -18.45,-36.711 -41.16,-36.711 -21.91,0 -41,16.789 -41,41.16 0,24.363 19.09,41.156 41,41.156 18.44,0 30.78,-9.711 38.19,-25.023 l -53.34,-29.633" /><path
         id="path34"
         style="fill:#ffffff;fill-opacity:1;fill-rule:nonzero;stroke:none"
         d="m 1120.21,294.52 c 14.98,0 25.85,11.203 25.85,27.335 0,16.133 -10.87,27.329 -25.85,27.329 -14.99,0 -25.85,-11.196 -25.85,-27.329 0,-16.132 10.86,-27.335 25.85,-27.335 z m 0,68.492 c 21.89,0 40.99,-16.789 40.99,-41.157 0,-24.375 -19.1,-41.164 -40.99,-41.164 -21.91,0 -41,16.789 -41,41.164 0,24.368 19.09,41.157 41,41.157" /><path
         id="path36"
         style="fill:#ffffff;fill-opacity:1;fill-rule:nonzero;stroke:none"
         d="m 1173.18,361.367 h 13.83 v -9.058 h 0.33 c 4.94,7.742 11.69,10.703 21.4,10.703 h 3.3 v -13.828 h -2.15 c -13.99,0 -22.22,-8.563 -22.22,-29.965 v -36.875 h -14.49 v 79.023" /><path
         id="path38"
         style="fill:#ffffff;fill-opacity:1;fill-rule:nonzero;stroke:none"
         d="m 1276.4,285.957 c -5.44,-2.961 -13.18,-5.266 -18.61,-5.266 -23.05,0 -40.83,17.122 -40.83,40.168 0,23.715 16.14,42.153 40.83,42.153 24.04,0 38.85,-19.426 38.85,-39.184 v -35.234 c 0,-29.629 -18.1,-43.789 -41.32,-43.789 -8.89,0 -17.61,1.804 -26.01,4.609 l 3.45,13.164 c 7.25,-1.973 14.5,-3.945 21.9,-3.945 13.01,0 27.5,5.762 27.5,25.019 v 36.883 c 0,17.781 -11.52,28.649 -25.03,28.649 -17.29,0 -25.68,-13.664 -25.68,-29.145 0,-15.469 11.52,-25.519 26.5,-25.519 6.59,0 12.85,3.136 18.45,6.418 v -14.981" /><path
         id="path40"
         style="fill:#ffffff;fill-opacity:1;fill-rule:nonzero;stroke:none"
         d="m 1373.66,282.344 v 44.453 c 0,14.812 -12.52,22.387 -25.68,22.387 -15.98,0 -26.02,-12.68 -26.02,-27.661 0,-14.648 10.71,-27.003 25.85,-27.003 8.24,0 14.98,4.613 19.92,10.871 v -17.129 c -5.76,-4.278 -11.35,-7.571 -21.4,-7.571 -22.72,0 -38.86,18.774 -38.86,41.985 0,22.558 15.48,40.336 40.83,40.336 24.38,0 39.84,-14.821 39.84,-37.543 v -43.125 h -14.48" /><path
         id="path42"
         style="fill:#ffffff;fill-opacity:1;fill-rule:nonzero;stroke:none"
         d="m 1402.11,282.344 v 46.094 c 0,20.746 14.48,34.574 33.75,34.574 19.26,0 33.75,-13.828 33.75,-34.574 v -46.094 h -14.49 v 46.094 c 0,12.183 -8.89,20.746 -19.26,20.746 -10.37,0 -19.27,-8.563 -19.27,-20.746 v -46.094 h -14.48" /><path
         id="path44"
         style="fill:#ffffff;fill-opacity:1;fill-rule:nonzero;stroke:none"
         d="m 1492.63,282.344 v 79.023 h 14.48 v -79.023 z m 7.23,105.367 c 5.61,0 8.73,-4.281 8.73,-8.727 0,-4.441 -3.12,-8.726 -8.73,-8.726 -5.59,0 -8.72,4.285 -8.72,8.726 0,4.446 3.13,8.727 8.72,8.727" /><path
         id="path46"
         style="fill:#ffffff;fill-opacity:1;fill-rule:nonzero;stroke:none"
         d="m 1582.67,282.344 h -45.12 c -7.24,0 -11.86,3.613 -11.86,10.371 0,5.098 2.81,8.887 7.91,15.312 l 32.27,39.512 h -37.37 v 13.828 h 38.36 c 9.88,0 15.14,-4.117 15.14,-10.539 0,-3.457 -0.65,-6.418 -2.47,-8.558 l -37.69,-46.098 h 40.83 v -13.828" /><path
         id="path48"
         style="fill:#ffffff;fill-opacity:1;fill-rule:nonzero;stroke:none"
         d="m 1657.23,282.344 v 44.453 c 0,14.812 -12.51,22.387 -25.69,22.387 -15.97,0 -26.01,-12.68 -26.01,-27.661 0,-14.648 10.7,-27.003 25.85,-27.003 8.23,0 14.98,4.613 19.92,10.871 v -17.129 c -5.76,-4.278 -11.36,-7.571 -21.41,-7.571 -22.71,0 -38.85,18.774 -38.85,41.985 0,22.558 15.47,40.336 40.83,40.336 24.37,0 39.84,-14.821 39.84,-37.543 v -43.125 h -14.48" /><path
         id="path50"
         style="fill:#ffffff;fill-opacity:1;fill-rule:nonzero;stroke:none"
         d="m 1738.85,347.539 h -11.19 c -13.68,0 -27.17,-8.891 -27.17,-25.684 0,-16.796 13.49,-25.683 27.17,-25.683 h 11.19 v -13.828 h -13.83 c -18.44,0 -39.68,14.16 -39.68,39.511 0,25.352 21.24,39.512 39.68,39.512 h 13.83 v -13.828" /><path
         id="path52"
         style="fill:#ffffff;fill-opacity:1;fill-rule:nonzero;stroke:none"
         d="m 1757.92,282.344 v 79.023 h 14.48 v -79.023 z m 7.24,105.367 c 5.6,0 8.73,-4.281 8.73,-8.727 0,-4.441 -3.13,-8.726 -8.73,-8.726 -5.6,0 -8.72,4.285 -8.72,8.726 0,4.446 3.12,8.727 8.72,8.727" /><path
         id="path54"
         style="fill:#ffffff;fill-opacity:1;fill-rule:nonzero;stroke:none"
         d="m 1837.75,394.297 h 17.78 l -21.4,-23.379 h -11.2 z m -3.95,-99.777 c 14.98,0 25.85,11.203 25.85,27.335 0,16.133 -10.87,27.329 -25.85,27.329 -14.98,0 -25.85,-11.196 -25.85,-27.329 0,-16.132 10.87,-27.335 25.85,-27.335 z m 0,68.492 c 21.89,0 41,-16.789 41,-41.157 0,-24.375 -19.11,-41.164 -41,-41.164 -21.9,0 -41,16.789 -41,41.164 0,24.368 19.1,41.157 41,41.157" /><path
         id="path56"
         style="fill:#ffffff;fill-opacity:1;fill-rule:nonzero;stroke:none"
         d="m 1886.94,282.344 v 46.094 c 0,20.746 14.49,34.574 33.75,34.574 19.26,0 33.75,-13.828 33.75,-34.574 v -46.094 h -14.49 v 46.094 c 0,12.183 -8.89,20.746 -19.26,20.746 -10.37,0 -19.26,-8.563 -19.26,-20.746 v -46.094 h -14.49" /><path
         id="path58"
         style="fill:#ffffff;fill-opacity:1;fill-rule:nonzero;stroke:none"
         d="m 1090.08,111.621 v 79.024 h 14.49 v -79.024 z m 7.24,105.371 c 5.59,0 8.73,-4.277 8.73,-8.73 0,-4.446 -3.14,-8.719 -8.73,-8.719 -5.6,0 -8.73,4.273 -8.73,8.719 0,4.453 3.13,8.73 8.73,8.73" /><path
         id="path60"
         style="fill:#ffffff;fill-opacity:1;fill-rule:nonzero;stroke:none"
         d="m 1127.6,111.621 v 46.094 c 0,20.754 14.49,34.582 33.75,34.582 19.26,0 33.75,-13.828 33.75,-34.582 v -46.094 h -14.49 v 46.094 c 0,12.187 -8.89,20.754 -19.26,20.754 -10.37,0 -19.26,-8.567 -19.26,-20.754 v -46.094 h -14.49" /><path
         id="path62"
         style="fill:#ffffff;fill-opacity:1;fill-rule:nonzero;stroke:none"
         d="m 1287.42,226.875 v -73.437 c 0,-26.016 -16.62,-43.458 -39.84,-43.458 -25.69,0 -40.83,19.747 -40.83,43.125 0,22.071 17.78,39.192 38.04,39.192 7.9,0 15.47,-1.652 22.39,-5.598 v -15.144 c -5.28,3.621 -13.34,6.914 -19.92,6.914 -15.65,0 -26.02,-10.871 -26.02,-27.168 0,-16.133 10.87,-27.492 26.34,-27.492 13.84,0 25.36,10.527 25.36,32.265 v 70.801 h 14.48" /><path
         id="path64"
         style="fill:#ffffff;fill-opacity:1;fill-rule:nonzero;stroke:none"
         d="m 1368.89,190.645 v -46.094 c 0,-20.742 -14.5,-34.571 -33.75,-34.571 -19.27,0 -33.75,13.829 -33.75,34.571 v 46.094 h 14.48 v -46.094 c 0,-12.188 8.9,-20.742 19.27,-20.742 10.37,0 19.25,8.554 19.25,20.742 v 46.094 h 14.5" /><path
         id="path66"
         style="fill:#ffffff;fill-opacity:1;fill-rule:nonzero;stroke:none"
         d="m 1380.87,125.449 h 40.5 c 6.76,0 9.38,2.637 9.38,7.578 0,14.493 -49.88,8.887 -49.88,36.219 0,13.996 9.72,21.399 27,21.399 h 34.08 v -13.829 h -36.55 c -7.08,0 -9.05,-1.972 -9.38,-6.914 0,-13.664 49.89,-7.898 49.89,-36.218 0,-14.985 -10.54,-22.063 -24.54,-22.063 h -40.5 v 13.828" /><path
         id="path68"
         style="fill:#ffffff;fill-opacity:1;fill-rule:nonzero;stroke:none"
         d="m 1501.86,176.816 h -28.32 v -41.484 c 0,-7.41 3.45,-9.883 10.86,-9.883 h 17.46 v -13.828 h -19.43 c -14.82,0 -23.38,9.883 -23.38,25.52 v 73.269 h 14.49 v -19.765 h 28.32 v -13.829" /><path
         id="path70"
         style="fill:#ffffff;fill-opacity:1;fill-rule:nonzero;stroke:none"
         d="m 1511.38,190.645 h 13.83 v -9.051 h 0.33 c 4.94,7.742 11.69,10.703 21.39,10.703 h 3.3 v -13.828 h -2.14 c -14,0 -22.23,-8.567 -22.23,-29.973 v -36.875 h -14.48 v 79.024" /><path
         id="path72"
         style="fill:#ffffff;fill-opacity:1;fill-rule:nonzero;stroke:none"
         d="m 1565.53,111.621 v 79.024 h 14.48 v -79.024 z m 7.23,105.371 c 5.61,0 8.73,-4.277 8.73,-8.73 0,-4.446 -3.12,-8.719 -8.73,-8.719 -5.59,0 -8.72,4.273 -8.72,8.719 0,4.453 3.13,8.73 8.72,8.73" /><path
         id="path74"
         style="fill:#ffffff;fill-opacity:1;fill-rule:nonzero;stroke:none"
         d="m 1666.1,111.621 v 44.453 c 0,14.824 -12.52,22.395 -25.68,22.395 -15.98,0 -26.02,-12.688 -26.02,-27.668 0,-14.649 10.71,-26.992 25.85,-26.992 8.24,0 14.98,4.609 19.93,10.859 v -17.117 c -5.77,-4.289 -11.36,-7.571 -21.41,-7.571 -22.72,0 -38.86,18.77 -38.86,41.973 0,22.559 15.48,40.344 40.83,40.344 24.38,0 39.85,-14.817 39.85,-37.539 v -43.137 h -14.49" /><path
         id="path76"
         style="fill:#ffffff;fill-opacity:1;fill-rule:nonzero;stroke:none"
         d="m 1698.17,111.621 v 115.254 h 14.49 V 111.621 h -14.49" /><path
         id="path78"
         style="fill:#ffffff;fill-opacity:1;fill-rule:nonzero;stroke:none"
         d="m 384.199,476.996 h -58.476 c -73.418,0 -108.504,-50.683 -116.309,-94.219 H 384.199 V 298.301 H 209.414 c 7.805,-43.516 42.891,-94.199 116.309,-94.199 h 71.191 V 113.145 H 334.18 c -155.957,0 -223.516,115.644 -223.516,227.406 0,111.75 67.559,227.402 223.516,227.402 h 50.019 v -90.957" /><path
         id="path80"
         style="fill:#ffffff;fill-opacity:1;fill-rule:nonzero;stroke:none"
         d="m 504.961,340.551 c 0,-76.039 50.664,-141.645 135.781,-141.645 85.117,0 135.801,65.606 135.801,141.645 0,76.015 -50.684,141.64 -135.801,141.64 -85.117,0 -135.781,-65.625 -135.781,-141.64 z m 359.504,0 c 0,-123.461 -92.746,-226.879 -223.723,-226.879 -130.976,0 -223.73,103.418 -223.73,226.879 0,123.457 92.754,226.855 223.73,226.855 130.977,0 223.723,-103.398 223.723,-226.855" /><path
         id="path82"
         style="fill:#ffffff;fill-opacity:1;fill-rule:nonzero;stroke:none"
         d="m 896.602,113.145 v 362.992 h 96.164 V 113.145 h -96.164" /><path
         id="path84"
         style="fill:#ffffff;fill-opacity:1;fill-rule:nonzero;stroke:none"
         d="m 896.602,491.559 v 76.023 h 96.164 v -76.023 h -96.164" /><path
         id="path86"
         style="fill:#ffffff;fill-opacity:1;fill-rule:nonzero;stroke:none"
         d="m 723.117,113.34 c 0,0 68.223,18.984 115.516,90.762 h 43.672 V 113.359 L 723.117,113.34" /><path
         id="path88"
         style="fill:#ffffff;fill-opacity:1;fill-rule:nonzero;stroke:none"
         d="m 556.602,113.34 c 0,0 -68.223,18.984 -115.528,90.762 h -46.113 v -90.743 l 161.641,-0.019" /></g></g></svg>