<svg width="50" height="50" viewBox="0 0 50 50" fill="none" xmlns="http://www.w3.org/2000/svg">
<path d="M48.8906 0.567208C48.545 0.316753 48.1425 0.142702 47.7137 0.0582703C47.2849 -0.0261613 46.8409 -0.0187528 46.4157 0.0799331L15.6447 7.22277C15.0205 7.36763 14.4664 7.70208 14.0704 8.17293C13.6745 8.64379 13.4594 9.22403 13.4594 9.82142V32.8905C11.5618 32.1217 9.44757 31.9423 7.43124 32.3788C5.41492 32.8154 3.60423 33.8446 2.2685 35.3134C0.932772 36.7822 0.143375 38.6122 0.0177273 40.531C-0.10792 42.4499 0.436896 44.3552 1.57114 45.9634C2.70538 47.5717 4.36844 48.797 6.31295 49.4572C8.25746 50.1173 10.3795 50.177 12.3635 49.6273C14.3475 49.0776 16.0874 47.948 17.3244 46.4064C18.5613 44.8649 19.2293 42.9937 19.229 41.0713V22.6272L44.2304 16.8236V25.7477C42.3328 24.9789 40.2186 24.7994 38.2022 25.236C36.1859 25.6725 34.3752 26.7017 33.0395 28.1706C31.7038 29.6394 30.9144 31.4693 30.7887 33.3882C30.6631 35.3071 31.2079 37.2123 32.3421 38.8206C33.4764 40.4288 35.1394 41.6542 37.084 42.3143C39.0285 42.9745 41.1505 43.0341 43.1345 42.4845C45.1185 41.9348 46.8584 40.8052 48.0954 39.2636C49.3323 37.722 50.0003 35.8509 50 33.9285V2.67858C50.0001 2.27151 49.9002 1.86977 49.7079 1.50391C49.5157 1.13806 49.2361 0.817706 48.8906 0.567208ZM9.61306 44.6427C8.85232 44.6427 8.10866 44.4333 7.47613 44.0408C6.84359 43.6484 6.35059 43.0906 6.05947 42.438C5.76835 41.7854 5.69218 41.0673 5.84059 40.3746C5.989 39.6818 6.35534 39.0454 6.89326 38.5459C7.43119 38.0465 8.11654 37.7063 8.86267 37.5685C9.60879 37.4307 10.3822 37.5014 11.085 37.7717C11.7878 38.0421 12.3886 38.4998 12.8112 39.0871C13.2338 39.6745 13.4594 40.3649 13.4594 41.0713C13.4583 42.0182 13.0527 42.926 12.3316 43.5955C11.6105 44.265 10.6328 44.6417 9.61306 44.6427ZM19.229 17.1049V11.9129L44.2304 6.10938V11.3013L19.229 17.1049ZM40.3841 37.4999C39.6233 37.4999 38.8797 37.2904 38.2471 36.898C37.6146 36.5056 37.1216 35.9478 36.8305 35.2952C36.5393 34.6426 36.4632 33.9245 36.6116 33.2317C36.76 32.5389 37.1263 31.9026 37.6643 31.4031C38.2022 30.9036 38.8875 30.5635 39.6337 30.4257C40.3798 30.2879 41.1532 30.3586 41.856 30.6289C42.5588 30.8992 43.1596 31.357 43.5822 31.9443C44.0048 32.5316 44.2304 33.2221 44.2304 33.9285C44.2293 34.8753 43.8237 35.7831 43.1026 36.4527C42.3815 37.1222 41.4038 37.4988 40.3841 37.4999Z" fill="#023E73"/>
</svg>
