<svg width="40" height="39" viewBox="0 0 40 39" fill="none" xmlns="http://www.w3.org/2000/svg">
<g filter="url(#filter0_d_495_162)">
<circle cx="20" cy="16" r="16" fill="white"/>
</g>
<path d="M20.8002 21.2C19.8492 21.2009 18.9163 20.9401 18.1035 20.4463C17.2908 19.9524 16.6295 19.2445 16.1922 18.4H20.0002C20.4402 18.4 20.8002 18.04 20.8002 17.6C20.8002 17.16 20.4402 16.8 20.0002 16.8H15.6642C15.6242 16.536 15.6002 16.272 15.6002 16C15.6002 15.728 15.6242 15.464 15.6642 15.2H20.0002C20.4402 15.2 20.8002 14.84 20.8002 14.4C20.8002 13.96 20.4402 13.6 20.0002 13.6H16.1922C16.6303 12.7562 17.2917 12.0488 18.1043 11.5551C18.9169 11.0613 19.8494 10.8002 20.8002 10.8C21.8002 10.8 22.7362 11.088 23.5362 11.576C23.9362 11.824 24.4562 11.784 24.7922 11.448C25.2562 10.984 25.1522 10.224 24.5922 9.88005C23.4527 9.17556 22.1399 8.80164 20.8002 8.80005C17.6642 8.80005 15.0082 10.808 14.0162 13.6H12.0002C11.5602 13.6 11.2002 13.96 11.2002 14.4C11.2002 14.84 11.5602 15.2 12.0002 15.2H13.6482C13.5834 15.7314 13.5834 16.2687 13.6482 16.8H12.0002C11.5602 16.8 11.2002 17.16 11.2002 17.6C11.2002 18.04 11.5602 18.4 12.0002 18.4H14.0162C15.0082 21.192 17.6642 23.2 20.8002 23.2C22.1922 23.2 23.4882 22.808 24.5922 22.12C25.1442 21.776 25.2482 21.008 24.7842 20.544C24.4482 20.208 23.9282 20.168 23.5282 20.424C22.7362 20.92 21.8082 21.2 20.8002 21.2Z" fill="#023E73"/>
<defs>
<filter id="filter0_d_495_162" x="0.8" y="0" width="38.4" height="38.4" filterUnits="userSpaceOnUse" color-interpolation-filters="sRGB">
<feFlood flood-opacity="0" result="BackgroundImageFix"/>
<feColorMatrix in="SourceAlpha" type="matrix" values="0 0 0 0 0 0 0 0 0 0 0 0 0 0 0 0 0 0 127 0" result="hardAlpha"/>
<feOffset dy="3.2"/>
<feGaussianBlur stdDeviation="1.6"/>
<feComposite in2="hardAlpha" operator="out"/>
<feColorMatrix type="matrix" values="0 0 0 0 0 0 0 0 0 0 0 0 0 0 0 0 0 0 0.25 0"/>
<feBlend mode="normal" in2="BackgroundImageFix" result="effect1_dropShadow_495_162"/>
<feBlend mode="normal" in="SourceGraphic" in2="effect1_dropShadow_495_162" result="shape"/>
</filter>
</defs>
</svg>
