<svg width="50" height="50" viewBox="0 0 50 50" fill="none" xmlns="http://www.w3.org/2000/svg">
<path d="M31.6742 18.3451C35.6751 22.3437 41.9267 22.5103 46.1777 18.9282L31.0907 3.85046C27.5065 8.0156 27.7565 14.3466 31.6742 18.3451Z" fill="#023E73"/>
<path d="M46.8444 3.184C42.9268 -0.814532 36.5919 -0.981137 32.3408 2.51757L47.5112 17.6787C51.0121 13.4302 50.8454 7.09922 46.8444 3.184" fill="#023E73"/>
<path d="M47.7616 17.9285L32.0911 2.26758C31.9244 2.51749 31.6744 2.68409 31.4243 2.934C31.2576 3.1006 31.0075 3.35051 30.8408 3.60042L46.428 19.178C46.678 19.0114 46.8448 18.7615 47.0948 18.5949C47.3449 18.345 47.5116 18.0951 47.7616 17.9285Z" fill="#023E73"/>
<path d="M25.0061 15.7626L3.50086 42.3361L4.58446 43.3357L0 49.0836L0.916892 50L6.6683 45.4183L7.66855 46.5012L34.2584 25.0092L25.0061 15.7626Z" fill="#023E73"/>
<path d="M46.4284 29.4243C45.8449 26.4254 43.0943 25.8423 43.0943 25.8423L37.843 35.5054C37.6763 34.4225 36.8427 33.1729 35.4257 32.5065C33.5086 31.4236 31.258 31.7568 30.5078 33.0896C29.7577 34.4225 30.7579 36.4217 32.675 37.5047C34.5922 38.5876 36.8427 38.2544 37.5929 36.9215L41.7606 29.1744C42.1774 29.1744 42.8442 29.4243 43.7611 30.5072C45.6782 32.6731 48.2622 32.923 48.2622 32.923C48.2622 32.923 46.8452 32.0067 46.4284 29.4243Z" fill="#023E73"/>
<path d="M22.839 2.8508C20.3384 -0.814515 16.254 0.101814 16.254 0.101814L15.0037 16.1792C14.1702 14.7631 12.253 13.6801 10.0025 13.5135C6.75168 13.2636 4.00101 14.9297 3.8343 17.1789C3.66759 19.5113 6.08485 21.5939 9.33565 21.8438C12.5864 22.0937 15.3371 20.4277 15.5038 18.1785L16.5041 5.34988C17.0876 5.09997 18.0878 5.01667 19.9216 5.933C23.7559 7.68236 27.3401 6.51612 27.3401 6.51612C27.3401 6.51612 25.0062 6.09961 22.839 2.8508" fill="#023E73"/>
<path d="M39.8431 21.4273L28.5904 10.1814L27.1733 13.097L36.9257 22.8434L39.8431 21.4273Z" fill="#023E73"/>
<path d="M34.2581 25.0093L25.0059 15.7627L27.1731 13.097L36.9255 22.8435L34.2581 25.0093Z" fill="#023E73"/>
<path d="M31.0933 3.05987L31.565 2.58838L47.479 18.4925L47.0072 18.964L31.0933 3.05987Z" fill="#023E73"/>
<path d="M2.85059 43.0502L3.55909 42.3438L7.74345 46.5255L7.03578 47.2328L2.85059 43.0502Z" fill="#023E73"/>
<path d="M12.0859 38.5044C12.4082 38.5044 12.6694 38.2433 12.6694 37.9213C12.6694 37.5992 12.4082 37.3381 12.0859 37.3381C11.7637 37.3381 11.5024 37.5992 11.5024 37.9213C11.5024 38.2433 11.7637 38.5044 12.0859 38.5044Z" fill="#023E73"/>
<path d="M9.33533 42.1697C10.164 42.1697 10.8357 41.4983 10.8357 40.6702C10.8357 39.8421 10.164 39.1708 9.33533 39.1708C8.5067 39.1708 7.83496 39.8421 7.83496 40.6702C7.83496 41.4983 8.5067 42.1697 9.33533 42.1697Z" fill="#023E73"/>
<path d="M7.58496 40.3369H11.0025V41.0866H7.58496V40.3369Z" fill="#023E73"/>
<path d="M26.6732 24.8426C27.5019 24.8426 28.1736 24.1713 28.1736 23.3432C28.1736 22.5151 27.5019 21.8438 26.6732 21.8438C25.8446 21.8438 25.1729 22.5151 25.1729 23.3432C25.1729 24.1713 25.8446 24.8426 26.6732 24.8426Z" fill="#023E73"/>
<path d="M25.2168 22.3511L25.7469 21.8204L28.1642 24.2354L27.6341 24.7652L25.2168 22.3511Z" fill="#023E73"/>
<path d="M8.00195 44.5022C7.9186 44.5855 7.75189 44.5855 7.66854 44.5022L5.41798 42.253C5.33463 42.1697 5.33463 42.0031 5.41798 41.9198C5.50134 41.8365 5.66805 41.8365 5.7514 41.9198L8.00195 44.1689C8.08531 44.3356 8.08531 44.4189 8.00195 44.5022" fill="#023E73"/>
<path d="M16.5225 30.5031L22.5339 24.4954L25.4813 27.4401L19.469 33.4487L16.5225 30.5031Z" fill="#023E73"/>
<path d="M17.4424 30.394L19.9763 27.8616L22.0985 29.9816L19.5637 32.514L17.4424 30.394Z" fill="#023E73"/>
<path d="M17.9189 30.2906L18.214 29.9966L19.982 31.7634L19.6877 32.0583L17.9189 30.2906Z" fill="#023E73"/>
<path d="M18.5249 29.75L18.82 29.4559L20.5879 31.2228L20.2937 31.5177L18.5249 29.75Z" fill="#023E73"/>
<path d="M19.0117 29.211L19.3068 28.9161L21.0747 30.6838L20.7805 30.9779L19.0117 29.211Z" fill="#023E73"/>
<path d="M19.6167 28.6714L19.9109 28.3765L21.6789 30.1441L21.3846 30.4382L19.6167 28.6714Z" fill="#023E73"/>
<path d="M19.9634 27.9041L22.4973 25.3708L24.6204 27.4909L22.0864 30.0241L19.9634 27.9041Z" fill="#023E73"/>
</svg>
