<svg width="34" height="33" viewBox="0 0 34 33" fill="none" xmlns="http://www.w3.org/2000/svg">
<path d="M26.9167 4.125H7.08333C6.33189 4.125 5.61122 4.41473 5.07986 4.93046C4.54851 5.44618 4.25 6.14565 4.25 6.875V26.125C4.25 26.8543 4.54851 27.5538 5.07986 28.0695C5.61122 28.5853 6.33189 28.875 7.08333 28.875H26.9167C28.4892 28.875 29.75 27.6513 29.75 26.125V6.875C29.75 6.14565 29.4515 5.44618 28.9201 4.93046C28.3888 4.41473 27.6681 4.125 26.9167 4.125ZM13.7558 24.75L11.7442 22.8113L18.2467 16.5L11.7442 10.1887L13.7558 8.25L22.2558 16.5L13.7558 24.75Z" fill="#023E73"/>
</svg>
