<svg width="46" height="35" viewBox="0 0 46 35" fill="none" xmlns="http://www.w3.org/2000/svg">
<path d="M46 4.15164C44.3084 4.85321 42.4911 5.32725 40.5807 5.54151C42.5519 4.43756 44.0267 2.70008 44.7298 0.653256C42.8778 1.68284 40.8509 2.40756 38.7372 2.7959C37.3158 1.37543 35.4331 0.433922 33.3814 0.117546C31.3297 -0.198829 29.2238 0.127629 27.3906 1.04624C25.5574 1.96484 24.0996 3.42421 23.2434 5.19775C22.3872 6.97129 22.1806 8.95978 22.6556 10.8545C18.903 10.6782 15.232 9.76526 11.8807 8.17507C8.52947 6.58488 5.57292 4.35294 3.20294 1.62408C2.39258 2.93242 1.92663 4.44933 1.92663 6.06485C1.92572 7.51918 2.30837 8.95124 3.04062 10.234C3.77288 11.5167 4.83209 12.6104 6.12428 13.4181C4.62568 13.3735 3.16014 12.9945 1.84964 12.3126V12.4264C1.84949 14.4662 2.60334 16.4432 3.98328 18.0219C5.36322 19.6007 7.28426 20.684 9.42042 21.088C8.03021 21.4401 6.57269 21.492 5.15793 21.2397C5.76063 22.9948 6.93463 24.5295 8.51559 25.6291C10.0965 26.7287 12.0053 27.338 13.9746 27.3718C10.6316 29.8281 6.5029 31.1605 2.2528 31.1546C1.49994 31.1548 0.74771 31.1136 0 31.0314C4.3141 33.6275 9.33602 35.0053 14.4649 35C31.8268 35 41.3182 21.5412 41.3182 9.86851C41.3182 9.48928 41.308 9.10626 41.2898 8.72703C43.136 7.47742 44.7296 5.93002 45.996 4.15733L46 4.15164V4.15164Z" fill="#342618"/>
</svg>
