<?xml version="1.0" encoding="utf-8"?>
<!-- Generator: Adobe Illustrator 19.0.0, SVG Export Plug-In . SVG Version: 6.00 Build 0)  -->
<svg version="1.1" id="Capa_1" xmlns="http://www.w3.org/2000/svg" xmlns:xlink="http://www.w3.org/1999/xlink" x="0px" y="0px"
	 viewBox="0 0 270.5 667.4" style="enable-background:new 0 0 270.5 667.4;" xml:space="preserve">
<style type="text/css">
	.st0{opacity:0.39;fill:#F6A23C;}
	.st1{opacity:0.51;fill:#F6A23C;}
	.st2{fill:url(#XMLID_41_);}
	.st3{fill:url(#XMLID_42_);}
	.st4{fill:#F6F6F6;}
</style>
<path id="XMLID_336_" class="st0" d="M0,634.7c0.5-6.1,108.2-514,115.4-536.8c0.9,0.1,1.7,0.1,2.6,0.2c24.1,3.4,48.1,3.4,72.1-0.6
	c9.5,28,71,509.3,80.5,537.2c0.1,0.4-18.1,29.7-143.5,29.7C9.5,664.5,1.4,634,0,634.7z"/>
<path id="XMLID_335_" class="st1" d="M201.6,623.8c2.2-6.4,5.8-10,11.7-8.6c7.6,1.7,9.1,8.8,9.8,20.2c5.1-13.4,11.1-16.8,18.9-7.6
	c6.6,13,16.1,11.1,28.4,6.9c-6.4,7.2-13.5,17-21.1,19.5c-17.5,5.9-35.4,9-53.5,10.9c-30.3,3.2-60.6,2.5-90.8,1.2
	c-34.4-1.5-68.7-6-100.5-24.3C3,641.1,1,638.2,0,634.7c14.9,1.5,28.9,1.3,42-6.9c4.2-2.8,8.7-5.1,12.6-8.4
	c6.3-5.1,12.3-8.2,19.6,0.9c-0.8-9.4,2.4-14.1,8.3-15.7c7.9-2.2,13.4,2,17.6,12c1.9-8.4,3.6-15.5,10.2-18.1
	c12-4.8,23.5,1.3,22.3,21.4c-0.2,1.3-0.2,2.6-0.5,3.9c-2.3,13.1-2,13.5,8.7,13.5c16.7,0,33.3,0,50,0
	C201.7,637.3,201.7,637.3,201.6,623.8z"/>
<g id="XMLID_322_">
	<linearGradient id="XMLID_41_" gradientUnits="userSpaceOnUse" x1="246.8748" y1="76.7822" x2="46.2428" y2="70.8174">
		<stop  offset="0" style="stop-color:#16385E"/>
		<stop  offset="0.5053" style="stop-color:#00507B"/>
		<stop  offset="1" style="stop-color:#16385E"/>
	</linearGradient>
	<path id="XMLID_325_" class="st2" d="M189.6,111.3c-26,4.3-52.1,4.3-78.2,0.6c-0.9-0.1-1.9-0.1-2.8-0.2
		c-12.8-3.2-25.5-6.7-36.9-13.6c-23.2-14-24.6-33.4-3.4-50.3c7.6-6,15.9-10.7,25.5-13c-2.5,6.9-4.5,13.9-5.1,21.3
		c-0.3,3.2,0.8,4.3,3.4,5.3c38.3,14,76.6,14.7,115,0.6c4-1.5,5-3.6,4.7-7.6c-0.5-6.8-3.1-13.1-4.8-19.7c13.5,4,24.3,11.9,31.9,23.7
		c7.7,11.9,6.2,22.7-4.1,32.4c-9.6,9-21.5,13.6-33.8,17.5C197.4,109.5,193.5,110.3,189.6,111.3z"/>
	<radialGradient id="XMLID_42_" cx="117.9945" cy="-11.8182" r="98.1155" gradientUnits="userSpaceOnUse">
		<stop  offset="0" style="stop-color:#1D71B8"/>
		<stop  offset="0" style="stop-color:#FFFFFF"/>
		<stop  offset="0.3486" style="stop-color:#D4D9E7"/>
		<stop  offset="0.5105" style="stop-color:#C1C8DC"/>
		<stop  offset="1" style="stop-color:#8197BA"/>
	</radialGradient>
	<path id="XMLID_323_" class="st3" d="M208.5,35.7c1.7,6.7,4.3,13.2,4.9,20.2c0.3,4-0.7,6.3-4.8,7.8c-39.5,14.5-78.9,13.7-118.3-0.6
		c-2.7-1-3.8-2.1-3.5-5.4c0.6-7.6,2.7-14.8,5.3-21.9c10-19.2,25.2-31.8,46.7-35.5c15.2-2.6,36.9,2.2,47.5,9.8
		C195.7,17,202.7,25.8,208.5,35.7z"/>
</g>
<path id="XMLID_340_" class="st4" d="M127.6,269.4c-4.1-1.9,0-5.3,1-6.7c3.2-4.5,2.8-2.5,8.8-16.8c0.5-1.3,1.4-3.3,3-3.7
	c1.7-0.4,3.5,1.2,4.3,2c5.8,5.5,10.3,10.1,12.3,12c6.6,6.4,10,9.6,11.7,10.7c0.6,0.4,2.4,1.5,2.7,3.3c0.1,1.1-0.3,2.2-2,4.3
	c-3,3.7-4.2,3.5-7.3,7c-0.4,0.4-2.3,2.7-4.3,5c-1.3,1.4-1.8,2.1-2.7,2.3c-2,0.6-4.2-0.9-5.7-2c-9.8-7.3-13.3-10.7-13.3-10.7
	C131.2,271.7,128.5,269.8,127.6,269.4z"/>
<path id="XMLID_402_" class="st4" d="M126.9,418c-0.7,5.5-6,1.8-7.9,1.2c-6.2-2.2-3.8-2.5-22.2-4.7c-1.7-0.2-4.2-0.5-5.2-2.3
	c-1.1-1.9,0.1-4.6,0.7-5.8c4.1-8.8,7.6-15.8,9.1-18.8c4.8-10.1,7.2-15.2,7.8-17.6c0.2-0.9,0.9-3.4,2.8-4.3c1.1-0.5,2.5-0.4,5.6,0.9
	c5.3,2.3,5.5,3.8,10.6,6.3c0.6,0.3,3.9,1.8,7.2,3.4c2.1,1,3,1.4,3.6,2.4c1.5,2.2,0.5,5.3-0.2,7.4c-4.6,14.2-7.2,19.5-7.2,19.5
	C128.1,412.9,127,416.8,126.9,418z"/>
<path id="XMLID_345_" class="st4" d="M128.9,141.5c0.2-2.7,3-1.1,4-0.8c3.2,0.9,2,1.1,11.2,1.5c0.8,0,2.1,0.1,2.7,0.9
	c0.6,0.9,0,2.2-0.2,2.8c-1.9,4.4-3.6,7.9-4.2,9.4c-2.2,5-3.3,7.5-3.6,8.7c-0.1,0.4-0.4,1.7-1.3,2.2c-0.6,0.3-1.3,0.3-2.8-0.2
	c-2.7-0.9-2.8-1.7-5.4-2.7c-0.3-0.1-2-0.8-3.7-1.4c-1.1-0.4-1.5-0.6-1.9-1c-0.8-1-0.3-2.6,0-3.6c2.1-7,3.3-9.7,3.3-9.7
	C128.4,144.1,128.8,142.1,128.9,141.5z"/>
<path id="XMLID_350_" class="st4" d="M164.9,122.4c0.1-0.9,1-0.3,1.3-0.3c1,0.3,0.6,0.4,3.6,0.5c0.3,0,0.7,0,0.9,0.3
	c0.2,0.3,0,0.7-0.1,0.9c-0.6,1.4-1.1,2.5-1.4,3c-0.7,1.6-1.1,2.4-1.2,2.8c0,0.1-0.1,0.5-0.4,0.7c-0.2,0.1-0.4,0.1-0.9-0.1
	c-0.9-0.3-0.9-0.5-1.7-0.9c-0.1,0-0.6-0.2-1.2-0.5c-0.3-0.1-0.5-0.2-0.6-0.3c-0.2-0.3-0.1-0.8,0-1.2c0.7-2.3,1.1-3.1,1.1-3.1
	C164.8,123.2,164.9,122.6,164.9,122.4z"/>
</svg>
