<svg width="50" height="50" viewBox="0 0 50 50" fill="none" xmlns="http://www.w3.org/2000/svg">
<path d="M45.6 1.41308C45.4966 1.34225 45.3951 1.28809 45.2936 1.23185C44.0507 0.52102 42.6666 0.151981 41.2624 0.156954H41.2471C39.7109 0.159526 38.2021 0.598775 36.8702 1.43116C35.5383 2.26353 34.4295 3.46013 33.6537 4.90232L33.6308 4.94815C33.0029 6.12553 32.6222 7.43945 32.5162 8.79569L32.5143 8.83111H14.1295L12.0727 3.43788C11.6109 2.21709 10.7642 1.21533 9.68451 0.612481C8.60485 0.009628 7.36299 -0.154835 6.18189 0.148621L6.21636 0.140288L0 1.67764L0.384932 3.52329L6.60129 1.98594C7.37464 1.79422 8.18538 1.90532 8.89086 2.29968C9.59634 2.69404 10.1514 3.3464 10.4583 4.14198L10.4659 4.16698L12.2508 8.83319H0.57644L20.0969 30.0665V45.6129C15.5639 45.9629 12.4365 47.5961 12.4365 49.6229V50H31.2503V49.6229C31.2503 47.5981 28.1172 45.9566 23.59 45.6129V30.0665L35.6225 16.9782C35.9997 17.3261 36.421 17.649 36.8653 17.9323L36.9075 17.9573C38.9199 19.2021 41.3035 19.5299 43.5375 18.8692C45.7715 18.2084 47.6742 16.6127 48.83 14.4307C49.9858 12.2488 50.3007 9.65793 49.7059 7.22422C49.1111 4.79052 47.6549 2.71181 45.6556 1.44224L45.6134 1.41725L45.6 1.41308ZM47.5132 8.71862L42.737 8.7332L45.1136 4.23364C46.4115 5.32274 47.2704 6.9171 47.5094 8.68112L47.5132 8.71862ZM43.6103 3.28373L41.2336 7.79579L38.8321 3.31081C39.5998 2.96653 40.4225 2.79095 41.2528 2.7942C42.1012 2.7942 42.9113 2.97334 43.6524 3.3004L43.6103 3.28373ZM35.7374 6.26052C36.1548 5.47102 36.6872 4.8065 37.3173 4.27113L37.3307 4.26072L39.7322 8.7457L34.9675 8.76028C35.0747 7.82495 35.3467 6.9792 35.7527 6.22719L35.7374 6.25844V6.26052ZM6.43085 11.4704H13.2505L14.1888 13.9431H8.70597L6.43085 11.4704ZM34.9541 13.9452H33.3971V13.9577H16.0599L15.1215 11.485H37.2101L34.9541 13.9452ZM38.8704 16.0825L41.2471 11.5704L43.6486 16.0554C42.9342 16.3845 42.1031 16.5762 41.2317 16.5762C40.3814 16.5762 39.5694 16.3949 38.8283 16.0637L38.8704 16.0804V16.0825ZM46.7433 13.1203C46.3399 13.8877 45.8041 14.5632 45.1653 15.1097L45.1519 15.1201L42.7504 10.6351L47.5151 10.6226C47.4048 11.5128 47.1376 12.3715 46.728 13.1515L46.7453 13.1182L46.7433 13.1203Z" fill="#342618"/>
</svg>
