<svg width="60" height="50" viewBox="0 0 60 50" fill="none" xmlns="http://www.w3.org/2000/svg">
<path d="M58.3903 23.4882C55.7389 9.86947 51.7487 2.60064 45.8296 0.615131C44.5854 0.200487 43.2947 -0.00666404 41.9981 0.00016341C40.2843 0.00016341 38.7917 0.474526 37.2128 0.977294C35.3102 1.58374 33.1489 2.27256 29.9974 2.27256C26.846 2.27256 24.6834 1.58516 22.777 0.978714C21.1969 0.474526 19.7056 0.00016341 17.9967 0.00016341C16.6559 -0.00511862 15.321 0.201373 14.0303 0.613711C8.14242 2.5907 4.15469 9.85669 1.46453 23.4797C-1.42813 38.1395 -0.00430084 47.3953 5.45726 49.5427C6.20591 49.8425 6.99361 49.9971 7.7874 50C11.5289 50 14.529 46.4593 16.5792 43.5606C18.8955 40.2798 21.6069 38.6153 29.9974 38.6153C37.4916 38.6153 40.593 39.77 43.2719 43.5606C44.9558 45.9438 46.5471 47.6111 48.1347 48.6607C50.2461 50.0554 52.3562 50.365 54.4051 49.5654C57.6328 48.3142 59.4829 45.0064 59.9054 39.7316C60.2267 35.6867 59.7316 30.3736 58.3903 23.4882ZM23.9971 22.7241H19.9969V27.2689C19.9969 27.8716 19.7861 28.4496 19.411 28.8758C19.0359 29.3019 18.5272 29.5413 17.9967 29.5413C17.4663 29.5413 16.9575 29.3019 16.5824 28.8758C16.2073 28.4496 15.9966 27.8716 15.9966 27.2689V22.7241H11.9964C11.4659 22.7241 10.9572 22.4847 10.5821 22.0586C10.207 21.6324 9.99628 21.0544 9.99628 20.4517C9.99628 19.8491 10.207 19.2711 10.5821 18.8449C10.9572 18.4188 11.4659 18.1793 11.9964 18.1793H15.9966V13.6345C15.9966 13.0319 16.2073 12.4539 16.5824 12.0277C16.9575 11.6016 17.4663 11.3621 17.9967 11.3621C18.5272 11.3621 19.0359 11.6016 19.411 12.0277C19.7861 12.4539 19.9969 13.0319 19.9969 13.6345V18.1793H23.9971C24.5275 18.1793 25.0363 18.4188 25.4114 18.8449C25.7865 19.2711 25.9972 19.8491 25.9972 20.4517C25.9972 21.0544 25.7865 21.6324 25.4114 22.0586C25.0363 22.4847 24.5275 22.7241 23.9971 22.7241ZM34.4977 23.2922C34.0032 23.2922 33.5198 23.1256 33.1087 22.8135C32.6975 22.5014 32.3771 22.0578 32.1879 21.5387C31.9986 21.0197 31.9491 20.4486 32.0456 19.8976C32.1421 19.3466 32.3802 18.8405 32.7298 18.4432C33.0795 18.046 33.525 17.7754 34.0099 17.6658C34.4949 17.5562 34.9976 17.6125 35.4544 17.8275C35.9113 18.0425 36.3018 18.4065 36.5765 18.8736C36.8512 19.3408 36.9978 19.8899 36.9978 20.4517C36.9978 21.2051 36.7344 21.9276 36.2656 22.4603C35.7967 22.993 35.1608 23.2922 34.4977 23.2922V23.2922ZM39.998 29.5413C39.5033 29.5413 39.0196 29.3745 38.6084 29.0621C38.1971 28.7497 37.8766 28.3056 37.6876 27.7862C37.4985 27.2667 37.4494 26.6953 37.5464 26.1441C37.6433 25.5929 37.8821 25.0867 38.2324 24.6898C38.5826 24.2928 39.0287 24.0228 39.5141 23.914C39.9995 23.8053 40.5024 23.8625 40.9591 24.0786C41.4158 24.2947 41.8059 24.6599 42.0798 25.1279C42.3538 25.596 42.4994 26.1458 42.4981 26.7079C42.4965 27.46 42.2324 28.1807 41.7637 28.7119C41.295 29.243 40.66 29.5413 39.998 29.5413V29.5413ZM39.998 17.0431C39.5035 17.0431 39.0201 16.8765 38.609 16.5644C38.1978 16.2523 37.8774 15.8087 37.6882 15.2897C37.4989 14.7706 37.4494 14.1995 37.5459 13.6485C37.6424 13.0975 37.8805 12.5914 38.2301 12.1941C38.5798 11.7969 39.0253 11.5263 39.5103 11.4167C39.9952 11.3071 40.4979 11.3634 40.9548 11.5784C41.4116 11.7934 41.8021 12.1574 42.0768 12.6245C42.3515 13.0917 42.4981 13.6408 42.4981 14.2026C42.4981 14.956 42.2347 15.6785 41.7659 16.2112C41.297 16.7439 40.6611 17.0431 39.998 17.0431ZM45.4983 23.2922C45.0038 23.2922 44.5205 23.1256 44.1093 22.8135C43.6982 22.5014 43.3777 22.0578 43.1885 21.5387C42.9993 21.0197 42.9497 20.4486 43.0462 19.8976C43.1427 19.3466 43.3808 18.8405 43.7304 18.4432C44.0801 18.046 44.5256 17.7754 45.0106 17.6658C45.4955 17.5562 45.9982 17.6125 46.4551 17.8275C46.9119 18.0425 47.3024 18.4065 47.5771 18.8736C47.8518 19.3408 47.9985 19.8899 47.9985 20.4517C47.9985 21.2051 47.7351 21.9276 47.2662 22.4603C46.7973 22.993 46.1614 23.2922 45.4983 23.2922V23.2922Z" fill="#342618"/>
</svg>