<?xml version="1.0" encoding="utf-8"?>
<!-- Generator: Adobe Illustrator 19.0.0, SVG Export Plug-In . SVG Version: 6.00 Build 0)  -->
<svg version="1.1" id="Capa_1" xmlns="http://www.w3.org/2000/svg" xmlns:xlink="http://www.w3.org/1999/xlink" x="0px" y="0px"
	 viewBox="-277 399 40.6 43.9" style="enable-background:new -277 399 40.6 43.9;" xml:space="preserve">
<style type="text/css">
	.st0{fill:#010202;}
</style>
<g id="XMLID_19_">
	<path id="XMLID_26_" d="M-277,411.8c0.5-1.4,1.4-2,2.7-1.8c0.2,0,0.4,0.1,0.6,0.1c0.6-1,1.5-1.5,2.6-1.2c1.2,0.3,1.7,1.1,1.8,2.3
		c0.4,0,0.7,0,1,0c1.1,0.1,1.9,1,2,2.1c0,0.8,0,1.7,0,2.6c0.1,0,0.2,0,0.3,0c1.5-0.3,2.8,0.7,2.8,2.2c0,1.7,0,3.5,0,5.2
		c0,0.4,0.1,0.6,0.5,0.8c0.8,0.3,1.6,0.7,2.4,1.1c1.5,0.7,2.3,2,2.3,3.6c0,2.9,0,5.8,0,8.7c0,0.7-0.3,1-1,1c-2.7,0-5.4,0-8,0
		c-0.7,0-1-0.3-1-1c0-1.3,0-2.6,0-3.9c0-0.2-0.1-0.4-0.3-0.5c-1-0.6-2-1.1-3-1.7c-1-0.5-1.7-1.2-2.3-2.2c-0.9-1.6-1.8-3.2-2.7-4.8
		c-0.5-0.9-0.7-1.8-0.8-2.8c0-0.1,0-0.2-0.1-0.2C-277,418.2-277,415-277,411.8z M-263.1,425.5c0,0.1-0.1,0.1-0.1,0.2
		c0.2,0.1,0.4,0.3,0.5,0.4c0.5,0.5,0.6,1,0.2,1.3c-0.4,0.4-0.8,0.3-1.4-0.2c-2.3-2.3-4.5-4.6-6.8-6.8c-0.1-0.1-0.3-0.3-0.4-0.4
		c-0.3-0.2-0.7-0.2-1,0.1c-0.3,0.3-0.4,0.6-0.2,1c0.1,0.2,0.2,0.4,0.4,0.6c0.9,1,1.9,2,2.9,3.1c0.3,0.4,0.4,0.9,0,1.2
		c-0.3,0.3-0.8,0.3-1.2-0.1c-1-1.1-2.1-2.2-3.1-3.4c-0.5-0.6-0.8-1.3-0.7-2.1c0-0.2,0.1-0.4,0.1-0.6c0-2.4,0-4.8,0-7.2
		c0-0.2,0-0.4-0.1-0.5c-0.1-0.4-0.5-0.5-0.9-0.5c-0.4,0.1-0.6,0.3-0.6,0.7c0,2.8,0,5.5,0,8.3c0,1.1,0.2,2.2,0.8,3.2
		c0.8,1.6,1.7,3.1,2.6,4.6c0.4,0.7,0.9,1.1,1.6,1.5c1.2,0.7,2.4,1.3,3.5,2c0.4,0.2,0.5,0.5,0.5,0.9c0,0.6,0,1.1,0,1.7
		c0,0.7,0,1.5,0,2.2c2.3,0,4.6,0,6.9,0c0-2.8,0-5.5,0-8.2c0-0.7-0.3-1.3-0.9-1.7C-261.3,426.4-262.2,426-263.1,425.5z M-270.9,418.3
		c0-0.1,0-0.2,0-0.2c0-2.2,0-4.4,0-6.7c0-0.1,0-0.3,0-0.4c-0.1-0.4-0.4-0.6-0.8-0.5c-0.4,0.1-0.6,0.4-0.6,0.9c0,2.2,0,4.4,0,6.7
		c0,0.1,0,0.2,0,0.3C-271.8,418.3-271.3,418.3-270.9,418.3z M-267.8,420.9c0-0.1,0-0.2,0-0.3c0-2.3,0-4.6,0-7c0-0.1,0-0.2,0-0.4
		c-0.1-0.4-0.5-0.7-0.9-0.5c-0.4,0.1-0.5,0.4-0.5,0.8c0,1.9,0,3.8,0,5.7c0,0.1,0,0.3,0.1,0.4C-268.7,420.1-268.3,420.5-267.8,420.9z
		 M-264.7,423.1c0-1.7,0-3.3,0-4.9c0-0.5-0.3-0.8-0.7-0.8s-0.7,0.3-0.7,0.8c0,1.3,0,2.6,0,4c0,0.1,0.1,0.3,0.2,0.3
		C-265.6,422.7-265.2,422.9-264.7,423.1z"/>
	<path id="XMLID_20_" d="M-247.2,415.9c0-0.8,0-1.6,0-2.3c0-1.4,0.9-2.3,2.2-2.4c0.3,0,0.5,0,0.8,0.1c0.2-1.4,0.9-2.3,2.3-2.3
		c1-0.1,1.7,0.4,2.1,1.2c0.6,0,1.1-0.1,1.7,0c1.1,0.2,1.7,1,1.7,2.1c0,2.8,0,5.6,0,8.4c0,1.4-0.3,2.7-0.9,3.9
		c-0.9,1.7-1.9,3.4-2.9,5.1c-0.4,0.7-1,1.2-1.7,1.6c-1.1,0.6-2.1,1.2-3.2,1.8c-0.2,0.1-0.3,0.2-0.3,0.5c0,1.3,0,2.6,0,3.8
		c0,0.8-0.3,1-1,1c-2.7,0-5.3,0-8,0c-0.7,0-1-0.3-1-1c0-2.9,0-5.7,0-8.6c0-1.7,0.8-3,2.4-3.7c0.8-0.4,1.7-0.8,2.5-1.1
		c0.3-0.1,0.4-0.2,0.3-0.5c0-1.6,0.1-3.3,0-4.9C-250.4,416.8-249.1,415.5-247.2,415.9z M-247,436.8c0-0.1,0-0.3,0-0.4
		c0-1.2,0-2.3,0-3.5c0-0.4,0.2-0.7,0.5-0.9c1.2-0.7,2.3-1.3,3.5-2c0.8-0.4,1.4-1,1.8-1.8c0.7-1.3,1.5-2.6,2.2-3.9
		c0.7-1.2,1-2.4,1-3.7c0-2.7,0-5.5,0-8.2c0-0.5-0.2-0.7-0.6-0.7c-0.4-0.1-0.7,0.1-0.8,0.6c0,0.2-0.1,0.4-0.1,0.5c0,2.3,0,4.6,0,6.9
		c0,0.2,0,0.5,0.1,0.7c0.1,0.8-0.1,1.4-0.6,2c-0.1,0.2-0.3,0.3-0.4,0.4c-1,1-1.9,2.1-2.9,3.1c-0.5,0.5-1.1,0.4-1.4-0.1
		c-0.2-0.4-0.1-0.7,0.2-1c1-1,1.9-2.1,2.9-3.1c0.1-0.2,0.3-0.4,0.4-0.6c0.2-0.4,0.1-0.8-0.2-1c-0.3-0.3-0.7-0.3-1.1,0
		c-0.2,0.1-0.3,0.2-0.4,0.4c-2.3,2.3-4.6,4.6-6.9,6.9c-0.4,0.4-0.9,0.5-1.2,0.1c-0.4-0.3-0.3-0.8,0.1-1.3c0.2-0.2,0.4-0.4,0.6-0.5
		l-0.1-0.1c-0.7,0.3-1.4,0.6-2.1,0.9c-1.1,0.5-1.6,1.3-1.6,2.5c0,2.5,0,5,0,7.5c0,0.1,0,0.3,0,0.4
		C-251.6,436.8-249.3,436.8-247,436.8z M-241.1,418.3c0-0.1,0-0.3,0-0.4c0-2.1,0-4.3,0-6.4c0-0.7-0.2-1-0.7-1.1
		c-0.5,0-0.8,0.3-0.8,1.1c0,2.1,0,4.3,0,6.4c0,0.1,0,0.3,0,0.4C-242.1,418.3-241.6,418.3-241.1,418.3z M-245.6,421
		c0.5-0.5,0.9-0.8,1.2-1.2c0.1-0.2,0.3-0.4,0.3-0.6c0-1.8,0-3.6,0-5.3c0-0.7-0.3-1.1-0.7-1c-0.5,0-0.7,0.4-0.7,1.1
		c0,2.2,0,4.5,0,6.7C-245.6,420.6-245.6,420.8-245.6,421z M-248.7,423.1c0.4-0.2,0.7-0.3,1.1-0.5c0.3-0.1,0.4-0.3,0.4-0.6
		c0-1.2,0-2.3,0-3.5c0-0.1,0-0.3,0-0.4c-0.1-0.4-0.4-0.7-0.8-0.6c-0.4,0-0.7,0.3-0.7,0.7C-248.7,419.8-248.7,421.4-248.7,423.1z"/>
</g>
<path id="XMLID_15_" class="st0" d="M-256.5,417.6L-256.5,417.6c-0.2,0-0.2,0-0.2,0c-4.5-4-7.4-6.7-7.4-9.4c0-1.9,1.4-3.3,3.3-3.3
	c1.4,0,2.9,0.9,3.4,2.2c0,0,0.7,0.5,0.9,0.5s0.9-0.5,0.9-0.5c0.5-1.3,1.9-2.2,3.4-2.2c1.9,0,3.3,1.4,3.3,3.3
	C-249.1,410.9-252,413.5-256.5,417.6 M-252.4,403c-1.6,0-3.2,0.8-4.2,2c-1-1.2-2.6-2-4.2-2c-2.9,0-5.2,2.2-5.2,5.1
	c0,3.5,3.2,6.4,8,10.8l1.3,1.2c0,0,0,0,0.1,0h0.1l1.3-1.2c4.8-4.4,8-7.3,8-10.8C-247.2,405.2-249.5,403-252.4,403z M-257.5,407.1
	c0,0,0.3,0.5,0.9,0.5c0.7,0,0.9-0.5,0.9-0.5"/>
</svg>
