<svg width="50" height="50" viewBox="0 0 50 50" fill="none" xmlns="http://www.w3.org/2000/svg">
<path d="M8.61458 17.5H12.6937L13.3208 40H8.07187L8.61458 17.5V17.5ZM5.20833 41.25H44.7917V43.75H47.9167V47.5H50V50H0V47.5H2.08333V43.75H5.20833V41.25ZM46.875 11.015L25.0021 0L3.125 11.015V12.5H46.875V11.015V11.015ZM7.29167 13.75H42.7083V16.25H7.29167V13.75ZM37.225 17.5H41.3021L41.9344 40H36.6781L37.225 17.5ZM27.6917 17.5H31.7687L32.3937 40H27.1427L27.6917 17.5V17.5ZM18.1562 17.5H22.2344L22.8552 40H17.6062L18.1562 17.5V17.5Z" fill="#342618"/>
</svg>
