<svg width="22" height="22" viewBox="0 0 22 22" fill="none" xmlns="http://www.w3.org/2000/svg">
<path d="M10.8333 19.6665C15.6 19.6665 19.5 15.7665 19.5 10.9998C19.5 6.23317 15.6 2.33317 10.8333 2.33317C6.06667 2.33317 2.16667 6.23317 2.16667 10.9998C2.16667 15.7665 6.06667 19.6665 10.8333 19.6665ZM10.8333 0.166504C16.7917 0.166504 21.6667 5.0415 21.6667 10.9998C21.6667 16.9582 16.7917 21.8332 10.8333 21.8332C4.875 21.8332 0 16.9582 0 10.9998C0 5.0415 4.875 0.166504 10.8333 0.166504ZM16.25 13.0582L15.4917 14.4665L9.75 11.3248V5.58317H11.375V10.3498L16.25 13.0582Z" fill="#342618"/>
</svg>
