<svg width="50" height="50" viewBox="0 0 50 50" fill="none" xmlns="http://www.w3.org/2000/svg">
<path d="M22.6474 49.8885C16.8531 49.3489 11.4308 46.7971 7.32206 42.6761C-2.44069 32.9138 -2.44069 17.0841 7.32206 7.32174C17.0848 -2.44058 32.9152 -2.44058 42.6779 7.32174C52.4407 17.0841 52.4407 32.9138 42.6779 42.6761C40.1752 45.1842 37.1668 47.1302 33.853 48.3847C30.5393 49.6391 26.9963 50.173 23.46 49.951C23.1878 49.9904 22.9103 49.969 22.6474 49.8885V49.8885ZM46.058 22.134C45.5234 18.1637 43.8718 14.427 41.2954 11.3592L27.6501 24.9989L30.3701 27.7189C33.0002 25.5939 35.9303 24.4489 38.7228 23.6989C40.3479 23.264 41.9629 22.949 43.4405 22.6665L43.4805 22.6565C44.398 22.4815 45.2555 22.314 46.0555 22.134H46.058ZM46.2305 25.9339C45.5655 26.0739 44.893 26.2039 44.2305 26.3339L44.1955 26.3389C42.6879 26.6314 41.1904 26.9214 39.6979 27.3214C37.3153 27.9614 35.0452 28.8614 33.0427 30.3913L41.2929 38.6412C44.295 35.0657 46.0309 30.5982 46.2305 25.9339V25.9339ZM30.3826 33.0338C28.6951 35.1887 27.7826 37.5487 27.1401 39.9661C26.8275 41.1411 26.5875 42.2861 26.345 43.4461L26.135 44.4336C26.01 45.0336 25.8725 45.6361 25.7225 46.236C30.4612 46.0816 35.0109 44.3412 38.6428 41.2936L30.3826 33.0338V33.0338ZM21.8999 46.0235C22.1049 45.2986 22.2849 44.5086 22.4699 43.6486L22.6624 42.7311C22.9074 41.5586 23.175 40.2811 23.515 39.0012C24.2675 36.1812 25.42 33.1588 27.7151 30.3663L25 27.6514L11.3572 41.2936C14.3639 43.8188 18.0146 45.4567 21.8999 46.0235V46.0235ZM22.3499 24.9989L19.3199 21.9715C16.5348 24.3264 13.6197 25.6214 10.9071 26.5364C9.78962 26.9164 8.66459 27.2414 7.62956 27.5439C7.23205 27.6589 6.84704 27.7689 6.47953 27.8789C5.60451 28.1439 4.80199 28.3989 4.06947 28.6814C4.70944 32.3518 6.30851 35.7879 8.70459 38.6412L22.3499 24.9989ZM5.40701 24.2864L6.66204 23.9189C7.683 23.6297 8.69744 23.318 9.70461 22.984C12.0647 22.184 14.4247 21.134 16.6573 19.309L8.70709 11.3567C5.54038 15.1288 3.78731 19.8865 3.74946 24.8114C4.29948 24.6239 4.85699 24.4514 5.40701 24.2864V24.2864ZM11.3572 8.70422L19.3099 16.6566C21.1349 14.4241 22.1874 12.0642 22.9849 9.7042C23.3375 8.66672 23.6275 7.66924 23.92 6.65925V6.65675C24.045 6.24176 24.1625 5.82677 24.29 5.40678C24.455 4.85679 24.625 4.2993 24.8125 3.74931C19.8877 3.78645 15.1298 5.53855 11.3572 8.70422V8.70422ZM26.54 10.9042C25.6225 13.6166 24.33 16.5341 21.9724 19.319L25 22.349L38.6428 8.70422C35.7894 6.30824 32.3532 4.70924 28.6826 4.0693C28.4001 4.80179 28.1451 5.60177 27.8826 6.47926L27.5451 7.62924C27.2451 8.66422 26.92 9.7867 26.54 10.9042Z" fill="#023E73"/>
</svg>
