<svg width="50" height="50" viewBox="0 0 50 50" fill="none" xmlns="http://www.w3.org/2000/svg">
<path opacity="0.8" d="M22.1216 19.233L27.2906 48.7069C27.8742 51.954 48.1336 48.4571 47.55 45.1267L46.4661 39.132C48.5504 37.5501 49.801 34.8025 49.9677 32.4713C50.1345 30.0567 49.6343 25.3942 48.8005 23.0629C48.1336 21.2312 45.549 21.481 43.3814 21.9806L42.2975 15.8193L22.1216 19.233V19.233ZM45.9659 35.9682L43.965 24.6449C45.2155 24.3951 46.4661 24.3951 46.7996 25.3109C47.4666 27.3924 47.55 30.6396 47.4666 32.8043C47.2998 33.9699 46.7996 35.0523 45.9659 35.9682V35.9682ZM23.8724 20.8149L41.2971 17.7343L45.7992 43.0453C46.2994 45.7096 28.8747 48.7902 28.3745 46.1259L23.8724 20.8149Z" fill="#A1B8C7"/>
<path d="M41.881 26.7263L26.2905 29.4739L29.0418 45.21C29.4587 47.6245 45.0492 44.8769 44.6323 42.4624L41.881 26.7263Z" fill="#023E73"/>
<path d="M20.538 20.3985C20.2878 16.9016 24.7065 14.4039 27.958 15.8193C29.0419 12.8219 32.877 12.8219 34.5444 14.3206C35.8784 13.5713 38.8797 13.0717 40.4638 14.7369C43.7153 13.4047 46.4666 18.5668 41.2975 19.1497C33.7941 17.9008 25.3735 32.8875 25.3735 32.8875C23.9562 33.1373 22.0387 32.4712 22.4555 30.2232C21.6218 30.3065 20.2878 28.891 20.6213 27.5589C17.2031 26.643 17.4532 21.3144 20.538 20.3985" fill="#D8D2B8"/>
<path d="M21.2048 20.7318C20.9546 16.8186 26.1237 15.4031 28.4581 16.319C29.2918 14.071 32.6267 13.0719 34.5442 14.9036C35.5447 14.2375 38.7128 13.5714 40.2135 15.1534C43.7151 13.7379 45.3826 19.3163 40.547 19.2331L41.8809 26.7265L30.5424 28.7247C30.459 29.5573 29.2918 30.3899 27.8745 30.1401C28.1246 31.5555 26.7073 32.8044 25.3733 32.9709C23.7893 33.1374 22.5387 31.6388 23.2057 29.8903C21.705 29.8903 21.038 28.5582 21.3715 27.3925C18.12 26.5599 18.12 21.3978 21.2048 20.7318" fill="white"/>
<path d="M37.2121 29.1409C38.9629 28.8079 40.7137 29.9735 40.9638 31.6387C41.2973 33.3872 40.0468 34.9691 38.296 35.3022C36.5451 35.6352 34.7943 34.4696 34.5442 32.8044C34.2107 31.1392 35.4613 29.474 37.2121 29.1409Z" fill="#C2E3FF"/>
<path d="M34.3683 40.5138C35.7287 40.2741 36.6499 39.052 36.426 37.7841C36.202 36.5161 34.9177 35.6825 33.5574 35.9221C32.197 36.1617 31.2758 37.3838 31.4997 38.6518C31.7237 39.9197 33.008 40.7534 34.3683 40.5138Z" fill="#C2E3FF"/>
<path d="M39.3994 41.0274C40.3063 40.8678 40.9185 40.0409 40.7667 39.1805C40.6149 38.3201 39.7566 37.7519 38.8497 37.9115C37.9427 38.0711 37.3306 38.898 37.4824 39.7584C37.6342 40.6188 38.4924 41.187 39.3994 41.0274Z" fill="#C2E3FF"/>
<path d="M35.9617 42.2959C36.6286 42.2126 37.2122 42.5457 37.2956 43.2118C37.379 43.7946 36.9621 44.3774 36.3785 44.4607C35.7116 44.5439 35.128 44.2109 35.0446 43.5448C34.8778 43.0452 35.2947 42.4624 35.9617 42.2959Z" fill="#C2E3FF"/>
<path opacity="0.8" d="M8.53218 7.57666L7.36498 14.404C4.9472 13.8211 2.11256 13.6546 1.44559 15.6528C0.445124 18.2339 -0.138478 23.396 0.0282659 25.9771C0.195009 28.6414 1.61233 31.5554 3.94674 33.3039L2.77953 39.9647C2.11256 43.5448 24.3728 47.458 25.0398 43.8779L30.7924 11.4899L8.53218 7.57666V7.57666ZM2.94628 26.5599C2.77953 24.1453 2.8629 20.5652 3.69662 18.3172C4.03011 17.318 5.36406 17.2348 6.78137 17.5678L4.53034 29.9735C3.61325 28.9744 3.02965 27.7255 2.94628 26.5599ZM23.9559 41.1303C23.4557 44.0444 4.28022 40.714 4.86383 37.7999L9.78276 9.90793L28.9583 13.2383L23.9559 41.1303" fill="#A1B8C7"/>
<path d="M9.03266 19.7325L26.1239 22.7299L23.1225 40.0479C22.6222 42.629 5.53105 39.6316 6.03128 37.0506L9.03266 19.7325" fill="#023E73"/>
<path d="M32.5433 12.822C32.7934 8.90878 27.9578 6.24447 24.3728 7.74315C23.2056 4.49602 18.9537 4.41276 17.1195 6.16121C15.6188 5.32861 12.2839 4.7458 10.6165 6.66077C7.03152 5.1621 4.03014 10.907 9.69941 11.4898C18.0366 10.0744 27.2075 26.6431 27.2075 26.6431C28.7915 26.8929 30.8758 26.1435 30.3756 23.6457C31.2927 23.8123 32.71 22.1471 32.4599 20.7317C36.1283 19.7325 35.8781 13.8211 32.5433 12.822Z" fill="#D8D2B8"/>
<path d="M31.7099 13.2383C31.96 8.90881 26.2907 7.32688 23.7896 8.40925C22.8725 5.99472 19.2041 4.82909 17.0365 6.82732C15.9526 6.07798 12.5344 5.32864 10.867 7.0771C7.03186 5.57842 5.11431 11.6564 10.4501 11.5731L9.03278 19.8158L21.5385 21.9806C21.6219 22.8964 22.9559 23.8123 24.4565 23.5625C24.1231 25.1445 25.7071 26.5599 27.2078 26.7264C28.8752 26.8929 30.3759 25.2277 29.5422 23.396C31.2097 23.396 31.8766 21.8973 31.5431 20.6484C35.1281 19.5661 35.1281 13.9044 31.7099 13.2383" fill="white"/>
<path d="M25.6234 10.7404C25.7901 9.24176 24.6229 7.41004 21.8716 7.99286C21.5382 7.32678 20.7878 6.99374 19.6206 7.65982C20.9546 7.65982 21.3714 8.07612 21.6215 8.7422C24.3728 8.7422 24.6229 11.24 24.6229 11.24C24.6229 11.24 25.7901 11.3232 26.1236 12.8219C26.6238 12.1558 26.5405 11.1567 25.6234 10.7404" fill="#D8D2B8"/>
<path d="M27.1238 16.9017C25.1229 14.9867 23.122 15.8193 22.455 17.1514C21.4546 16.9849 20.871 17.7343 20.7876 18.4836C21.9548 17.4012 22.9553 17.984 22.9553 17.984C22.9553 17.984 24.5393 16.0691 26.8737 17.5677C27.4573 17.0682 28.0409 17.0682 29.1248 17.7342C28.5412 16.6519 27.7908 16.5686 27.1238 16.9017" fill="#D8D2B8"/>
<path d="M14.1181 22.3968C12.1172 22.0638 10.283 23.3127 9.94951 25.1444C9.61602 27.0594 10.95 28.8078 12.9509 29.2241C14.9518 29.5572 16.786 28.3083 17.1195 26.4766C17.453 24.5616 16.119 22.8131 14.1181 22.3968Z" fill="#C2E3FF"/>
<path d="M20.4067 32.8787C20.6541 31.4748 19.6414 30.1236 18.1449 29.8606C16.6484 29.5977 15.2348 30.5226 14.9874 31.9265C14.7401 33.3304 15.7527 34.6817 17.2492 34.9446C18.7457 35.2076 20.1594 34.2826 20.4067 32.8787Z" fill="#C2E3FF"/>
<path d="M12.2841 32.1382C11.2837 31.9717 10.3666 32.5545 10.1999 33.5536C10.0331 34.4695 10.7001 35.3853 11.7005 35.5519C12.701 35.7184 13.6181 35.1356 13.7848 34.1364C13.9516 33.2206 13.2846 32.3047 12.2841 32.1382Z" fill="#C2E3FF"/>
<path d="M15.5357 36.9673C14.8687 36.8841 14.2017 37.3004 14.035 37.9665C13.9516 38.6325 14.3685 39.2154 15.0354 39.3819C15.7024 39.4651 16.3694 39.0488 16.5361 38.3828C16.7029 37.7167 16.286 37.0506 15.5357 36.9673Z" fill="#C2E3FF"/>
<path d="M35.4614 10.6573L43.4651 3.74672L39.63 0.999146L35.4614 10.6573Z" fill="#023E73"/>
<path d="M39.1294 12.0726L46.7162 13.7378V9.74133L39.1294 12.0726Z" fill="#023E73"/>
<path d="M32.7932 8.07619L34.7107 0H30.6255L32.7932 8.07619Z" fill="#023E73"/>
</svg>
