<svg width="40" height="40" viewBox="0 0 40 40" fill="none" xmlns="http://www.w3.org/2000/svg">
<g filter="url(#filter0_d_538_71)">
<circle cx="20" cy="16" r="16" fill="white"/>
<path d="M20.1 22.55L20 22.65L19.89 22.55C15.14 18.24 12 15.39 12 12.5C12 10.5 13.5 9 15.5 9C17.04 9 18.54 10 19.07 11.36H20.93C21.46 10 22.96 9 24.5 9C26.5 9 28 10.5 28 12.5C28 15.39 24.86 18.24 20.1 22.55ZM24.5 7C22.76 7 21.09 7.81 20 9.08C18.91 7.81 17.24 7 15.5 7C12.42 7 10 9.41 10 12.5C10 16.27 13.4 19.36 18.55 24.03L20 25.35L21.45 24.03C26.6 19.36 30 16.27 30 12.5C30 9.41 27.58 7 24.5 7Z" fill="#023E73"/>
</g>
<defs>
<filter id="filter0_d_538_71" x="0" y="0" width="40" height="40" filterUnits="userSpaceOnUse" color-interpolation-filters="sRGB">
<feFlood flood-opacity="0" result="BackgroundImageFix"/>
<feColorMatrix in="SourceAlpha" type="matrix" values="0 0 0 0 0 0 0 0 0 0 0 0 0 0 0 0 0 0 127 0" result="hardAlpha"/>
<feOffset dy="4"/>
<feGaussianBlur stdDeviation="2"/>
<feComposite in2="hardAlpha" operator="out"/>
<feColorMatrix type="matrix" values="0 0 0 0 0 0 0 0 0 0 0 0 0 0 0 0 0 0 0.25 0"/>
<feBlend mode="normal" in2="BackgroundImageFix" result="effect1_dropShadow_538_71"/>
<feBlend mode="normal" in="SourceGraphic" in2="effect1_dropShadow_538_71" result="shape"/>
</filter>
</defs>
</svg>
