<svg width="50" height="50" viewBox="0 0 50 50" fill="none" xmlns="http://www.w3.org/2000/svg">
<path d="M14.053 7.8125C13.1161 7.8125 12.4915 8.75 12.4915 9.375V17.1875H9.36866V9.375C9.36866 8.4375 8.74408 7.8125 7.80722 7.8125C6.87035 7.8125 6.24577 8.75 6.24577 9.375V17.1875H3.12289V9.375C3.12289 8.4375 2.49831 7.8125 1.56144 7.8125C0.624577 7.8125 0 8.75 0 9.375V19.6875C0 22.5 2.18602 24.6875 4.68433 25V46.875C4.68433 48.75 5.93349 50 7.80722 50C9.68095 50 10.9301 48.75 10.9301 46.875V25C13.4284 24.6875 15.6144 22.5 15.6144 19.6875V9.375C15.6144 8.75 14.9899 7.8125 14.053 7.8125ZM20.2988 9.375V28.125H23.4217V46.875C23.4217 48.75 24.6708 50 26.5445 50C28.4183 50 29.6674 48.75 29.6674 46.875V0C24.3585 0 20.2988 4.0625 20.2988 9.375ZM42.159 6.25C37.7869 6.25 34.3518 10.9375 34.3518 16.5625C34.0395 20.3125 35.9132 23.75 39.0361 25.9375V46.875C39.0361 48.75 40.2852 50 42.159 50C44.0327 50 45.2819 48.75 45.2819 46.875V25.9375C48.4047 23.75 50.2785 20.3125 49.9662 16.5625C49.9662 10.9375 46.531 6.25 42.159 6.25Z" fill="#342618"/>
</svg>
