<?xml version="1.0" encoding="UTF-8" standalone="no"?>
<!-- Generator: Adobe Illustrator 19.0.0, SVG Export Plug-In . SVG Version: 6.00 Build 0)  -->

<svg
   version="1.1"
   id="Capa_1"
   x="0px"
   y="0px"
   viewBox="0 0 582 681.7"
   style="enable-background:new 0 0 582 681.7;"
   xml:space="preserve"
   sodipodi:docname="no_found.svg"
   inkscape:version="1.1.1 (3bf5ae0d25, 2021-09-20)"
   xmlns:inkscape="http://www.inkscape.org/namespaces/inkscape"
   xmlns:sodipodi="http://sodipodi.sourceforge.net/DTD/sodipodi-0.dtd"
   xmlns="http://www.w3.org/2000/svg"
   xmlns:svg="http://www.w3.org/2000/svg"><defs
   id="defs81855" /><sodipodi:namedview
   id="namedview81853"
   pagecolor="#ffffff"
   bordercolor="#666666"
   borderopacity="1.0"
   inkscape:pageshadow="2"
   inkscape:pageopacity="0.0"
   inkscape:pagecheckerboard="0"
   showgrid="false"
   inkscape:zoom="1.280622"
   inkscape:cx="290.87429"
   inkscape:cy="153.44107"
   inkscape:window-width="1536"
   inkscape:window-height="793"
   inkscape:window-x="-8"
   inkscape:window-y="-8"
   inkscape:window-maximized="1"
   inkscape:current-layer="Capa_1" />
<style
   type="text/css"
   id="style81819">
	.st0{opacity:0.39;fill:#F6A23C;}
	.st1{opacity:0.51;fill:#F6A23C;}
	.st2{fill:#17385F;}
	.st3{fill:url(#XMLID_28_);}
	.st4{fill:url(#XMLID_29_);}
	.st5{fill:#F6F6F6;}
</style>
<path
   id="XMLID_336_"
   class="st0"
   d="M146.9,649c0.5-6.1,108.2-514,115.4-536.8c0.9,0.1,1.7,0.1,2.6,0.2c24.1,3.4,48.1,3.4,72.1-0.6  c9.5,28,71,509.3,80.5,537.2c0.1,0.4-18.1,29.7-143.5,29.7C156.4,678.7,148.4,648.3,146.9,649z" />
<path
   id="XMLID_335_"
   class="st1"
   d="M348.6,638.1c2.2-6.4,5.8-10,11.7-8.6c7.6,1.7,9.1,8.8,9.8,20.2c5.1-13.4,11.1-16.8,18.9-7.6  c6.6,13,16.1,11.1,28.4,6.9c-6.4,7.2-13.5,17-21.1,19.5c-17.5,5.9-35.4,9-53.5,10.9c-30.3,3.2-60.6,2.5-90.8,1.2  c-34.4-1.5-68.7-6-100.5-24.3c-1.6-0.9-3.6-3.8-4.6-7.3c14.9,1.5,28.9,1.3,42-6.9c4.2-2.8,8.7-5.1,12.6-8.4  c6.3-5.1,12.3-8.2,19.6,0.9c-0.8-9.4,2.4-14.1,8.3-15.7c7.9-2.2,13.4,2,17.6,12c1.9-8.4,3.6-15.5,10.2-18.1  c12-4.8,23.5,1.3,22.3,21.4c-0.2,1.3-0.2,2.6-0.5,3.9c-2.3,13.1-2,13.5,8.7,13.5c16.7,0,33.3,0,50,0  C348.7,651.6,348.7,651.6,348.6,638.1z" />


<g
   id="XMLID_322_">
	<linearGradient
   id="XMLID_28_"
   gradientUnits="userSpaceOnUse"
   x1="393.8241"
   y1="91.0526"
   x2="193.1922"
   y2="85.0878">
		<stop
   offset="0"
   style="stop-color:#16385E"
   id="stop81827" />
		<stop
   offset="0.5053"
   style="stop-color:#00507B"
   id="stop81829" />
		<stop
   offset="1"
   style="stop-color:#16385E"
   id="stop81831" />
	</linearGradient>
	<path
   id="XMLID_325_"
   class="st3"
   d="M336.6,125.5c-26,4.3-52.1,4.3-78.2,0.6c-0.9-0.1-1.9-0.1-2.8-0.2   c-12.8-3.2-25.5-6.7-36.9-13.6c-23.2-14-24.6-33.4-3.4-50.3c7.6-6,15.9-10.7,25.5-13c-2.5,6.9-4.5,13.9-5.1,21.3   c-0.3,3.2,0.8,4.3,3.4,5.3c38.3,14,76.6,14.7,115,0.6c4-1.5,5-3.6,4.7-7.6c-0.5-6.8-3.1-13.1-4.8-19.7c13.5,4,24.3,11.9,31.9,23.7   c7.7,11.9,6.2,22.7-4.1,32.4c-9.6,9-21.5,13.6-33.8,17.5C344.3,123.8,340.4,124.6,336.6,125.5z" />
	<radialGradient
   id="XMLID_29_"
   cx="264.9438"
   cy="2.4522"
   r="98.1155"
   gradientUnits="userSpaceOnUse">
		<stop
   offset="0"
   style="stop-color:#1D71B8"
   id="stop81835" />
		<stop
   offset="0"
   style="stop-color:#FFFFFF"
   id="stop81837" />
		<stop
   offset="0.3486"
   style="stop-color:#D4D9E7"
   id="stop81839" />
		<stop
   offset="0.5105"
   style="stop-color:#C1C8DC"
   id="stop81841" />
		<stop
   offset="1"
   style="stop-color:#8197BA"
   id="stop81843" />
	</radialGradient>
	<path
   id="XMLID_323_"
   class="st4"
   d="M355.5,50c1.7,6.7,4.3,13.2,4.9,20.2c0.3,4-0.7,6.3-4.8,7.8c-39.5,14.5-78.9,13.7-118.3-0.6   c-2.7-1-3.8-2.1-3.5-5.4c0.6-7.6,2.7-14.8,5.3-21.9c10-19.2,25.2-31.8,46.7-35.5c15.2-2.6,36.9,2.2,47.5,9.8   C342.7,31.3,349.6,40.1,355.5,50z" />
</g>
<path
   id="XMLID_340_"
   class="st5"
   d="M274.5,283.7c-4.1-1.9,0-5.3,1-6.7c3.2-4.5,2.8-2.5,8.8-16.8c0.5-1.3,1.4-3.3,3-3.7  c1.7-0.4,3.5,1.2,4.3,2c5.8,5.5,10.3,10.1,12.3,12c6.6,6.4,10,9.6,11.7,10.7c0.6,0.4,2.4,1.5,2.7,3.3c0.1,1.1-0.3,2.2-2,4.3  c-3,3.7-4.2,3.5-7.3,7c-0.4,0.4-2.3,2.7-4.3,5c-1.3,1.4-1.8,2.1-2.7,2.3c-2,0.6-4.2-0.9-5.7-2c-9.8-7.3-13.3-10.7-13.3-10.7  C278.2,285.9,275.4,284.1,274.5,283.7z" />
<path
   id="XMLID_402_"
   class="st5"
   d="M273.8,432.3c-0.7,5.5-6,1.8-7.9,1.2c-6.2-2.2-3.8-2.5-22.2-4.7c-1.7-0.2-4.2-0.5-5.2-2.3  c-1.1-1.9,0.1-4.6,0.7-5.8c4.1-8.8,7.6-15.8,9.1-18.8c4.8-10.1,7.2-15.2,7.8-17.6c0.2-0.9,0.9-3.4,2.8-4.3c1.1-0.5,2.5-0.4,5.6,0.9  c5.3,2.3,5.5,3.8,10.6,6.3c0.6,0.3,3.9,1.8,7.2,3.4c2.1,1,3,1.4,3.6,2.4c1.5,2.2,0.5,5.3-0.2,7.4c-4.6,14.2-7.2,19.5-7.2,19.5  C275.1,427.2,274,431.1,273.8,432.3z" />
<path
   id="XMLID_345_"
   class="st5"
   d="M275.8,155.8c0.2-2.7,3-1.1,4-0.8c3.2,0.9,2,1.1,11.2,1.5c0.8,0,2.1,0.1,2.7,0.9  c0.6,0.9,0,2.2-0.2,2.8c-1.9,4.4-3.6,7.9-4.2,9.4c-2.2,5-3.3,7.5-3.6,8.7c-0.1,0.4-0.4,1.7-1.3,2.2c-0.6,0.3-1.3,0.3-2.8-0.2  c-2.7-0.9-2.8-1.7-5.4-2.7c-0.3-0.1-2-0.8-3.7-1.4c-1.1-0.4-1.5-0.6-1.9-1c-0.8-1-0.3-2.6,0-3.6c2.1-7,3.3-9.7,3.3-9.7  C275.3,158.3,275.8,156.4,275.8,155.8z" />
<path
   id="XMLID_350_"
   class="st5"
   d="M311.9,136.6c0.1-0.9,1-0.3,1.3-0.3c1,0.3,0.6,0.4,3.6,0.5c0.3,0,0.7,0,0.9,0.3  c0.2,0.3,0,0.7-0.1,0.9c-0.6,1.4-1.1,2.5-1.4,3c-0.7,1.6-1.1,2.4-1.2,2.8c0,0.1-0.1,0.5-0.4,0.7c-0.2,0.1-0.4,0.1-0.9-0.1  c-0.9-0.3-0.9-0.5-1.7-0.9c-0.1,0-0.6-0.2-1.2-0.5c-0.3-0.1-0.5-0.2-0.6-0.3c-0.2-0.3-0.1-0.8,0-1.2c0.7-2.3,1.1-3.1,1.1-3.1  C311.7,137.5,311.9,136.8,311.9,136.6z" />
</svg>
