<?xml version="1.0" encoding="utf-8"?>
<!-- Generator: Adobe Illustrator 19.0.0, SVG Export Plug-In . SVG Version: 6.00 Build 0)  -->
<svg version="1.1" id="Capa_1" xmlns="http://www.w3.org/2000/svg" xmlns:xlink="http://www.w3.org/1999/xlink" x="0px" y="0px"
	 viewBox="0 0 259.3 339.8" style="enable-background:new 0 0 259.3 339.8;" xml:space="preserve">
<style type="text/css">
	.st0{fill:#F2F2F2;}
	.st1{fill:#575756;}
	.st2{fill:#BC7E2E;}
	.st3{fill:#9F6B26;}
	.st4{fill:#F6A23C;}
	.st5{fill:#342318;}
	.st6{fill:#794A32;}
	.st7{fill:#E4E4E3;}
	.st8{fill:#3D3D3B;}
	.st9{fill:#925C3D;}
	.st10{fill:#717070;}
	.st11{fill:#C68531;}
	.st12{fill:#1F4F24;}
	.st13{fill:#222046;}
	.st14{fill:#548256;}
	.st15{fill:#010202;fill-opacity:0.1;}
	.st16{fill:#010202;fill-opacity:0.4;}
</style>
<g id="XMLID_94_">
	<g id="XMLID_218_">
		<g id="Head_x2F_Front_x2F_No-Hair_4_">
			<g id="Head_5_" transform="translate(54.000000, 31.000000)">
				<g id="XMLID_237_">
					<path id="XMLID_241_" class="st0" d="M112.7-15.5c0-4.7-1.5-9-4.9-11.5c-5.3-3.9-11.4-4.6-17-2.7c-2.8,1-6.5,3.8-9.5,6.1
						c-1.1,0.9-5.3,3-6.9,4.7c-5.2,5.7-8.2,11.2-5.3,13.3c0.7,0.5,3,1.6,5.6,2.8c2.4,1,4.4,1.5,6.7,2c1.7,0.3,4.8,1.6,6,3.4
						c1.6,2.3-2.7,9.6-2.7,9.6l-5.7,10.1L96.8,29c0,0-0.6-6.4,3.6-17.8c1.7-4.6,7.1-10.6,9.3-15.6C111.8-8.9,112.7-14.3,112.7-15.5z
						"/>
					<path id="XMLID_238_" class="st1" d="M112.3-12.5c-0.2,1-0.4,2-0.7,2.9c-0.5,1.9-1.1,3.8-2,5.7c-0.8,1.8-1.9,3.5-3,5.2
						c-1.1,1.7-2.2,3.3-3.3,5c-0.5,0.8-1,1.7-1.5,2.6c-0.5,0.9-0.9,1.8-1.2,2.7c-0.3,0.9-0.7,1.9-0.9,2.8c-0.3,0.9-0.6,1.9-0.8,2.9
						c-0.3,1-0.5,1.9-0.7,2.9c-0.2,1-0.4,1.9-0.6,2.9c-0.1,1-0.3,2-0.4,2.9c-0.1,1-0.1,2-0.1,2.9l0,0.7l-0.6-0.2
						c-5.9-2.3-11.7-4.6-17.6-6.9l-0.4-0.2l0.2-0.4l3.3-5.9c1.1-2,2.3-3.9,3.3-5.9c0.5-1,1-2,1.4-3.1c0.4-1,0.7-2.1,0.8-3.2
						c0-0.3,0-0.5-0.1-0.8c0-0.1-0.1-0.2-0.1-0.3c0-0.1-0.1-0.1-0.1-0.2c0,0,0-0.1,0-0.1l-0.1-0.1c-0.3-0.4-0.7-0.8-1.2-1.1
						c-0.9-0.7-1.9-1.2-2.9-1.6c-0.5-0.2-1-0.4-1.6-0.5L80-1.1c-1.1-0.2-2.2-0.5-3.3-0.9c-1.1-0.4-2.1-0.8-3.1-1.3
						c-1-0.5-2.1-0.9-3.1-1.4C70-5,69.5-5.3,69-5.6c-0.5-0.4-0.8-0.9-1-1.4c-0.3-1.2,0-2.3,0.4-3.4c0.4-1.1,0.9-2.1,1.6-3
						c0.6-1,1.3-1.9,2-2.8c0.7-0.9,1.4-1.8,2.2-2.6c0.8-0.9,1.7-1.6,2.6-2.2c0.9-0.6,1.9-1.2,2.9-1.8c0.5-0.3,1-0.6,1.4-0.9l1.3-1
						c1.8-1.4,3.6-2.7,5.6-3.9c2-1.2,4.2-1.9,6.5-2.1c1.1-0.2,2.3-0.2,3.4-0.1c1.1,0.1,2.3,0.3,3.4,0.6c2.2,0.6,4.3,1.6,6.1,2.9
						c1.9,1.3,3.3,3.2,4.1,5.3c0.9,2.1,1.2,4.4,1.2,6.6C112.7-14.5,112.5-13.5,112.3-12.5z M111.4-22.1c-0.8-2.1-2.3-3.9-4.2-5.1
						c-1.8-1.3-3.9-2.2-6.1-2.7c-2.2-0.5-4.4-0.6-6.6-0.3c-2.2,0.3-4.3,1-6.2,2.1c-1.9,1.1-3.7,2.5-5.5,3.8l-1.4,1
						c-0.5,0.3-1,0.6-1.5,0.9c-1,0.6-1.9,1.1-2.9,1.7c-0.9,0.6-1.9,1.2-2.6,2.1c-0.8,0.8-1.5,1.7-2.2,2.5c-0.7,0.9-1.4,1.8-2,2.7
						c-0.6,0.9-1.2,1.9-1.6,2.9c-0.4,1-0.7,2.1-0.4,3.2c0.2,0.5,0.4,1,0.9,1.3c0.4,0.3,0.9,0.6,1.4,0.8c1,0.5,2,1,3,1.5
						c1,0.5,2.1,0.9,3.1,1.3c1.1,0.4,2.1,0.6,3.2,0.9c1.1,0.2,2.2,0.4,3.3,0.8c1.1,0.4,2.1,0.9,3,1.6c0.5,0.3,0.9,0.7,1.3,1.2
						l0.1,0.1c0,0.1,0,0.1,0.1,0.1c0,0.1,0.1,0.1,0.1,0.2C87.9,2.8,88,2.9,88,3.1c0.1,0.3,0.1,0.6,0.1,0.9c0,1.2-0.4,2.3-0.7,3.4
						C87,8.4,86.5,9.5,86,10.5c-1,2-2.2,4-3.2,6l-3.3,5.9l-0.2-0.5c5.9,2.3,11.8,4.5,17.6,6.8L96.4,29c-0.1-1.1,0-2.1,0.1-3.1
						c0.1-1,0.2-2,0.4-3c0.2-1,0.4-2,0.6-3c0.2-1,0.5-2,0.7-2.9c0.5-1.9,1.2-3.8,1.9-5.7c0.4-0.9,0.8-1.9,1.3-2.8
						c0.5-0.9,1-1.7,1.6-2.6c1.1-1.7,2.3-3.3,3.4-4.9c1.1-1.6,2.2-3.3,3.1-5.1c0.9-1.8,1.5-3.7,2.1-5.6c0.3-1,0.5-1.9,0.7-2.9
						c0.2-1,0.4-2,0.4-3C112.7-17.7,112.3-20,111.4-22.1z"/>
				</g>
			</g>
		</g>
		<g id="XMLID_226_">
			<g id="XMLID_232_">
				<path id="XMLID_236_" class="st2" d="M131.7,29.2c0,0-3-1.1-5.7-2.3c-2.5-1.1-11.4-3.4-13-3.5s-3.2-1.7,0.4-1.7
					c4,0,5.4,0.4,6.3,0.6c0.9,0.2,4.7,1,4.7,1s3.7,0.4,4.3,0.8S131.7,29.2,131.7,29.2z"/>
				<path id="XMLID_233_" class="st3" d="M130.4,27c-0.4-0.7-0.9-1.5-1.4-2.2l-0.2-0.2c-0.1-0.1-0.1-0.1-0.2-0.2
					c-0.1-0.1-0.3-0.1-0.5-0.2c-0.4-0.1-0.8-0.2-1.2-0.2c-0.8-0.1-1.7-0.2-2.5-0.3l0,0l0,0c-1.4-0.3-2.9-0.6-4.3-0.9
					c-0.7-0.2-1.4-0.3-2.1-0.4c-0.7-0.1-1.4-0.2-2.2-0.2c-0.7-0.1-1.5-0.1-2.2-0.1c-0.4,0-0.7,0-1.1,0c-0.3,0-0.7,0.1-0.9,0.2
					c-0.1,0.1-0.1,0.1-0.1,0.3c0.1,0.1,0.2,0.2,0.3,0.3c0.3,0.2,0.6,0.3,1,0.4c0.7,0.1,1.5,0.2,2.2,0.4c2.9,0.6,5.8,1.1,8.6,2
					c0.7,0.2,1.4,0.5,2.1,0.7c0.7,0.3,1.4,0.6,2,0.9c1.3,0.6,2.6,1.2,3.9,1.8L130.4,27z M131.8,29.2L131.8,29.2
					c-1.5-0.5-2.9-0.9-4.3-1.4c-0.7-0.2-1.4-0.5-2.1-0.8c-0.7-0.2-1.4-0.5-2.1-0.7c-1.4-0.4-2.8-0.8-4.2-1.3
					c-1.4-0.4-2.8-0.9-4.3-1.2c-0.7-0.2-1.4-0.3-2.2-0.4c-0.4-0.1-0.7-0.2-1.1-0.4c-0.2-0.1-0.3-0.2-0.5-0.4
					c-0.1-0.1-0.1-0.2-0.1-0.4c0-0.2,0.1-0.3,0.2-0.3c0.4-0.3,0.8-0.3,1.1-0.4c0.4-0.1,0.8-0.1,1.1-0.1c0.7,0,1.5,0,2.2,0
					c0.7,0,1.5,0.1,2.2,0.1c0.7,0.1,1.5,0.2,2.2,0.4c1.4,0.3,2.9,0.6,4.3,0.9l0,0c0.9,0.1,1.7,0.2,2.6,0.4c0.4,0.1,0.9,0.2,1.3,0.3
					c0.2,0.1,0.4,0.1,0.7,0.3c0.1,0.1,0.2,0.2,0.3,0.3l0.2,0.3c0.5,0.8,0.8,1.5,1.2,2.3C131.1,27.6,131.4,28.4,131.8,29.2
					L131.8,29.2z"/>
			</g>
			<g id="XMLID_227_">
				<path id="XMLID_231_" class="st4" d="M132,9.5c0,0,0.2,2.3-1.2,4.9c-1.4,2.5-2.6,5.2-2.7,6.1c-0.1,1.3,0.5,3.2,0.5,3.2l-4.8-0.7
					c0,0-10.1-1.3-12.1-1.3c-0.7,0-1.3-0.2-2.1-0.8c-0.7-0.6,0.5-2.2,0.7-2.2c0.2-0.1,4.7-1.5,10.1-3.7C126,12.6,132,9.5,132,9.5z"
					/>
				<path id="XMLID_228_" class="st2" d="M121.9,14.7c-1.7,0.8-3.5,1.5-5.3,2.2c-1.8,0.7-3.6,1.3-5.4,1.9l-0.7,0.2l0,0c0,0,0,0,0,0
					c0,0,0,0,0,0c0,0-0.1,0.1-0.1,0.1c-0.1,0.1-0.1,0.2-0.2,0.2c-0.3,0.3-0.5,0.8-0.5,1.1c0,0.1,0,0.1,0,0.1c0,0,0.1,0.1,0.1,0.1
					c0,0,0.1,0.1,0.1,0.1c0.2,0.1,0.3,0.3,0.5,0.4c0.4,0.2,0.8,0.3,1.2,0.3c1,0,1.9,0.2,2.9,0.3l2.8,0.4c0.9,0.1,1.9,0.3,2.8,0.3
					l2.8,0.3c1.9,0.2,3.8,0.4,5.6,0.6l-0.4,0.4c-0.2-0.6-0.3-1.2-0.5-1.9c-0.1-0.3-0.1-0.6-0.1-1c0-0.2,0-0.3,0-0.5
					c0-0.2,0.1-0.4,0.1-0.5c0.2-0.6,0.4-1.2,0.7-1.8c0.3-0.6,0.5-1.1,0.8-1.7c0.3-0.6,0.6-1.1,0.9-1.7c0.3-0.5,0.6-1.1,0.8-1.6
					c0.5-1.1,0.8-2.3,0.8-3.5C128.7,11.4,125.4,13.1,121.9,14.7z M132.1,9.5c0.1,0.6,0,1.3-0.1,1.9c-0.1,0.6-0.2,1.2-0.5,1.8
					c-0.2,0.6-0.5,1.2-0.8,1.7l-0.8,1.7c-0.3,0.6-0.5,1.1-0.8,1.7c-0.2,0.6-0.5,1.1-0.6,1.7c0,0.1-0.1,0.3-0.1,0.4
					c0,0.1,0,0.3,0,0.4c0,0.3,0,0.6,0.1,0.9c0.1,0.6,0.2,1.2,0.4,1.8l0.1,0.5l-0.5-0.1l-5.6-0.9l-2.8-0.4c-0.9-0.1-1.9-0.2-2.8-0.3
					c-0.9-0.1-1.9-0.2-2.8-0.3c-0.9-0.1-1.9-0.1-2.8-0.1c-0.5,0-1.1,0-1.5-0.3c-0.2-0.1-0.4-0.3-0.6-0.4c-0.1-0.1-0.1,0-0.2-0.1
					c0,0-0.1-0.1-0.1-0.1c-0.1-0.2-0.2-0.4-0.2-0.5c0-0.7,0.3-1.1,0.6-1.5c0.1-0.1,0.2-0.2,0.2-0.3c0-0.1,0.1-0.1,0.1-0.2
					c0,0,0,0,0.1-0.1c0,0,0.1,0,0.1-0.1l0,0L111,18c1.8-0.6,3.6-1.3,5.3-1.9c0.9-0.3,1.8-0.7,2.6-1l2.6-1.1c1.7-0.7,3.5-1.5,5.2-2.2
					L132.1,9.5L132.1,9.5z"/>
			</g>
		</g>
		<g id="XMLID_221_">
			<path id="XMLID_225_" class="st5" d="M145.6,11.8c0,0-2.2-2-3.4-1.9s-2.3,0.8-2.4,1.7c-0.1,0.7,0.3,2.4,2,2
				S145.6,11.8,145.6,11.8z"/>
			<path id="XMLID_222_" class="st5" d="M140.2,13.6c-0.7-0.6-0.8-1.6-0.8-2.1c0.1-1,1.3-1.9,2.8-2c1.3-0.1,3.4,1.8,3.6,2l0.4,0.3
				l-0.4,0.3c-0.1,0.1-2.1,1.4-3.9,1.8c-0.5,0.1-0.9,0.1-1.2-0.1C140.5,13.8,140.3,13.7,140.2,13.6z M142.2,10.3
				c-1.1,0.1-2,0.7-2,1.3c0,0.4,0.1,1.1,0.5,1.4c0.3,0.2,0.6,0.3,1,0.2c1.1-0.3,2.5-1,3.2-1.4C144.1,11.1,142.9,10.3,142.2,10.3z"/>
		</g>
		<path id="XMLID_219_" class="st5" d="M129.1,13c0,0-1.3,0.6-1.8,0.8c-0.5,0.2-1.3,0.1-1.2,0.4c0.1,0.2,0.6,0.7,1.3,0.3
			C128,14.2,129.1,13,129.1,13z"/>
	</g>
	<g id="humaaans_x2F_standing-4_3_">
		<g id="humaaan-9_3_" transform="translate(33.000000, 20.000000)">
			<g id="Bottom_x2F_Standing_x2F_Jogging_3_" transform="translate(0.000000, 203.717748)">
				<polygon id="Leg_7_" class="st6" points="119.4,-80.1 58.4,21.9 12.7,108.1 2.8,108.1 79.4,-80.1 				"/>
				<g id="Accessories_x2F_Shoe_x2F_Flat-Sneaker_9_" transform="translate(260.723886, 207.536214)">
					<path id="shoe_9_" class="st7" d="M-242-103.4c0.9,2.5,1.4,4.3,1.4,5.5c0,1.5-0.2,3.6-0.7,6.5c-1.7,0-17.2,0-46.3,0
						c-1.2-4-0.5-6.1,2.1-6.4c2.6-0.3,4.7-0.6,6.5-0.9l21.5-9.6c0.4-0.2,0.9,0,1.1,0.4c0,0,0,0,0,0l1.4,3.4c2.4,1.1,4.4,1.7,5.9,1.7
						c1.2,0,2.9-0.5,5.1-1.5v0c0.8-0.4,1.8,0,2.2,0.8C-242.1-103.5-242-103.4-242-103.4z"/>
				</g>
				<path id="Pant_7_" class="st8" d="M25.4,94.3l-19-5.7C14.7,63.7,24.9,36.3,37,6.4S62-52.3,75.9-80.1h53.7
					C114.1-45,97.8-13,80.5,15.7S44.9,70.6,25.4,94.3z"/>
				<path id="Leg_6_" class="st9" d="M123.4-80.1c5.8,35.8,16.9,81.6,17.9,83c0.7,0.9,25.9,9.4,75.5,25.3l-2.1,8.7
					c-59.2-8.5-90.3-15.2-93.5-19.9c-4.8-7.1-28.6-62.9-37.9-97.2H123.4z"/>
				<path id="Pant_6_" class="st10" d="M199.4,20.7l-3.7,14c-44.2,3.9-71.4,1.1-81.3-8.4s-21.3-45-34.1-106.4h51.2
					c8.1,50.3,12.6,76.5,13.6,78.6C145.8,0.6,164,8,199.4,20.7z"/>
				
					<g id="Accessories_x2F_Shoe_x2F_Flat-Sneaker_8_" transform="translate(25.550941, 160.605914) rotate(80.000000) translate(-25.550941, -160.605914) translate(-6.257373, 139.748003)">
					<path id="shoe_8_" class="st7" d="M-69.3-188.7c0-2.6,0.2-4.5,0.6-5.6c0.5-1.4,1.5-3.3,2.9-5.8c1.6,0.6,16.1,5.9,43.5,15.8
						c-0.2,4.1-1.6,5.9-4.2,5.3c-2.5-0.6-4.7-1.1-6.4-1.4l-23.5,1.7c-0.5,0-0.8-0.3-0.9-0.8c0,0,0,0,0,0l-0.2-3.6
						c-1.9-1.9-3.5-3.1-4.9-3.6c-1.1-0.4-2.9-0.5-5.3-0.3l0,0c-0.9,0.1-1.7-0.6-1.8-1.5C-69.3-188.6-69.3-188.7-69.3-188.7z"/>
				</g>
			</g>
		</g>
	</g>
	<g id="XMLID_96_">
		
			<g id="Body_x2F_Trench-Coat_7_" transform="translate(157.291764, 189.723885) rotate(10.000000) translate(-157.291764, -189.723885) translate(23.922792, 92.208568)">
			<path id="Skin_10_" class="st11" d="M51.7,54.1L26.3,68.3C19.9,78,16.1,82.2,15,80.8c-1.6-2,1.1-4.3,0.2-5.9
				c-0.9-1.5-5.9-0.8-10.7,0.2c-4.8,0.9-3.6-1.3-2.6-2.5c4.6-3.5,10.4-6.7,17.4-9.5L44,40.2L51.7,54.1z M66.1-25.3L70-10.7
				c-38.6-0.9-59.1-1.5-61.4-1.7C3.4-13-2.7-7.1-6.1-4.3c-4-4.9,5.4-6.8,0.2-12.9c-4.8-5.6-11.5-8.9-9-17.6c0.3-1.1,2.2-2.6,4.5-0.7
				c5.8,4.9,15.4,11.5,18.1,12C11.5-22.8,30.9-23.4,66.1-25.3z"/>
			<path id="Back-Arm_7_" class="st12" d="M38,43.1c-3.5,0.2-7.2,1.2-11.1,3c-1.9,0.9-2.7,3.2-1.8,5.1c0.5,1.1,1.5,1.8,2.6,2.1
				c-0.7,0.7-1.4,1.3-2.1,2l8.5,13c26.9-17.6,52.5-31.5,62-56.4c3.2-8.3-1.4-34.8-2.2-44.6l-9.5-2.6C74.8-8,60.8,18.8,38,43.1z"/>
			<path id="Shirt_9_" class="st13" d="M136.4,53.5c-26.2,6.1-47.1,8.6-62.7,7.6c-1.9-0.1-2.8-8.2-2.2-10.5
				C81,14.5,86.9-11.7,84-35.6c2.7,1,7.1,0.7,13.2-1C117-14.1,128.2,13.2,136.4,53.5z"/>
			<path id="Coat-Front_13_" class="st14" d="M143.8,53.5c-3-10.3-6.1-25.1-7.4-35.1c-5.3-18.4-11.6-33.4-13-35.4
				c-1.9-2.4-9.2-13.9-19.5-22.4l-4.6,0.6l-5,0.6C101.5-1.5,72.1,84.3,94,151.9c25.7,2.5,59.5-19.1,96-9.5
				C185.4,114.6,146.9,65.2,143.8,53.5z"/>
			<polygon id="Shade-Lapel_7_" class="st15" points="98.3,-37.2 101.1,-24.8 96.8,-13.8 101.3,-7.3 92.4,27.4 103.6,-7.8 
				99.2,-14.4 103,-24.2 			"/>
			<path id="Buttons_7_" class="st16" d="M95.5,36.4c-0.1-1.8,0.9-3.6,2.2-3.8s2.6,1,2.7,2.9c0.1,1.8-0.9,3.6-2.2,3.8
				C96.9,39.5,95.6,38.2,95.5,36.4z M93.8,56.2c-0.1-1.8,0.9-3.6,2.2-3.8c1.4-0.3,2.6,1,2.7,2.9c0.1,1.8-0.9,3.6-2.2,3.8
				C95.2,59.3,93.9,58,93.8,56.2z M94.6,75.5c-0.1-1.8,0.9-3.6,2.2-3.8c1.4-0.3,2.6,1,2.7,2.9c0.1,1.8-0.9,3.6-2.2,3.8
				C95.9,78.7,94.7,77.4,94.6,75.5z"/>
		</g>
		<g id="Body_x2F_Pointing-Up_4_">
			<path id="Coat-Front_12_" class="st14" d="M139.7,53.4c4.3,0,7.6,0,9.7,0c2.5,0,6,0.5,6.5,1.5c8.9,10.3,31.8,41.2-26.9,35.9
				c-21.4-3-48.2-11.9-73.7-28.1l3.3-16.5C92.4,56.8,121.7,53.6,139.7,53.4C139.7,53.4,139.7,53.4,139.7,53.4z"/>
		</g>
	</g>
</g>
</svg>
