<?xml version="1.0" encoding="utf-8"?>
<!-- Generator: Adobe Illustrator 19.0.0, SVG Export Plug-In . SVG Version: 6.00 Build 0)  -->
<svg version="1.1" id="Capa_1" xmlns="http://www.w3.org/2000/svg" xmlns:xlink="http://www.w3.org/1999/xlink" x="0px" y="0px"
	 viewBox="-167 251.1 259.3 339.8" style="enable-background:new -167 251.1 259.3 339.8;" xml:space="preserve">
<style type="text/css">
	.st0{fill:#F2F2F2;}
	.st1{fill:#575756;}
	.st2{fill:#BC7E2E;}
	.st3{fill:#9F6B26;}
	.st4{fill:#F6A23C;}
	.st5{fill:#342318;}
	.st6{fill:#794A32;}
	.st7{fill:#12141E;}
	.st8{fill:#3D3D3B;}
	.st9{fill:#925C3D;}
	.st10{fill:#717070;}
	.st11{fill:#C68531;}
	.st12{fill:#1F4F24;}
	.st13{fill:#222046;}
	.st14{fill:#548256;}
	.st15{fill:#010202;fill-opacity:0.1;}
	.st16{fill:#010202;fill-opacity:0.4;}
</style>
<g id="XMLID_94_">
	<g id="XMLID_218_">
		<g id="Head_x2F_Front_x2F_No-Hair_4_">
			<g id="Head_5_" transform="translate(54.000000, 31.000000)">
				<g id="XMLID_237_">
					<path id="XMLID_241_" class="st0" d="M-54.3,235.6c0-4.7-1.5-9-4.9-11.5c-5.3-3.9-11.4-4.6-17-2.7c-2.8,1-6.5,3.8-9.5,6.1
						c-1.1,0.9-5.3,3-6.9,4.7c-5.2,5.7-8.2,11.2-5.3,13.3c0.7,0.5,3,1.6,5.6,2.8c2.4,1,4.4,1.5,6.7,2c1.7,0.3,4.8,1.6,6,3.4
						c1.6,2.3-2.7,9.6-2.7,9.6l-5.7,10.1l17.8,6.7c0,0-0.6-6.4,3.6-17.8c1.7-4.6,7.1-10.6,9.3-15.6
						C-55.2,242.2-54.3,236.8-54.3,235.6z"/>
					<path id="XMLID_238_" class="st1" d="M-54.7,238.6c-0.2,1-0.4,2-0.7,2.9c-0.5,1.9-1.1,3.8-2,5.7c-0.8,1.8-1.9,3.5-3,5.2
						s-2.2,3.3-3.3,5c-0.5,0.8-1,1.7-1.5,2.6c-0.5,0.9-0.9,1.8-1.2,2.7c-0.3,0.9-0.7,1.9-0.9,2.8c-0.3,0.9-0.6,1.9-0.8,2.9
						c-0.3,1-0.5,1.9-0.7,2.9s-0.4,1.9-0.6,2.9c-0.1,1-0.3,2-0.4,2.9c-0.1,1-0.1,2-0.1,2.9v0.7l-0.6-0.2c-5.9-2.3-11.7-4.6-17.6-6.9
						l-0.4-0.2l0.2-0.4l3.3-5.9c1.1-2,2.3-3.9,3.3-5.9c0.5-1,1-2,1.4-3.1c0.4-1,0.7-2.1,0.8-3.2c0-0.3,0-0.5-0.1-0.8
						c0-0.1-0.1-0.2-0.1-0.3c0-0.1-0.1-0.1-0.1-0.2v-0.1l-0.1-0.1c-0.3-0.4-0.7-0.8-1.2-1.1c-0.9-0.7-1.9-1.2-2.9-1.6
						c-0.5-0.2-1-0.4-1.6-0.5L-87,250c-1.1-0.2-2.2-0.5-3.3-0.9c-1.1-0.4-2.1-0.8-3.1-1.3s-2.1-0.9-3.1-1.4c-0.5-0.3-1-0.6-1.5-0.9
						c-0.5-0.4-0.8-0.9-1-1.4c-0.3-1.2,0-2.3,0.4-3.4c0.4-1.1,0.9-2.1,1.6-3c0.6-1,1.3-1.9,2-2.8s1.4-1.8,2.2-2.6
						c0.8-0.9,1.7-1.6,2.6-2.2s1.9-1.2,2.9-1.8c0.5-0.3,1-0.6,1.4-0.9l1.3-1c1.8-1.4,3.6-2.7,5.6-3.9c2-1.2,4.2-1.9,6.5-2.1
						c1.1-0.2,2.3-0.2,3.4-0.1c1.1,0.1,2.3,0.3,3.4,0.6c2.2,0.6,4.3,1.6,6.1,2.9c1.9,1.3,3.3,3.2,4.1,5.3c0.9,2.1,1.2,4.4,1.2,6.6
						C-54.3,236.6-54.5,237.6-54.7,238.6z M-55.6,229c-0.8-2.1-2.3-3.9-4.2-5.1c-1.8-1.3-3.9-2.2-6.1-2.7s-4.4-0.6-6.6-0.3
						s-4.3,1-6.2,2.1c-1.9,1.1-3.7,2.5-5.5,3.8l-1.4,1c-0.5,0.3-1,0.6-1.5,0.9c-1,0.6-1.9,1.1-2.9,1.7c-0.9,0.6-1.9,1.2-2.6,2.1
						c-0.8,0.8-1.5,1.7-2.2,2.5c-0.7,0.9-1.4,1.8-2,2.7c-0.6,0.9-1.2,1.9-1.6,2.9s-0.7,2.1-0.4,3.2c0.2,0.5,0.4,1,0.9,1.3
						c0.4,0.3,0.9,0.6,1.4,0.8c1,0.5,2,1,3,1.5s2.1,0.9,3.1,1.3c1.1,0.4,2.1,0.6,3.2,0.9c1.1,0.2,2.2,0.4,3.3,0.8
						c1.1,0.4,2.1,0.9,3,1.6c0.5,0.3,0.9,0.7,1.3,1.2l0.1,0.1c0,0.1,0,0.1,0.1,0.1c0,0.1,0.1,0.1,0.1,0.2c0.2,0.3,0.3,0.4,0.3,0.6
						c0.1,0.3,0.1,0.6,0.1,0.9c0,1.2-0.4,2.3-0.7,3.4c-0.4,1-0.9,2.1-1.4,3.1c-1,2-2.2,4-3.2,6l-3.3,5.9l-0.2-0.5
						c5.9,2.3,11.8,4.5,17.6,6.8l-0.5,0.3c-0.1-1.1,0-2.1,0.1-3.1s0.2-2,0.4-3c0.2-1,0.4-2,0.6-3s0.5-2,0.7-2.9
						c0.5-1.9,1.2-3.8,1.9-5.7c0.4-0.9,0.8-1.9,1.3-2.8c0.5-0.9,1-1.7,1.6-2.6c1.1-1.7,2.3-3.3,3.4-4.9s2.2-3.3,3.1-5.1
						c0.9-1.8,1.5-3.7,2.1-5.6c0.3-1,0.5-1.9,0.7-2.9s0.4-2,0.4-3C-54.3,233.4-54.7,231.1-55.6,229z"/>
				</g>
			</g>
		</g>
		<g id="XMLID_226_">
			<g id="XMLID_232_">
				<path id="XMLID_236_" class="st2" d="M-35.3,280.3c0,0-3-1.1-5.7-2.3c-2.5-1.1-11.4-3.4-13-3.5s-3.2-1.7,0.4-1.7
					c4,0,5.4,0.4,6.3,0.6s4.7,1,4.7,1s3.7,0.4,4.3,0.8C-37.7,275.6-35.3,280.3-35.3,280.3z"/>
				<path id="XMLID_233_" class="st3" d="M-36.6,278.1c-0.4-0.7-0.9-1.5-1.4-2.2l-0.2-0.2c-0.1-0.1-0.1-0.1-0.2-0.2
					c-0.1-0.1-0.3-0.1-0.5-0.2c-0.4-0.1-0.8-0.2-1.2-0.2c-0.8-0.1-1.7-0.2-2.5-0.3l0,0l0,0c-1.4-0.3-2.9-0.6-4.3-0.9
					c-0.7-0.2-1.4-0.3-2.1-0.4c-0.7-0.1-1.4-0.2-2.2-0.2c-0.7-0.1-1.5-0.1-2.2-0.1c-0.4,0-0.7,0-1.1,0c-0.3,0-0.7,0.1-0.9,0.2
					c-0.1,0.1-0.1,0.1-0.1,0.3c0.1,0.1,0.2,0.2,0.3,0.3c0.3,0.2,0.6,0.3,1,0.4c0.7,0.1,1.5,0.2,2.2,0.4c2.9,0.6,5.8,1.1,8.6,2
					c0.7,0.2,1.4,0.5,2.1,0.7c0.7,0.3,1.4,0.6,2,0.9c1.3,0.6,2.6,1.2,3.9,1.8L-36.6,278.1z M-35.2,280.3L-35.2,280.3
					c-1.5-0.5-2.9-0.9-4.3-1.4c-0.7-0.2-1.4-0.5-2.1-0.8c-0.7-0.2-1.4-0.5-2.1-0.7c-1.4-0.4-2.8-0.8-4.2-1.3
					c-1.4-0.4-2.8-0.9-4.3-1.2c-0.7-0.2-1.4-0.3-2.2-0.4c-0.4-0.1-0.7-0.2-1.1-0.4c-0.2-0.1-0.3-0.2-0.5-0.4
					c-0.1-0.1-0.1-0.2-0.1-0.4c0-0.2,0.1-0.3,0.2-0.3c0.4-0.3,0.8-0.3,1.1-0.4c0.4-0.1,0.8-0.1,1.1-0.1c0.7,0,1.5,0,2.2,0
					s1.5,0.1,2.2,0.1c0.7,0.1,1.5,0.2,2.2,0.4c1.4,0.3,2.9,0.6,4.3,0.9l0,0c0.9,0.1,1.7,0.2,2.6,0.4c0.4,0.1,0.9,0.2,1.3,0.3
					c0.2,0.1,0.4,0.1,0.7,0.3c0.1,0.1,0.2,0.2,0.3,0.3l0.2,0.3c0.5,0.8,0.8,1.5,1.2,2.3C-35.9,278.7-35.6,279.5-35.2,280.3
					L-35.2,280.3z"/>
			</g>
			<g id="XMLID_227_">
				<path id="XMLID_231_" class="st4" d="M-35,260.6c0,0,0.2,2.3-1.2,4.9c-1.4,2.5-2.6,5.2-2.7,6.1c-0.1,1.3,0.5,3.2,0.5,3.2
					l-4.8-0.7c0,0-10.1-1.3-12.1-1.3c-0.7,0-1.3-0.2-2.1-0.8c-0.7-0.6,0.5-2.2,0.7-2.2c0.2-0.1,4.7-1.5,10.1-3.7
					C-41,263.7-35,260.6-35,260.6z"/>
				<path id="XMLID_228_" class="st2" d="M-45.1,265.8c-1.7,0.8-3.5,1.5-5.3,2.2c-1.8,0.7-3.6,1.3-5.4,1.9l-0.7,0.2l0,0l0,0l0,0
					l-0.1,0.1c-0.1,0.1-0.1,0.2-0.2,0.2c-0.3,0.3-0.5,0.8-0.5,1.1c0,0.1,0,0.1,0,0.1l0.1,0.1l0.1,0.1c0.2,0.1,0.3,0.3,0.5,0.4
					c0.4,0.2,0.8,0.3,1.2,0.3c1,0,1.9,0.2,2.9,0.3l2.8,0.4c0.9,0.1,1.9,0.3,2.8,0.3l2.8,0.3c1.9,0.2,3.8,0.4,5.6,0.6l-0.4,0.4
					c-0.2-0.6-0.3-1.2-0.5-1.9c-0.1-0.3-0.1-0.6-0.1-1c0-0.2,0-0.3,0-0.5s0.1-0.4,0.1-0.5c0.2-0.6,0.4-1.2,0.7-1.8
					c0.3-0.6,0.5-1.1,0.8-1.7s0.6-1.1,0.9-1.7c0.3-0.5,0.6-1.1,0.8-1.6c0.5-1.1,0.8-2.3,0.8-3.5C-38.3,262.5-41.6,264.2-45.1,265.8z
					 M-34.9,260.6c0.1,0.6,0,1.3-0.1,1.9s-0.2,1.2-0.5,1.8c-0.2,0.6-0.5,1.2-0.8,1.7l-0.8,1.7c-0.3,0.6-0.5,1.1-0.8,1.7
					c-0.2,0.6-0.5,1.1-0.6,1.7c0,0.1-0.1,0.3-0.1,0.4s0,0.3,0,0.4c0,0.3,0,0.6,0.1,0.9c0.1,0.6,0.2,1.2,0.4,1.8l0.1,0.5l-0.5-0.1
					l-5.6-0.9l-2.8-0.4c-0.9-0.1-1.9-0.2-2.8-0.3s-1.9-0.2-2.8-0.3c-0.9-0.1-1.9-0.1-2.8-0.1c-0.5,0-1.1,0-1.5-0.3
					c-0.2-0.1-0.4-0.3-0.6-0.4c-0.1-0.1-0.1,0-0.2-0.1l-0.1-0.1c-0.1-0.2-0.2-0.4-0.2-0.5c0-0.7,0.3-1.1,0.6-1.5
					c0.1-0.1,0.2-0.2,0.2-0.3s0.1-0.1,0.1-0.2c0,0,0,0,0.1-0.1c0,0,0.1,0,0.1-0.1l0,0l0.8-0.3c1.8-0.6,3.6-1.3,5.3-1.9
					c0.9-0.3,1.8-0.7,2.6-1l2.6-1.1c1.7-0.7,3.5-1.5,5.2-2.2L-34.9,260.6L-34.9,260.6z"/>
			</g>
		</g>
		<g id="XMLID_221_">
			<path id="XMLID_225_" class="st5" d="M-21.4,262.9c0,0-2.2-2-3.4-1.9s-2.3,0.8-2.4,1.7c-0.1,0.7,0.3,2.4,2,2
				C-23.5,264.3-21.4,262.9-21.4,262.9z"/>
			<path id="XMLID_222_" class="st5" d="M-26.8,264.7c-0.7-0.6-0.8-1.6-0.8-2.1c0.1-1,1.3-1.9,2.8-2c1.3-0.1,3.4,1.8,3.6,2l0.4,0.3
				l-0.4,0.3c-0.1,0.1-2.1,1.4-3.9,1.8c-0.5,0.1-0.9,0.1-1.2-0.1C-26.5,264.9-26.7,264.8-26.8,264.7z M-24.8,261.4
				c-1.1,0.1-2,0.7-2,1.3c0,0.4,0.1,1.1,0.5,1.4c0.3,0.2,0.6,0.3,1,0.2c1.1-0.3,2.5-1,3.2-1.4C-22.9,262.2-24.1,261.4-24.8,261.4z"
				/>
		</g>
		<path id="XMLID_219_" class="st5" d="M-37.9,264.1c0,0-1.3,0.6-1.8,0.8s-1.3,0.1-1.2,0.4c0.1,0.2,0.6,0.7,1.3,0.3
			C-39,265.3-37.9,264.1-37.9,264.1z"/>
	</g>
	<g id="humaaans_x2F_standing-4_3_">
		<g id="humaaan-9_3_" transform="translate(33.000000, 20.000000)">
			<g id="Bottom_x2F_Standing_x2F_Jogging_3_" transform="translate(0.000000, 203.717748)">
				<polygon id="Leg_7_" class="st6" points="-47.6,171 -108.6,273 -154.3,359.2 -164.2,359.2 -87.6,171 				"/>
				<g id="Accessories_x2F_Shoe_x2F_Flat-Sneaker_9_" transform="translate(260.723886, 207.536214)">
					<path id="shoe_9_" class="st7" d="M-409,147.7c0.9,2.5,1.4,4.3,1.4,5.5c0,1.5-0.2,3.6-0.7,6.5c-1.7,0-17.2,0-46.3,0
						c-1.2-4-0.5-6.1,2.1-6.4s4.7-0.6,6.5-0.9l21.5-9.6c0.4-0.2,0.9,0,1.1,0.4l0,0l1.4,3.4c2.4,1.1,4.4,1.7,5.9,1.7
						c1.2,0,2.9-0.5,5.1-1.5l0,0c0.8-0.4,1.8,0,2.2,0.8C-409.1,147.6-409,147.7-409,147.7z"/>
				</g>
				<path id="Pant_7_" class="st8" d="M-141.6,345.4l-19-5.7c8.3-24.9,18.5-52.3,30.6-82.2s25-58.7,38.9-86.5h53.7
					c-15.5,35.1-31.8,67.1-49.1,95.8S-122.1,321.7-141.6,345.4z"/>
				<path id="Leg_6_" class="st9" d="M-43.6,171c5.8,35.8,16.9,81.6,17.9,83c0.7,0.9,25.9,9.4,75.5,25.3l-2.1,8.7
					c-59.2-8.5-90.3-15.2-93.5-19.9c-4.8-7.1-28.6-62.9-37.9-97.2h40.1V171z"/>
				<path id="Pant_6_" class="st10" d="M32.4,271.8l-3.7,14c-44.2,3.9-71.4,1.1-81.3-8.4s-21.3-45-34.1-106.4h51.2
					c8.1,50.3,12.6,76.5,13.6,78.6C-21.2,251.7-3,259.1,32.4,271.8z"/>
				
					<g id="Accessories_x2F_Shoe_x2F_Flat-Sneaker_8_" transform="translate(25.550941, 160.605914) rotate(80.000000) translate(-25.550941, -160.605914) translate(-6.257373, 139.748003)">
					<path id="shoe_8_" class="st7" d="M149,19.4c0-2.6,0.2-4.5,0.6-5.6c0.5-1.4,1.5-3.3,2.9-5.8c1.6,0.6,16.1,5.9,43.5,15.8
						c-0.2,4.1-1.6,5.9-4.2,5.3c-2.5-0.6-4.7-1.1-6.4-1.4l-23.5,1.7c-0.5,0-0.8-0.3-0.9-0.8l0,0l-0.2-3.6c-1.9-1.9-3.5-3.1-4.9-3.6
						c-1.1-0.4-2.9-0.5-5.3-0.3l0,0c-0.9,0.1-1.7-0.6-1.8-1.5C149,19.5,149,19.4,149,19.4z"/>
				</g>
			</g>
		</g>
	</g>
	<g id="XMLID_96_">
		
			<g id="Body_x2F_Trench-Coat_7_" transform="translate(157.291764, 189.723885) rotate(10.000000) translate(-157.291764, -189.723885) translate(23.922792, 92.208568)">
			<path id="Skin_10_" class="st11" d="M-69.2,330.4l-25.4,14.2c-6.4,9.7-10.2,13.9-11.3,12.5c-1.6-2,1.1-4.3,0.2-5.9
				c-0.9-1.5-5.9-0.8-10.7,0.2c-4.8,0.9-3.6-1.3-2.6-2.5c4.6-3.5,10.4-6.7,17.4-9.5l24.7-22.9L-69.2,330.4z M-54.8,251l3.9,14.6
				c-38.6-0.9-59.1-1.5-61.4-1.7c-5.2-0.6-11.3,5.3-14.7,8.1c-4-4.9,5.4-6.8,0.2-12.9c-4.8-5.6-11.5-8.9-9-17.6
				c0.3-1.1,2.2-2.6,4.5-0.7c5.8,4.9,15.4,11.5,18.1,12C-109.4,253.5-90,252.9-54.8,251z"/>
			<path id="Back-Arm_7_" class="st12" d="M-82.9,319.4c-3.5,0.2-7.2,1.2-11.1,3c-1.9,0.9-2.7,3.2-1.8,5.1c0.5,1.1,1.5,1.8,2.6,2.1
				c-0.7,0.7-1.4,1.3-2.1,2l8.5,13c26.9-17.6,52.5-31.5,62-56.4c3.2-8.3-1.4-34.8-2.2-44.6l-9.5-2.6
				C-46.1,268.3-60.1,295.1-82.9,319.4z"/>
			<path id="Shirt_9_" class="st13" d="M15.5,329.8c-26.2,6.1-47.1,8.6-62.7,7.6c-1.9-0.1-2.8-8.2-2.2-10.5
				c9.5-36.1,15.4-62.3,12.5-86.2c2.7,1,7.1,0.7,13.2-1C-3.9,262.2,7.3,289.5,15.5,329.8z"/>
			<path id="Coat-Front_13_" class="st14" d="M22.9,329.8c-3-10.3-6.1-25.1-7.4-35.1c-5.3-18.4-11.6-33.4-13-35.4
				c-1.9-2.4-9.2-13.9-19.5-22.4l-4.6,0.6l-5,0.6c7.2,36.7-22.2,122.5-0.3,190.1c25.7,2.5,59.5-19.1,96-9.5
				C64.5,390.9,26,341.5,22.9,329.8z"/>
			<polygon id="Shade-Lapel_7_" class="st15" points="-22.6,239.1 -19.8,251.5 -24.1,262.5 -19.6,269 -28.5,303.7 -17.3,268.5 
				-21.7,261.9 -17.9,252.1 			"/>
			<path id="Buttons_7_" class="st16" d="M-25.4,312.7c-0.1-1.8,0.9-3.6,2.2-3.8c1.3-0.2,2.6,1,2.7,2.9c0.1,1.8-0.9,3.6-2.2,3.8
				C-24,315.8-25.3,314.5-25.4,312.7z M-27.1,332.5c-0.1-1.8,0.9-3.6,2.2-3.8c1.4-0.3,2.6,1,2.7,2.9c0.1,1.8-0.9,3.6-2.2,3.8
				C-25.7,335.6-27,334.3-27.1,332.5z M-26.3,351.8c-0.1-1.8,0.9-3.6,2.2-3.8c1.4-0.3,2.6,1,2.7,2.9c0.1,1.8-0.9,3.6-2.2,3.8
				C-25,355-26.2,353.7-26.3,351.8z"/>
		</g>
		<g id="Body_x2F_Pointing-Up_4_">
			<path id="Coat-Front_12_" class="st14" d="M-27.3,304.5c4.3,0,7.6,0,9.7,0c2.5,0,6,0.5,6.5,1.5c8.9,10.3,31.8,41.2-26.9,35.9
				c-21.4-3-48.2-11.9-73.7-28.1l3.3-16.5C-74.6,307.9-45.3,304.7-27.3,304.5L-27.3,304.5z"/>
		</g>
	</g>
</g>
</svg>
