<svg version="1.1" id="Capa_1" x="0" y="0" xml:space="preserve" width="28.615" height="30.567" xmlns="http://www.w3.org/2000/svg"><style type="text/css" id="style2">.st2{fill:#bc7e2e}.st5{fill:#342318}</style><g id="XMLID_25_" transform="translate(-.085 -.433)"><g id="Head_x2F_Front_x2F_No-Hair_1_"><g id="Head_1_" transform="translate(54 31)"><g id="XMLID_35_"><path id="XMLID_38_" d="M-26.2-25.5c-.9-2.3-2.5-4.1-4.6-4.7-3.3-.9-6.5-.1-8.9 1.9-1.2 1-2.5 3.1-3.5 4.8-.4.6-2 2.5-2.5 3.6-1.5 3.8-1.9 7.1-.1 7.6.4.1 1.8.2 3.3.3 1.4.1 2.5-.1 3.7-.3.9-.2 2.7-.1 3.6.5 1.2.8.5 5.2.5 5.2l-.9 6.1h9.3s-.8-3.1-.9-9.5c0-2.6 1.5-6.6 1.6-9.5.2-2.5-.3-5.4-.6-6z" style="fill:#f2f2f2"/><path id="XMLID_34_" d="M-26.2-25.4c-.4-1.1-1-2.2-1.9-3-.8-.8-1.9-1.5-3-1.7-2.3-.5-4.7-.1-6.7 1-1 .6-1.9 1.3-2.6 2.2-.7.9-1.4 1.9-2 2.9l-.5.8c-.2.3-.4.5-.6.7-.4.5-.8.9-1.1 1.4-.3.5-.7.9-.9 1.5-.2.5-.4 1.1-.6 1.7-.4 1.1-.7 2.3-.7 3.4 0 .6.1 1.2.4 1.6.3.5.9.5 1.5.6 1.2.1 2.4.2 3.5.2.6 0 1.2-.1 1.8-.2.6-.1 1.2-.2 1.8-.2.6 0 1.2 0 1.8.2.3.1.6.2.9.4h.2s.1 0 .1.1c.1.1.1.2.2.2.1.1.2.3.2.5.4 1.2.3 2.5.3 3.7-.1 1.2-.3 2.4-.4 3.6L-35-.4l-.5-.6c3.1 0 6.2-.1 9.3-.1l-.5.7c-.1-.5-.2-1-.3-1.6-.1-.5-.2-1.1-.2-1.6-.1-1.1-.2-2.1-.3-3.2-.1-1.1-.1-2.1-.1-3.2 0-.5.1-1.1.1-1.6.1-.5.2-1.1.3-1.6.5-2.1 1.2-4.1 1.4-6.1.1-1 .1-2.1 0-3.1 0-.5-.1-1-.2-1.6 0-.4 0-1-.2-1.4zm.1-.1c.2.5.3 1 .4 1.5.1.5.2 1 .2 1.6.1 1 .2 2.1.2 3.2-.1 2.1-.7 4.2-1 6.3-.1.5-.2 1-.2 1.5-.1.5-.1 1-.1 1.5 0 1 .1 2.1.2 3.1s.2 2.1.3 3.1c.1.5.1 1 .2 1.5l.3 1.5.2.7h-.7c-3.1 0-6.2 0-9.3-.1l-.6.1.1-.5.5-3.5c.2-1.2.4-2.4.5-3.5.1-1.1.2-2.4-.1-3.4 0-.1-.1-.2-.2-.3 0-.1-.1-.1-.1-.1s-.1 0-.1-.1c-.2-.1-.5-.3-.8-.3-.5-.2-1.1-.2-1.7-.2-.6 0-1.1.1-1.7.2-.6.1-1.2.1-1.8.2-1.2 0-2.4-.1-3.6-.2-.3 0-.6-.1-.9-.1-.3-.1-.6-.3-.8-.6-.4-.6-.5-1.2-.5-1.8 0-1.2.3-2.4.6-3.6.2-.6.4-1.2.6-1.7.2-.6.6-1.1.9-1.6.3-.5.7-1 1.1-1.5.2-.2.4-.5.5-.7l.5-.8c.6-1 1.2-2.1 2-3 .8-1 1.8-1.8 2.9-2.3 1.1-.6 2.3-.9 3.5-1 1.2-.1 2.5 0 3.6.3 1.2.3 2.3 1 3.1 1.9.8.5 1.4 1.6 1.8 2.7z" style="fill:#575756"/></g></g></g><g id="XMLID_28_"><g id="XMLID_30_"><path id="XMLID_33_" class="st2" d="M13.2 19H10c-1.5-.1-6.3.5-7.1.8-.8.3-1.9-.3-.1-1 2-.7 2.7-.9 3.2-.9.5-.1 2.5-.4 2.5-.4s1.9-.5 2.3-.4c.4.1 2.4 1.9 2.4 1.9z"/><path id="XMLID_29_" d="M13.2 19c-.8.1-1.6.2-2.3.3-.4 0-.8 0-1.2.1-.4 0-.7 0-1.1.1-.8.1-1.5.1-2.3.1-.8 0-1.6 0-2.3.1-.4.1-.7.1-1.1.2-.2.1-.4.1-.7 0-.1 0-.2 0-.4-.1-.1-.1-.2-.4-.1-.5.1-.3.3-.4.5-.5l.6-.3c.3-.2.7-.3 1.1-.5.4-.1.7-.3 1.1-.4l1.2-.3c.8-.2 1.5-.3 2.3-.4.5-.1.9-.2 1.4-.3.2 0 .5-.1.7-.1h.5l.2.1.2.1c.6.8 1.2 1.5 1.7 2.3zm-.2-.1c-.7-.5-1.4-1-2.1-1.4l-.1-.1H10.5l-.6.2-1.3.4c-.8.2-1.5.3-2.3.4-.4.1-.7.1-1.1.2-.4.1-.7.2-1.1.3l-1.1.2c-.3.1-.8.2-.9.4 0 0 0-.1 0 0 0 0 .1.1.2.1.1.1.3.1.5 0 .4-.1.8-.2 1.2-.2 1.5-.3 3.1-.8 4.6-.8h1.2c.4 0 .8 0 1.2.1.6 0 1.3.1 2 .2z" style="fill:#9f6b26"/></g><g id="XMLID_84_"><path id="XMLID_87_" d="M9.6 9.2s.5 1.1.3 2.6-.3 3-.2 3.5c.2.6.9 1.5.9 1.5l-2.5.6s-5.2 1.3-6.2 1.7c-.4.2-.7.2-1.2 0s-.2-1.2-.1-1.3c.1-.1 2-1.6 4.3-3.8 2.3-2.1 4.7-4.8 4.7-4.8Z" style="fill:#f6a23c"/><path id="XMLID_83_" class="st2" d="M9.7 9.2c.3.6.5 1.3.6 2v1l-.1 1c0 .6-.1 1.3 0 1.9v.2s.1.1.1.2c.1.1.1.3.2.4.2.3.3.5.5.8l.4.6-.6.1-3 .5c-1 .2-2 .4-2.9.7-.5.1-1 .3-1.4.5-.5.2-1 .3-1.4.5-.3.1-.6.2-.9.2-.2 0-.3 0-.4-.1-.1 0 0 0-.2-.1H.5c-.2-.1-.2-.2-.3-.3-.2-.4-.1-.7 0-1 0-.1 0-.1.1-.2 0 0 0-.1.1-.1l.1-.1.1-.1.3-.3c.8-.6 1.5-1.3 2.2-2l1.1-1c.4-.3.7-.7 1.1-1 .7-.7 1.4-1.4 2.2-2.1.5-.9 1.3-1.6 2.2-2.2Zm-.1.1c-.6.8-1.2 1.5-1.8 2.3-.6.8-1.3 1.5-2 2.3-.3.4-.7.8-1.1 1.1-.4.4-.7.7-1.1 1-.8.7-1.5 1.3-2.3 1.9l-.3.2v.1c-.1.2-.1.4-.1.4H.8h.1c-.1 0 0 0 0 0 .1 0 .2.1.3.1h.6c.5-.2 1-.3 1.5-.4l1.5-.3c2-.4 3.9-1.1 5.8-1.7l-.2.7c-.2-.3-.4-.5-.6-.8-.1-.2-.2-.3-.3-.5 0-.1-.1-.2-.1-.3 0-.1 0-.2-.1-.3-.1-.7 0-1.4.1-2.1.1-.7.2-1.3.3-1.9.1-.6 0-1.2-.1-1.8Z"/></g></g><path id="XMLID_26_" class="st5" d="M8.8 11.5s-.5.6-.8.8c-.2.2-.6.3-.5.4.1.1.4.2.7-.1.3-.3.6-1.1.6-1.1z"/></g><g id="XMLID_6_" transform="translate(-.085 -.433)"><path id="XMLID_7_" class="st5" d="M21.7 8.6c-.5-.2-.9-.4-1.3-.4-.4-.1-.8-.2-1.1-.2h-1.9c-.6 0-1 .1-1.4.3-.4.1-.6.4-.6.7.1 0 .1.1.2.2.1.2.1.3.1.4 0 .2-.1.3-.3.4-.2.1-.4.2-.6.2-.4 0-.7-.1-1-.3-.3-.2-.4-.5-.4-1 0-.6.3-1.1.9-1.4.6-.4 1.4-.6 2.3-.6.3 0 .6 0 1.1.1 1.2.3 4 1.6 4 1.6zm-1.1-1.1"/></g></svg>
